<?xml version="1.0" encoding="UTF-8" standalone="no"?>
<!-- Generator: Adobe Illustrator 16.0.0, SVG Export Plug-In . SVG Version: 6.00 Build 0)  -->

<svg
   xmlns:dc="http://purl.org/dc/elements/1.1/"
   xmlns:cc="http://creativecommons.org/ns#"
   xmlns:rdf="http://www.w3.org/1999/02/22-rdf-syntax-ns#"
   xmlns:svg="http://www.w3.org/2000/svg"
   xmlns="http://www.w3.org/2000/svg"
   xmlns:sodipodi="http://sodipodi.sourceforge.net/DTD/sodipodi-0.dtd"
   xmlns:inkscape="http://www.inkscape.org/namespaces/inkscape"
   version="1.1"
   id="Layer_1"
   x="0px"
   y="0px"
   width="2400px"
   height="350px"
   viewBox="0 0 2400 350"
   enable-background="new 0 0 2400 350"
   xml:space="preserve"
   sodipodi:docname="cityscape-2.svg"
   inkscape:version="0.92.2 (5c3e80d, 2017-08-06)"><metadata
     id="metadata505"><rdf:RDF><cc:Work
         rdf:about=""><dc:format>image/svg+xml</dc:format><dc:type
           rdf:resource="http://purl.org/dc/dcmitype/StillImage" /></cc:Work></rdf:RDF></metadata><defs
     id="defs503" /><sodipodi:namedview
     pagecolor="#ffffff"
     bordercolor="#666666"
     borderopacity="1"
     objecttolerance="10"
     gridtolerance="10"
     guidetolerance="10"
     inkscape:pageopacity="0"
     inkscape:pageshadow="2"
     inkscape:window-width="1920"
     inkscape:window-height="1001"
     id="namedview501"
     showgrid="false"
     inkscape:zoom="3.1961226"
     inkscape:cx="164.8817"
     inkscape:cy="136.93453"
     inkscape:window-x="-9"
     inkscape:window-y="-9"
     inkscape:window-maximized="1"
     inkscape:current-layer="Layer_1" /><polygon
     points="262.911,234.064 292.634,257.781 287.508,259.356 288.326,262.27 292.634,263.155 292.634,311.893 159.09,311.893 159.09,310.023 159.09,258.897 157.221,258.897 189.199,225.243 199.281,234.064 "
     id="polygon2"
     transform="translate(26.859971,-81.147521)"
     style="fill:#ffffff" /><rect
     x="946.08295"
     y="168.8725"
     width="61.803001"
     height="62.425999"
     id="rect4"
     style="fill:#ffffff" /><polyline
     points="891.59,314.277 891.59,174 895.923,163 895.923,135 899.59,130 899.59,126.667 894.59,126   893.923,120.667 891.59,109.333 894.256,102.667 891.59,102.667 889.59,92.667 885.923,92.667 885.923,50.667 886.027,50.667   886.027,92.667 882.36,92.667 880.36,102.667 877.693,102.667 880.36,109.333 878.027,120.667 877.36,126 872.36,126.667   872.36,130 876.027,135 876.027,163 880.36,174 880.36,314.277 "
     id="polyline6"
     transform="matrix(1,0,0,0.83644589,26.859971,-29.746228)"
     style="fill:#ffffff" /><rect
     x="845.21991"
     y="129.68649"
     width="33"
     height="101.611"
     id="rect8"
     style="fill:#ffffff" /><rect
     x="781.88593"
     y="92.85247"
     width="63.333"
     height="138.44501"
     id="rect10"
     style="fill:#ffffff" /><rect
     x="711.19891"
     y="109.85349"
     width="36.188"
     height="121.444"
     id="rect12"
     style="fill:#ffffff" /><rect
     x="626.53192"
     y="199.73549"
     width="50.258999"
     height="31.562"
     id="rect14"
     style="fill:#ffffff" /><path
     d="m 502.01897,187.37948 c -4.338,0 -8.668,2.722 -8.668,7.777 0,3.198 0.742,4.581 0.742,7.092 0,4.248 -3.33,4.115 -3.33,9.674 0,5.558 5.039,10.193 11.256,10.193 h -0.142 c 6.216,0 11.256,-4.636 11.256,-10.193 0,-5.557 -3.33,-5.426 -3.33,-9.674 0,-2.511 0.743,-3.894 0.743,-7.092 0,-5.056 -4.331,-7.777 -8.668,-7.777"
     id="path16"
     inkscape:connector-curvature="0"
     style="fill:#ffffff" /><path
     d="m 449.81197,146.10248 c -8.169,0 -16.324,5.125 -16.324,14.645 0,6.022 1.398,8.628 1.398,13.355 0,8 -6.271,7.75 -6.271,18.217 0,10.467 9.49,19.196 21.196,19.196 h -0.268 c 11.707,0 21.196,-8.729 21.196,-19.196 0,-10.467 -6.271,-10.217 -6.271,-18.217 0,-4.728 1.398,-7.333 1.398,-13.355 0,-9.52 -8.154,-14.645 -16.324,-14.645"
     id="path18"
     inkscape:connector-curvature="0"
     style="fill:#ffffff" /><path
     d="m 102.51897,187.37948 c -4.338003,0 -8.668003,2.722 -8.668003,7.777 0,3.198 0.742,4.581 0.742,7.092 0,4.248 -3.33,4.115 -3.33,9.674 0,5.558 5.039,10.193 11.256003,10.193 h -0.142 c 6.216,0 11.256,-4.636 11.256,-10.193 0,-5.557 -3.33,-5.426 -3.33,-9.674 0,-2.511 0.743,-3.894 0.743,-7.092 0,-5.056 -4.331,-7.777 -8.668,-7.777"
     id="path20"
     inkscape:connector-curvature="0"
     style="fill:#ffffff" /><path
     d="m 504.64997,189.68748 c -3.448,-0.045 -6.922,2.461 -6.985,7.202 -0.04,2.999 0.533,4.305 0.501,6.658 -0.053,3.983 -2.697,3.823 -2.767,9.036 -0.069,5.212 3.877,9.613 8.817,9.679 l -0.113,-0.002 c 2.407,0 9.002,-4.228 9.071,-9.44 0.069,-5.212 -3.641,-5.123 -3.587,-9.107 0.031,-2.354 1.169,-3.643 1.209,-6.642 0.063,-4.741 -2.813,-7.339 -6.26,-7.385"
     id="path22"
     inkscape:connector-curvature="0"
     style="fill:#abc337" /><path
     stroke-miterlimit="10"
     d="m 502.01897,187.37948 c -4.338,0 -8.668,2.722 -8.668,7.777 0,3.198 0.742,4.581 0.742,7.092 0,4.248 -3.33,4.115 -3.33,9.674 0,5.558 5.039,10.193 11.256,10.193 h -0.142 c 6.216,0 11.256,-4.636 11.256,-10.193 0,-5.557 -3.33,-5.426 -3.33,-9.674 0,-2.511 0.743,-3.894 0.743,-7.092 0,-5.056 -4.331,-7.777 -8.668,-7.777"
     id="path24"
     inkscape:connector-curvature="0"
     style="fill:none;stroke:#262761;stroke-width:3;stroke-miterlimit:10" /><rect
     x="634.32391"
     y="207.3015"
     width="41.448002"
     height="23.337"
     id="rect26"
     style="fill:#e0d3d4" /><rect
     x="845.21991"
     y="137.18649"
     width="33"
     height="93.452003"
     id="rect28"
     style="fill:#e0d3d4" /><rect
     x="952.74994"
     y="175.9265"
     width="55.137001"
     height="54.712002"
     id="rect30"
     style="fill:#73b9e6" /><rect
     x="718.69495"
     y="118.10247"
     width="28.691999"
     height="112.536"
     id="rect32"
     style="fill:#cac8c8" /><path
     d="m 235.00897,217.12148 h -34.703 v -34.59 l 6.437,-4.108 h 21.481 l 6.786,4.443 v 34.255 z m -32.471,-2.233 h 30.239 v -30.815 l -5.219,-3.419 h -20.164 l -4.856,3.101 z"
     id="path34"
     inkscape:connector-curvature="0"
     style="fill:#262761" /><polygon
     points="167.813,254.638 167.813,260.014 157.221,260.014 157.221,257.781 165.581,257.781 165.581,253.716 186.224,232.948 194.807,232.948 214.63,252.295 214.63,257.781 222.734,257.781 222.734,260.014 212.397,260.014 212.397,253.235 193.898,235.181 187.153,235.181 "
     id="polygon36"
     transform="translate(26.859971,-81.147521)"
     style="fill:#262761" /><polyline
     points="208.149,313.571 157.973,313.571 157.973,260.058 154.112,260.058 190.306,223.669   227.292,260.058 223.39,260.058 223.39,287.794 221.157,288.386 221.157,257.825 221.84,257.825 190.323,226.817 159.481,257.825   160.206,257.825 160.206,312.34 208.149,312.34 "
     id="polyline38"
     transform="translate(26.859971,-81.147521)"
     style="fill:#262761" /><rect
     x="205.95197"
     y="179.5385"
     width="2.2320001"
     height="36.466999"
     id="rect40"
     style="fill:#262761" /><rect
     x="226.70595"
     y="179.5385"
     width="2.2320001"
     height="36.466999"
     id="rect42"
     style="fill:#262761" /><polygon
     points="179.668,266.653 174.957,268.435 174.167,266.348 179.261,264.421 194.78,264.421 194.78,266.653 "
     id="polygon44"
     transform="translate(26.859971,-81.147521)"
     style="fill:#262761" /><polygon
     points="261.512,232.948 294.033,258.897 229.59,258.897 202.629,232.948 "
     id="polygon46"
     transform="translate(26.859971,-81.147521)"
     style="fill:#24a752" /><polygon
     points="207.282,265.845 206.783,268.019 200.835,266.653 197.21,266.653 197.21,264.421 201.088,264.421 "
     id="polygon48"
     transform="translate(26.859971,-81.147521)"
     style="fill:#262761" /><rect
     x="207.51297"
     y="158.15849"
     width="19.888"
     height="2.2320001"
     id="rect50"
     style="fill:#262761" /><rect
     x="197.69997"
     y="167.9325"
     width="20.591"
     height="2.2320001"
     id="rect52"
     style="fill:#262761" /><rect
     x="221.78098"
     y="167.9325"
     width="5.6199999"
     height="2.2320001"
     id="rect54"
     style="fill:#262761" /><rect
     x="193.92697"
     y="176.6335"
     width="3.313"
     height="2.2320001"
     id="rect56"
     style="fill:#262761" /><polygon
     points="287.508,263.387 287.508,257.781 289.344,257.781 262.28,235.181 199.281,235.181 199.281,232.948 262.977,232.948 296.489,260.014 289.741,260.014 289.741,261.154 294.033,261.154 294.033,267.442 222.734,267.442 222.734,265.21 291.801,265.21 291.801,263.387 "
     id="polygon58"
     transform="translate(26.859971,-81.147521)"
     style="fill:#262761" /><polyline
     points="248.534,300.396 291.801,300.396 291.801,266.325 294.033,266.325 294.033,302.628   248.332,302.628 "
     id="polyline60"
     transform="translate(26.859971,-81.147521)"
     style="fill:#262761" /><polygon
     points="294.033,301.511 294.033,313.571 254.325,313.571 254.325,312.34 291.801,312.34 291.801,301.511 "
     id="polygon62"
     transform="translate(26.859971,-81.147521)"
     style="fill:#262761" /><polygon
     points="222.734,269.809 238.18,269.809 243.448,274.821 243.448,297.153 241.216,297.153 241.216,275.778 237.287,272.041 222.734,272.041 "
     id="polygon64"
     transform="translate(26.859971,-81.147521)"
     style="fill:#262761" /><polygon
     points="247.28,275.778 247.28,299.142 245.048,299.142 245.048,274.821 250.316,269.809 284.844,269.809 290.508,275.935 290.508,301.358 288.275,301.358 288.275,276.81 283.868,272.041 251.208,272.041 "
     id="polygon66"
     transform="translate(26.859971,-81.147521)"
     style="fill:#262761" /><rect
     x="216.54097"
     y="184.38948"
     width="2.2320001"
     height="31.615"
     id="rect68"
     style="fill:#262761" /><rect
     x="185.94997"
     y="214.8885"
     width="8.3739996"
     height="2.2320001"
     id="rect70"
     style="fill:#262761" /><rect
     x="185.94997"
     y="222.13051"
     width="8.3739996"
     height="2.2320001"
     id="rect72"
     style="fill:#262761" /><rect
     x="185.94997"
     y="207.2375"
     width="8.3739996"
     height="2.2320001"
     id="rect74"
     style="fill:#262761" /><rect
     x="185.94997"
     y="199.5865"
     width="8.3739996"
     height="2.2320001"
     id="rect76"
     style="fill:#262761" /><rect
     x="185.94997"
     y="191.93449"
     width="8.3739996"
     height="2.2320001"
     id="rect78"
     style="fill:#262761" /><rect
     x="185.94997"
     y="184.28551"
     width="8.3739996"
     height="2.2309999"
     id="rect80"
     style="fill:#262761" /><rect
     x="263.06"
     y="176.6335"
     width="54.278"
     height="2.2320001"
     id="rect82"
     style="fill:#262761" /><rect
     x="308.88898"
     y="178.20848"
     width="2.2320001"
     height="2.9130001"
     id="rect84"
     style="fill:#262761" /><rect
     x="301.21298"
     y="178.20848"
     width="2.2320001"
     height="2.9130001"
     id="rect86"
     style="fill:#262761" /><rect
     x="293.53699"
     y="178.20848"
     width="2.2320001"
     height="2.9130001"
     id="rect88"
     style="fill:#262761" /><rect
     x="285.86099"
     y="178.20848"
     width="2.2320001"
     height="2.9130001"
     id="rect90"
     style="fill:#262761" /><rect
     x="278.186"
     y="178.20848"
     width="2.2320001"
     height="2.9130001"
     id="rect92"
     style="fill:#262761" /><rect
     x="270.50998"
     y="178.20848"
     width="2.2320001"
     height="2.9130001"
     id="rect94"
     style="fill:#262761" /><rect
     x="308.42899"
     y="205.9525"
     width="2.2320001"
     height="13.868"
     id="rect96"
     style="fill:#262761" /><rect
     x="301.06"
     y="205.9525"
     width="2.2320001"
     height="13.868"
     id="rect98"
     style="fill:#262761" /><rect
     x="293.69098"
     y="205.9525"
     width="2.2320001"
     height="13.868"
     id="rect100"
     style="fill:#262761" /><rect
     x="278.952"
     y="205.9525"
     width="2.2320001"
     height="13.868"
     id="rect102"
     style="fill:#262761" /><rect
     x="286.28799"
     y="205.9525"
     width="2.2320001"
     height="13.868"
     id="rect104"
     style="fill:#262761" /><rect
     x="207.06796"
     y="198.16948"
     width="20.753"
     height="2.2320001"
     id="rect106"
     style="fill:#262761" /><rect
     x="216.05898"
     y="141.1485"
     width="2.2320001"
     height="2.947"
     id="rect108"
     style="fill:#262761" /><rect
     x="288.37198"
     y="149.9695"
     width="2.2320001"
     height="2.947"
     id="rect110"
     style="fill:#262761" /><rect
     x="273.02399"
     y="204.8365"
     width="43.396"
     height="2.2320001"
     id="rect112"
     style="fill:#262761" /><path
     d="m 240.87697,231.86648 h 34.694 v -5.609 c 0,-3.602 -3.074,-6.533 -6.853,-6.533 -0.941,0 -1.856,0.181 -2.722,0.539 l -1.219,0.504 -0.31,-1.232 c -1.295,-5.147 -6.075,-8.742 -11.624,-8.742 -6.598,0 -11.967,5.119 -11.967,11.41 v 9.663 z"
     id="path114"
     inkscape:connector-curvature="0"
     style="fill:#89bf4f" /><path
     d="m 277.80297,232.42348 h -39.158 v -12.368 c 0,-7.828 6.371,-14.198 14.199,-14.198 6.17,0 11.54,3.929 13.456,9.695 0.785,-0.218 1.595,-0.329 2.419,-0.329 5.009,0 9.084,4.076 9.084,9.086 z m -36.926,-2.231 h 34.694 v -5.883 c 0,-3.779 -3.074,-6.854 -6.853,-6.854 -0.941,0 -1.856,0.191 -2.722,0.565 l -1.219,0.53 -0.31,-1.294 c -1.295,-5.397 -6.075,-9.168 -11.624,-9.168 -6.598,0 -11.967,5.368 -11.967,11.966 v 10.138 z"
     id="path116"
     inkscape:connector-curvature="0"
     style="fill:#262761" /><polygon
     points="1572.911,234.064 1602.634,257.781 1597.508,259.356 1598.326,262.27 1602.634,263.155 1602.634,311.893 1469.09,311.893 1469.09,310.023 1469.09,258.897 1467.221,258.897 1499.199,225.243 1509.281,234.064 "
     id="polygon118"
     transform="translate(26.859971,-81.147521)"
     style="fill:#ffffff" /><path
     d="m 1545.0089,217.12148 h -34.703 v -34.59 l 6.437,-4.108 h 21.481 l 6.785,4.443 z m -32.471,-2.233 h 30.238 v -30.815 l -5.219,-3.419 h -20.164 l -4.855,3.101 z"
     id="path120"
     inkscape:connector-curvature="0"
     style="fill:#262761" /><polygon
     points="1477.813,254.638 1477.813,260.014 1467.221,260.014 1467.221,257.781 1475.581,257.781 1475.581,253.716 1496.224,232.948 1504.807,232.948 1524.629,252.295 1524.629,257.781 1532.734,257.781 1532.734,260.014 1522.397,260.014 1522.397,253.235 1503.899,235.181 1497.153,235.181 "
     id="polygon122"
     transform="translate(26.859971,-81.147521)"
     style="fill:#262761" /><polyline
     points="1518.149,313.571 1467.973,313.571 1467.973,260.058 1464.112,260.058 1500.305,223.669   1537.292,260.058 1533.389,260.058 1533.389,287.794 1531.157,288.386 1531.157,257.825 1531.84,257.825 1500.323,226.817   1469.481,257.825 1470.206,257.825 1470.206,312.34 1518.149,312.34 "
     id="polyline124"
     transform="translate(26.859971,-81.147521)"
     style="fill:#262761" /><rect
     x="1515.952"
     y="179.5385"
     width="2.2320001"
     height="36.466999"
     id="rect126"
     style="fill:#262761" /><rect
     x="1536.7059"
     y="179.5385"
     width="2.2320001"
     height="36.466999"
     id="rect128"
     style="fill:#262761" /><polygon
     points="1489.668,266.653 1484.958,268.435 1484.167,266.348 1489.26,264.421 1504.78,264.421 1504.78,266.653 "
     id="polygon130"
     transform="translate(26.859971,-81.147521)"
     style="fill:#262761" /><polygon
     points="1571.512,232.948 1604.034,258.897 1539.59,258.897 1512.629,232.948 "
     id="polygon132"
     transform="translate(26.859971,-81.147521)"
     style="fill:#24a752" /><polygon
     points="1517.282,265.845 1516.783,268.019 1510.835,266.653 1507.21,266.653 1507.21,264.421 1511.088,264.421 "
     id="polygon134"
     transform="translate(26.859971,-81.147521)"
     style="fill:#262761" /><rect
     x="1517.5129"
     y="158.15849"
     width="19.889"
     height="2.2320001"
     id="rect136"
     style="fill:#262761" /><rect
     x="1507.7"
     y="167.9325"
     width="20.591"
     height="2.2320001"
     id="rect138"
     style="fill:#262761" /><rect
     x="1531.781"
     y="167.9325"
     width="5.6199999"
     height="2.2320001"
     id="rect140"
     style="fill:#262761" /><rect
     x="1503.927"
     y="176.6335"
     width="3.312"
     height="2.2320001"
     id="rect142"
     style="fill:#262761" /><polygon
     points="1597.508,263.387 1597.508,257.781 1599.344,257.781 1572.28,235.181 1509.281,235.181 1509.281,232.948 1572.977,232.948 1606.489,260.014 1599.741,260.014 1599.741,261.154 1604.034,261.154 1604.034,267.442 1532.734,267.442 1532.734,265.21 1601.801,265.21 1601.801,263.387 "
     id="polygon144"
     transform="translate(26.859971,-81.147521)"
     style="fill:#262761" /><polyline
     points="1558.534,300.396 1601.801,300.396 1601.801,266.325 1604.034,266.325 1604.034,302.628   1558.332,302.628 "
     id="polyline146"
     transform="translate(26.859971,-81.147521)"
     style="fill:#262761" /><polygon
     points="1604.034,301.511 1604.034,313.571 1564.325,313.571 1564.325,312.34 1601.801,312.34 1601.801,301.511 "
     id="polygon148"
     transform="translate(26.859971,-81.147521)"
     style="fill:#262761" /><polygon
     points="1532.734,269.809 1548.18,269.809 1553.448,274.821 1553.448,297.153 1551.215,297.153 1551.215,275.778 1547.288,272.041 1532.734,272.041 "
     id="polygon150"
     transform="translate(26.859971,-81.147521)"
     style="fill:#262761" /><polygon
     points="1557.28,275.778 1557.28,299.142 1555.047,299.142 1555.047,274.821 1560.317,269.809 1594.844,269.809 1600.508,275.935 1600.508,301.358 1598.276,301.358 1598.276,276.81 1593.868,272.041 1561.208,272.041 "
     id="polygon152"
     transform="translate(26.859971,-81.147521)"
     style="fill:#262761" /><rect
     x="1526.541"
     y="184.38948"
     width="2.2309999"
     height="31.615"
     id="rect154"
     style="fill:#262761" /><rect
     x="1495.95"
     y="214.8885"
     width="8.3730001"
     height="2.2320001"
     id="rect156"
     style="fill:#262761" /><rect
     x="1495.95"
     y="222.13051"
     width="8.3730001"
     height="2.2320001"
     id="rect158"
     style="fill:#262761" /><rect
     x="1495.95"
     y="207.2375"
     width="8.3730001"
     height="2.2320001"
     id="rect160"
     style="fill:#262761" /><rect
     x="1495.95"
     y="199.5865"
     width="8.3730001"
     height="2.2320001"
     id="rect162"
     style="fill:#262761" /><rect
     x="1495.95"
     y="191.93449"
     width="8.3730001"
     height="2.2320001"
     id="rect164"
     style="fill:#262761" /><rect
     x="1495.95"
     y="184.28551"
     width="8.3730001"
     height="2.2309999"
     id="rect166"
     style="fill:#262761" /><rect
     x="1573.0599"
     y="176.6335"
     width="54.277"
     height="2.2320001"
     id="rect168"
     style="fill:#262761" /><rect
     x="1618.889"
     y="178.20848"
     width="2.2320001"
     height="2.9130001"
     id="rect170"
     style="fill:#262761" /><rect
     x="1611.213"
     y="178.20848"
     width="2.2309999"
     height="2.9130001"
     id="rect172"
     style="fill:#262761" /><rect
     x="1603.537"
     y="178.20848"
     width="2.2320001"
     height="2.9130001"
     id="rect174"
     style="fill:#262761" /><rect
     x="1595.861"
     y="178.20848"
     width="2.2320001"
     height="2.9130001"
     id="rect176"
     style="fill:#262761" /><rect
     x="1588.187"
     y="178.20848"
     width="2.2320001"
     height="2.9130001"
     id="rect178"
     style="fill:#262761" /><rect
     x="1580.51"
     y="178.20848"
     width="2.2320001"
     height="2.9130001"
     id="rect180"
     style="fill:#262761" /><rect
     x="1618.429"
     y="205.9525"
     width="2.2320001"
     height="13.868"
     id="rect182"
     style="fill:#262761" /><rect
     x="1611.0599"
     y="205.9525"
     width="2.2320001"
     height="13.868"
     id="rect184"
     style="fill:#262761" /><rect
     x="1603.691"
     y="205.9525"
     width="2.2320001"
     height="13.868"
     id="rect186"
     style="fill:#262761" /><rect
     x="1588.952"
     y="205.9525"
     width="2.2320001"
     height="13.868"
     id="rect188"
     style="fill:#262761" /><rect
     x="1596.288"
     y="205.9525"
     width="2.2320001"
     height="13.868"
     id="rect190"
     style="fill:#262761" /><rect
     x="1517.068"
     y="198.16948"
     width="20.753"
     height="2.2320001"
     id="rect192"
     style="fill:#262761" /><rect
     x="1526.059"
     y="141.1485"
     width="2.2320001"
     height="2.947"
     id="rect194"
     style="fill:#262761" /><rect
     x="1598.3719"
     y="149.9695"
     width="2.2320001"
     height="2.947"
     id="rect196"
     style="fill:#262761" /><rect
     x="1583.025"
     y="204.8365"
     width="43.395"
     height="2.2320001"
     id="rect198"
     style="fill:#262761" /><path
     d="m 1550.8769,231.86648 h 34.694 v -5.609 c 0,-3.602 -3.074,-6.533 -6.854,-6.533 -0.94,0 -1.855,0.181 -2.722,0.539 l -1.219,0.504 -0.31,-1.232 c -1.296,-5.147 -6.076,-8.742 -11.624,-8.742 -6.599,0 -11.967,5.119 -11.967,11.41 v 9.663 z"
     id="path200"
     inkscape:connector-curvature="0"
     style="fill:#89bf4f" /><path
     d="m 1587.8029,232.42348 h -39.158 v -12.368 c 0,-7.828 6.37,-14.198 14.199,-14.198 6.171,0 11.54,3.929 13.456,9.695 0.785,-0.218 1.594,-0.329 2.418,-0.329 5.01,0 9.085,4.076 9.085,9.086 z m -36.926,-2.231 h 34.694 v -5.883 c 0,-3.779 -3.074,-6.854 -6.854,-6.854 -0.94,0 -1.855,0.191 -2.722,0.565 l -1.219,0.53 -0.31,-1.294 c -1.296,-5.397 -6.076,-9.168 -11.624,-9.168 -6.599,0 -11.967,5.368 -11.967,11.966 v 10.138 z"
     id="path202"
     inkscape:connector-curvature="0"
     style="fill:#262761" /><rect
     x="711.19891"
     y="109.85349"
     stroke-miterlimit="10"
     width="36.188"
     height="121.444"
     id="rect204"
     style="fill:none;stroke:#262761;stroke-width:3;stroke-miterlimit:10" /><rect
     x="845.21991"
     y="129.68649"
     stroke-miterlimit="10"
     width="33"
     height="101.611"
     id="rect206"
     style="fill:none;stroke:#262761;stroke-width:3;stroke-miterlimit:10" /><rect
     x="946.08295"
     y="168.8725"
     stroke-miterlimit="10"
     width="61.803001"
     height="62.425999"
     id="rect208"
     style="fill:none;stroke:#262761;stroke-width:3;stroke-miterlimit:10" /><rect
     x="789.55194"
     y="98.52047"
     width="55.667"
     height="132.77699"
     id="rect210"
     style="fill:#73b9e6" /><polygon
     points="635.667,294.716 635.667,291.391 640.94,291.4 640.94,294.716 "
     id="polygon212"
     transform="translate(26.859971,-81.147521)"
     style="fill:#262761" /><polygon
     points="692.722,208.547 692.721,205.222 712.974,205.231 712.975,208.547 "
     id="polygon214"
     transform="translate(26.859971,-81.147521)"
     style="fill:#262761" /><polygon
     points="692.722,221.094 692.721,217.769 712.974,217.778 712.975,221.094 "
     id="polygon216"
     transform="translate(26.859971,-81.147521)"
     style="fill:#262761" /><polygon
     points="692.722,233.642 692.721,230.316 712.974,230.326 712.975,233.642 "
     id="polygon218"
     transform="translate(26.859971,-81.147521)"
     style="fill:#262761" /><polygon
     points="692.722,246.188 692.721,242.863 712.974,242.873 712.975,246.188 "
     id="polygon220"
     transform="translate(26.859971,-81.147521)"
     style="fill:#262761" /><polygon
     points="692.722,258.736 692.721,255.411 712.974,255.421 712.975,258.736 "
     id="polygon222"
     transform="translate(26.859971,-81.147521)"
     style="fill:#262761" /><polygon
     points="692.722,271.283 692.721,267.958 712.974,267.968 712.975,271.283 "
     id="polygon224"
     transform="translate(26.859971,-81.147521)"
     style="fill:#262761" /><polygon
     points="692.722,283.831 692.721,280.506 712.974,280.516 712.975,283.831 "
     id="polygon226"
     transform="translate(26.859971,-81.147521)"
     style="fill:#262761" /><polygon
     points="692.722,296.378 692.721,293.053 712.974,293.062 712.975,296.378 "
     id="polygon228"
     transform="translate(26.859971,-81.147521)"
     style="fill:#262761" /><polygon
     points="623.147,294.716 623.147,291.391 628.421,291.4 628.421,294.716 "
     id="polygon230"
     transform="translate(26.859971,-81.147521)"
     style="fill:#262761" /><polygon
     points="610.507,294.716 610.507,291.391 615.78,291.4 615.78,294.716 "
     id="polygon232"
     transform="translate(26.859971,-81.147521)"
     style="fill:#262761" /><polygon
     points="610.507,305.229 610.507,301.904 615.78,301.914 615.78,305.229 "
     id="polygon234"
     transform="translate(26.859971,-81.147521)"
     style="fill:#262761" /><polygon
     points="766.515,278.282 766.515,274.957 771.788,274.967 771.788,278.282 "
     id="polygon236"
     transform="translate(26.859971,-81.147521)"
     style="fill:#262761" /><polygon
     points="766.515,290.751 766.515,287.426 771.788,287.436 771.788,290.751 "
     id="polygon238"
     transform="translate(26.859971,-81.147521)"
     style="fill:#262761" /><polygon
     points="766.515,253.345 766.515,250.02 771.788,250.029 771.788,253.345 "
     id="polygon240"
     transform="translate(26.859971,-81.147521)"
     style="fill:#262761" /><polygon
     points="766.515,265.813 766.515,262.488 771.788,262.498 771.788,265.813 "
     id="polygon242"
     transform="translate(26.859971,-81.147521)"
     style="fill:#262761" /><polygon
     points="766.515,228.407 766.515,225.082 771.788,225.092 771.788,228.407 "
     id="polygon244"
     transform="translate(26.859971,-81.147521)"
     style="fill:#262761" /><polygon
     points="766.515,240.876 766.515,237.551 771.788,237.561 771.788,240.876 "
     id="polygon246"
     transform="translate(26.859971,-81.147521)"
     style="fill:#262761" /><polygon
     points="766.515,203.47 766.515,200.145 771.788,200.154 771.788,203.47 "
     id="polygon248"
     transform="translate(26.859971,-81.147521)"
     style="fill:#262761" /><polygon
     points="766.515,191.001 766.515,187.676 771.788,187.686 771.788,191.001 "
     id="polygon250"
     transform="translate(26.859971,-81.147521)"
     style="fill:#262761" /><polygon
     points="766.515,215.938 766.515,212.613 771.788,212.623 771.788,215.938 "
     id="polygon252"
     transform="translate(26.859971,-81.147521)"
     style="fill:#262761" /><polygon
     points="778.455,278.282 778.455,274.957 783.728,274.967 783.728,278.282 "
     id="polygon254"
     transform="translate(26.859971,-81.147521)"
     style="fill:#262761" /><polygon
     points="778.455,290.751 778.455,287.426 783.728,287.436 783.728,290.751 "
     id="polygon256"
     transform="translate(26.859971,-81.147521)"
     style="fill:#262761" /><polygon
     points="778.455,253.345 778.455,250.02 783.728,250.029 783.728,253.345 "
     id="polygon258"
     transform="translate(26.859971,-81.147521)"
     style="fill:#262761" /><polygon
     points="778.455,265.813 778.455,262.488 783.728,262.498 783.728,265.813 "
     id="polygon260"
     transform="translate(26.859971,-81.147521)"
     style="fill:#262761" /><polygon
     points="930.45,288.78 930.45,285.455 935.723,285.465 935.723,288.78 "
     id="polygon262"
     transform="translate(26.859971,-81.147521)"
     style="fill:#262761" /><polygon
     points="930.45,301.249 930.45,297.924 935.723,297.934 935.723,301.249 "
     id="polygon264"
     transform="translate(26.859971,-81.147521)"
     style="fill:#262761" /><polygon
     points="930.45,263.843 930.45,260.518 935.723,260.527 935.723,263.843 "
     id="polygon266"
     transform="translate(26.859971,-81.147521)"
     style="fill:#262761" /><polygon
     points="930.45,276.312 930.45,272.986 935.723,272.996 935.723,276.312 "
     id="polygon268"
     transform="translate(26.859971,-81.147521)"
     style="fill:#262761" /><polygon
     points="942.39,288.78 942.39,285.455 947.663,285.465 947.663,288.78 "
     id="polygon270"
     transform="translate(26.859971,-81.147521)"
     style="fill:#262761" /><polygon
     points="942.39,301.249 942.39,297.924 947.663,297.934 947.663,301.249 "
     id="polygon272"
     transform="translate(26.859971,-81.147521)"
     style="fill:#262761" /><polygon
     points="942.39,263.843 942.39,260.518 947.663,260.527 947.663,263.843 "
     id="polygon274"
     transform="translate(26.859971,-81.147521)"
     style="fill:#262761" /><polygon
     points="942.39,276.312 942.39,272.986 947.663,272.996 947.663,276.312 "
     id="polygon276"
     transform="translate(26.859971,-81.147521)"
     style="fill:#262761" /><polygon
     points="956.117,288.78 956.117,285.455 961.39,285.465 961.39,288.78 "
     id="polygon278"
     transform="translate(26.859971,-81.147521)"
     style="fill:#262761" /><polygon
     points="956.117,301.249 956.117,297.924 961.39,297.934 961.39,301.249 "
     id="polygon280"
     transform="translate(26.859971,-81.147521)"
     style="fill:#262761" /><polygon
     points="956.117,263.843 956.117,260.518 961.39,260.527 961.39,263.843 "
     id="polygon282"
     transform="translate(26.859971,-81.147521)"
     style="fill:#262761" /><polygon
     points="956.117,276.312 956.117,272.986 961.39,272.996 961.39,276.312 "
     id="polygon284"
     transform="translate(26.859971,-81.147521)"
     style="fill:#262761" /><polygon
     points="968.057,288.78 968.057,285.455 973.33,285.465 973.33,288.78 "
     id="polygon286"
     transform="translate(26.859971,-81.147521)"
     style="fill:#262761" /><polygon
     points="968.057,301.249 968.057,297.924 973.33,297.934 973.33,301.249 "
     id="polygon288"
     transform="translate(26.859971,-81.147521)"
     style="fill:#262761" /><polygon
     points="968.057,263.843 968.057,260.518 973.33,260.527 973.33,263.843 "
     id="polygon290"
     transform="translate(26.859971,-81.147521)"
     style="fill:#262761" /><polygon
     points="968.057,276.312 968.057,272.986 973.33,272.996 973.33,276.312 "
     id="polygon292"
     transform="translate(26.859971,-81.147521)"
     style="fill:#262761" /><polygon
     points="778.455,228.407 778.455,225.082 783.728,225.092 783.728,228.407 "
     id="polygon294"
     transform="translate(26.859971,-81.147521)"
     style="fill:#262761" /><polygon
     points="778.455,240.876 778.455,237.551 783.728,237.561 783.728,240.876 "
     id="polygon296"
     transform="translate(26.859971,-81.147521)"
     style="fill:#262761" /><polygon
     points="778.455,203.47 778.455,200.145 783.728,200.154 783.728,203.47 "
     id="polygon298"
     transform="translate(26.859971,-81.147521)"
     style="fill:#262761" /><polygon
     points="778.455,191.001 778.455,187.676 783.728,187.686 783.728,191.001 "
     id="polygon300"
     transform="translate(26.859971,-81.147521)"
     style="fill:#262761" /><polygon
     points="778.455,215.938 778.455,212.613 783.728,212.623 783.728,215.938 "
     id="polygon302"
     transform="translate(26.859971,-81.147521)"
     style="fill:#262761" /><rect
     x="655.09894"
     y="220.01949"
     stroke-miterlimit="10"
     width="13.207"
     height="9.7679996"
     id="rect304"
     style="fill:#ffffff;stroke:#262761;stroke-width:4;stroke-miterlimit:10" /><rect
     x="781.88593"
     y="92.85247"
     stroke-miterlimit="10"
     width="63.333"
     height="138.44501"
     id="rect306"
     style="fill:none;stroke:#262761;stroke-width:3;stroke-miterlimit:10" /><rect
     x="626.53192"
     y="199.73549"
     stroke-miterlimit="10"
     width="50.258999"
     height="31.562"
     id="rect308"
     style="fill:none;stroke:#262761;stroke-width:3;stroke-miterlimit:10" /><polyline
     stroke-miterlimit="10"
     points="  880.36,313.277 880.36,174 876.027,163 876.027,135 872.36,130 872.36,125.882 877.414,125.571 878.027,120.667 880.36,109.333   877.693,102.667 880.36,102.667 882.36,92.667 886.027,92.667 886.027,50.667 "
     id="polyline310"
     transform="matrix(1,0,0,0.83644589,26.859971,-29.746228)"
     style="fill:none;stroke:#262761;stroke-width:3;stroke-linecap:round;stroke-linejoin:round;stroke-miterlimit:10" /><polygon
     points="892.256,103.602 891.256,95 891.36,97 887.693,97 885.693,104.805 883.062,103.602 885.206,111.31 883.36,122.453 882.693,125.721 877.693,127.335 879.693,134.564 881.36,136.506 881.36,163.958 885.693,174.743 885.693,312.277 891.256,312.277 891.98,169.547 896.36,164.5 895.864,135.65 900.143,125.669 895.32,125.154 "
     id="polygon312"
     transform="matrix(1,0,0,0.83644589,26.859971,-29.746228)"
     style="fill:#cac8c8" /><polyline
     points="895.864,135.65 900.143,125.669 895.433,125.669 892.256,103.602 885.693,103.805 883.027,103.805   884.693,109.341 891.59,109.333 895.61,126.42 882.693,125.721 877.693,127.335 879.693,134.564 894.59,135.5 "
     id="polyline314"
     transform="matrix(1,0,0,0.83644589,26.859971,-29.746228)"
     style="fill:#73b9e6" /><line
     x1="918.11591"
     y1="231.4566"
     x2="918.8399"
     y2="112.07064"
     id="line316"
     style="fill:#aedaf5;stroke-width:0.91457415" /><polyline
     stroke-miterlimit="10"
     points="  891.59,313.277 891.59,174 895.923,163 895.923,135 899.59,130 899.59,125.882 894.59,125.677 893.923,120.667 891.59,109.333   894.256,102.667 891.59,102.667 889.59,92.667 885.923,92.667 885.923,50.667 "
     id="polyline318"
     transform="matrix(1,0,0,0.83644589,26.859971,-29.746228)"
     style="fill:none;stroke:#262761;stroke-width:3;stroke-linecap:round;stroke-linejoin:round;stroke-miterlimit:10" /><line
     stroke-miterlimit="10"
     x1="904.55292"
     y1="56.129166"
     x2="921.11591"
     y2="56.129166"
     id="line320"
     style="fill:none;stroke:#262761;stroke-width:2.74372244;stroke-miterlimit:10" /><line
     stroke-miterlimit="10"
     x1="907.21991"
     y1="61.70491"
     x2="918.44995"
     y2="61.70491"
     id="line322"
     style="fill:none;stroke:#262761;stroke-width:1.82914829;stroke-miterlimit:10" /><line
     stroke-miterlimit="10"
     x1="904.21991"
     y1="70.905807"
     x2="921.44995"
     y2="70.905807"
     id="line324"
     style="fill:none;stroke:#262761;stroke-width:1.82914829;stroke-miterlimit:10" /><rect
     x="908.21991"
     y="91.747528"
     width="13.229"
     height="6.4824557"
     id="rect326"
     style="fill:#73b9e6;stroke-width:0.91457415" /><line
     stroke-miterlimit="10"
     x1="904.21991"
     y1="91.747528"
     x2="921.44995"
     y2="91.747528"
     id="line328"
     style="fill:none;stroke:#262761;stroke-width:1.82914829;stroke-miterlimit:10" /><path
     d="m 454.76597,150.44848 c -6.492,-0.086 -13.035,4.634 -13.154,13.562 -0.075,5.647 1.003,8.105 0.944,12.539 -0.1,7.501 -5.08,7.2 -5.21,17.016 -0.13,9.816 7.302,18.103 16.604,18.227 l -0.213,-0.003 c 4.533,0 16.952,-7.963 17.083,-17.778 0.131,-9.815 -6.855,-9.647 -6.756,-17.149 0.059,-4.433 2.202,-6.861 2.277,-12.509 0.119,-8.928 -5.297,-13.819 -11.789,-13.906"
     id="path330"
     inkscape:connector-curvature="0"
     style="fill:#24a752" /><line
     stroke-miterlimit="10"
     x1="904.21991"
     y1="98.229988"
     x2="921.44995"
     y2="98.229988"
     id="line332"
     style="fill:none;stroke:#262761;stroke-width:1.82914829;stroke-miterlimit:10" /><line
     stroke-miterlimit="10"
     x1="902.8869"
     y1="83.592186"
     x2="922.7829"
     y2="83.592186"
     id="line334"
     style="fill:none;stroke:#262761;stroke-width:2.74372244;stroke-miterlimit:10" /><line
     stroke-miterlimit="10"
     x1="891.19995"
     y1="75.547249"
     x2="934.46991"
     y2="75.547249"
     id="line336"
     style="fill:none;stroke:#262761;stroke-width:2.74372244;stroke-miterlimit:10" /><line
     stroke-miterlimit="10"
     x1="-31.805029"
     y1="232.12949"
     x2="2517.2449"
     y2="232.12949"
     id="line338"
     style="fill:none;stroke:#262761;stroke-width:3;stroke-miterlimit:10" /><line
     stroke-miterlimit="10"
     x1="449.71997"
     y1="192.5515"
     x2="449.71997"
     y2="232.12949"
     id="line340"
     style="fill:none;stroke:#262761;stroke-width:3;stroke-miterlimit:10" /><line
     stroke-miterlimit="10"
     x1="501.96994"
     y1="212.3405"
     x2="501.96994"
     y2="232.12949"
     id="line342"
     style="fill:none;stroke:#262761;stroke-width:3;stroke-miterlimit:10" /><path
     d="m 105.14997,189.68748 c -3.448,-0.045 -6.922003,2.461 -6.985003,7.202 -0.04,2.999 0.533,4.305 0.501,6.658 -0.053,3.983 -2.697,3.823 -2.767,9.036 -0.069,5.212 3.877,9.613 8.817003,9.679 l -0.113,-0.002 c 2.407,0 9.002,-4.228 9.071,-9.44 0.069,-5.212 -3.641,-5.123 -3.587,-9.107 0.031,-2.354 1.169,-3.643 1.209,-6.642 0.063,-4.741 -2.813,-7.339 -6.26,-7.385"
     id="path344"
     inkscape:connector-curvature="0"
     style="fill:#abc337" /><path
     stroke-miterlimit="10"
     d="m 102.51897,187.37948 c -4.338003,0 -8.668003,2.722 -8.668003,7.777 0,3.198 0.742,4.581 0.742,7.092 0,4.248 -3.33,4.115 -3.33,9.674 0,5.558 5.039,10.193 11.256003,10.193 h -0.142 c 6.216,0 11.256,-4.636 11.256,-10.193 0,-5.557 -3.33,-5.426 -3.33,-9.674 0,-2.511 0.743,-3.894 0.743,-7.092 0,-5.056 -4.331,-7.777 -8.668,-7.777"
     id="path346"
     inkscape:connector-curvature="0"
     style="fill:none;stroke:#262761;stroke-width:3;stroke-miterlimit:10" /><line
     stroke-miterlimit="10"
     x1="102.46997"
     y1="214.3405"
     x2="102.46997"
     y2="234.12949"
     id="line348"
     style="fill:none;stroke:#262761;stroke-width:3;stroke-miterlimit:10" /><path
     stroke-miterlimit="10"
     d="m 449.81197,146.10248 c -8.169,0 -16.324,5.125 -16.324,14.645 0,6.022 1.398,8.628 1.398,13.355 0,8 -6.271,7.75 -6.271,18.217 0,10.467 9.49,19.196 21.196,19.196 h -0.268 c 11.707,0 21.196,-8.729 21.196,-19.196 0,-10.467 -6.271,-10.217 -6.271,-18.217 0,-4.728 1.398,-7.333 1.398,-13.355 0,-9.52 -8.154,-14.645 -16.324,-14.645"
     id="path350"
     inkscape:connector-curvature="0"
     style="fill:none;stroke:#262761;stroke-width:3;stroke-miterlimit:10" /><rect
     x="2148.0828"
     y="168.8725"
     width="61.803001"
     height="62.425999"
     id="rect352"
     style="fill:#ffffff" /><rect
     x="2097.22"
     y="129.68649"
     width="33"
     height="101.611"
     id="rect354"
     style="fill:#ffffff" /><rect
     x="2033.886"
     y="92.85247"
     width="63.334"
     height="138.44501"
     id="rect356"
     style="fill:#ffffff" /><rect
     x="1963.198"
     y="109.85349"
     width="36.188"
     height="121.444"
     id="rect358"
     style="fill:#ffffff" /><rect
     x="2298.532"
     y="199.73549"
     width="50.257999"
     height="31.562"
     id="rect360"
     style="fill:#ffffff" /><path
     d="m 1754.0189,187.37948 c -4.338,0 -8.668,2.722 -8.668,7.777 0,3.198 0.742,4.581 0.742,7.092 0,4.248 -3.33,4.115 -3.33,9.674 0,5.558 5.039,10.193 11.256,10.193 h -0.142 c 6.216,0 11.256,-4.636 11.256,-10.193 0,-5.557 -3.33,-5.426 -3.33,-9.674 0,-2.511 0.743,-3.894 0.743,-7.092 0,-5.056 -4.331,-7.777 -8.669,-7.777"
     id="path362"
     inkscape:connector-curvature="0"
     style="fill:#ffffff" /><path
     d="m 1821.8119,146.10248 c -8.17,0 -16.324,5.125 -16.324,14.645 0,6.022 1.398,8.628 1.398,13.355 0,8 -6.271,7.75 -6.271,18.217 0,10.467 9.489,19.196 21.196,19.196 h -0.268 c 11.707,0 21.196,-8.729 21.196,-19.196 0,-10.467 -6.271,-10.217 -6.271,-18.217 0,-4.728 1.398,-7.333 1.398,-13.355 0,-9.52 -8.154,-14.645 -16.324,-14.645"
     id="path364"
     inkscape:connector-curvature="0"
     style="fill:#ffffff" /><path
     d="m 1264.5189,187.37948 c -4.338,0 -8.668,2.722 -8.668,7.777 0,3.198 0.742,4.581 0.742,7.092 0,4.248 -3.33,4.115 -3.33,9.674 0,5.558 5.039,10.193 11.256,10.193 h -0.142 c 6.216,0 11.256,-4.636 11.256,-10.193 0,-5.557 -3.33,-5.426 -3.33,-9.674 0,-2.511 0.743,-3.894 0.743,-7.092 0,-5.056 -4.331,-7.777 -8.669,-7.777"
     id="path366"
     inkscape:connector-curvature="0"
     style="fill:#ffffff" /><path
     d="m 1756.6499,189.68748 c -3.447,-0.045 -6.922,2.461 -6.984,7.202 -0.041,2.999 0.532,4.305 0.501,6.658 -0.053,3.983 -2.697,3.823 -2.767,9.036 -0.068,5.212 3.877,9.613 8.817,9.679 l -0.112,-0.002 c 2.406,0 9.002,-4.228 9.07,-9.44 0.07,-5.212 -3.641,-5.123 -3.587,-9.107 0.03,-2.354 1.169,-3.643 1.209,-6.642 0.063,-4.741 -2.813,-7.339 -6.261,-7.385"
     id="path368"
     inkscape:connector-curvature="0"
     style="fill:#abc337" /><path
     stroke-miterlimit="10"
     d="m 1754.0189,187.37948 c -4.338,0 -8.668,2.722 -8.668,7.777 0,3.198 0.742,4.581 0.742,7.092 0,4.248 -3.33,4.115 -3.33,9.674 0,5.558 5.039,10.193 11.256,10.193 h -0.142 c 6.216,0 11.256,-4.636 11.256,-10.193 0,-5.557 -3.33,-5.426 -3.33,-9.674 0,-2.511 0.743,-3.894 0.743,-7.092 0,-5.056 -4.331,-7.777 -8.669,-7.777"
     id="path370"
     inkscape:connector-curvature="0"
     style="fill:none;stroke:#262761;stroke-width:3;stroke-miterlimit:10" /><rect
     x="2306.3228"
     y="207.3015"
     width="41.448002"
     height="23.337"
     id="rect372"
     style="fill:#e0d3d4" /><rect
     x="2097.22"
     y="137.18649"
     width="33"
     height="93.452003"
     id="rect374"
     style="fill:#e0d3d4" /><rect
     x="2154.7488"
     y="175.9265"
     width="55.137001"
     height="54.712002"
     id="rect376"
     style="fill:#73b9e6" /><rect
     x="1970.694"
     y="118.10247"
     width="28.691999"
     height="112.536"
     id="rect378"
     style="fill:#cac8c8" /><rect
     x="1963.198"
     y="109.85349"
     stroke-miterlimit="10"
     width="36.188"
     height="121.444"
     id="rect380"
     style="fill:none;stroke:#262761;stroke-width:3;stroke-miterlimit:10" /><rect
     x="2097.22"
     y="129.68649"
     stroke-miterlimit="10"
     width="33"
     height="101.611"
     id="rect382"
     style="fill:none;stroke:#262761;stroke-width:3;stroke-miterlimit:10" /><rect
     x="2148.0828"
     y="168.8725"
     stroke-miterlimit="10"
     width="61.803001"
     height="62.425999"
     id="rect384"
     style="fill:none;stroke:#262761;stroke-width:3;stroke-miterlimit:10" /><rect
     x="2041.552"
     y="98.52047"
     width="55.667999"
     height="132.77699"
     id="rect386"
     style="fill:#73b9e6" /><polygon
     points="2307.667,294.716 2307.667,291.391 2312.94,291.4 2312.94,294.716 "
     id="polygon388"
     transform="translate(26.859971,-81.147521)"
     style="fill:#262761" /><polygon
     points="1944.721,208.547 1944.721,205.222 1964.974,205.231 1964.975,208.547 "
     id="polygon390"
     transform="translate(26.859971,-81.147521)"
     style="fill:#262761" /><polygon
     points="1944.721,221.094 1944.721,217.769 1964.974,217.778 1964.975,221.094 "
     id="polygon392"
     transform="translate(26.859971,-81.147521)"
     style="fill:#262761" /><polygon
     points="1944.721,233.642 1944.721,230.316 1964.974,230.326 1964.975,233.642 "
     id="polygon394"
     transform="translate(26.859971,-81.147521)"
     style="fill:#262761" /><polygon
     points="1944.721,246.188 1944.721,242.863 1964.974,242.873 1964.975,246.188 "
     id="polygon396"
     transform="translate(26.859971,-81.147521)"
     style="fill:#262761" /><polygon
     points="1944.721,258.736 1944.721,255.411 1964.974,255.421 1964.975,258.736 "
     id="polygon398"
     transform="translate(26.859971,-81.147521)"
     style="fill:#262761" /><polygon
     points="1944.721,271.283 1944.721,267.958 1964.974,267.968 1964.975,271.283 "
     id="polygon400"
     transform="translate(26.859971,-81.147521)"
     style="fill:#262761" /><polygon
     points="1944.721,283.831 1944.721,280.506 1964.974,280.516 1964.975,283.831 "
     id="polygon402"
     transform="translate(26.859971,-81.147521)"
     style="fill:#262761" /><polygon
     points="1944.721,296.378 1944.721,293.053 1964.974,293.062 1964.975,296.378 "
     id="polygon404"
     transform="translate(26.859971,-81.147521)"
     style="fill:#262761" /><polygon
     points="2295.147,294.716 2295.147,291.391 2300.42,291.4 2300.42,294.716 "
     id="polygon406"
     transform="translate(26.859971,-81.147521)"
     style="fill:#262761" /><polygon
     points="2282.506,294.716 2282.506,291.391 2287.78,291.4 2287.78,294.716 "
     id="polygon408"
     transform="translate(26.859971,-81.147521)"
     style="fill:#262761" /><polygon
     points="2282.506,305.229 2282.506,301.904 2287.78,301.914 2287.78,305.229 "
     id="polygon410"
     transform="translate(26.859971,-81.147521)"
     style="fill:#262761" /><polygon
     points="2018.514,278.282 2018.514,274.957 2023.788,274.967 2023.788,278.282 "
     id="polygon412"
     transform="translate(26.859971,-81.147521)"
     style="fill:#262761" /><polygon
     points="2018.514,290.751 2018.514,287.426 2023.788,287.436 2023.788,290.751 "
     id="polygon414"
     transform="translate(26.859971,-81.147521)"
     style="fill:#262761" /><polygon
     points="2018.514,253.345 2018.514,250.02 2023.788,250.029 2023.788,253.345 "
     id="polygon416"
     transform="translate(26.859971,-81.147521)"
     style="fill:#262761" /><polygon
     points="2018.514,265.813 2018.514,262.488 2023.788,262.498 2023.788,265.813 "
     id="polygon418"
     transform="translate(26.859971,-81.147521)"
     style="fill:#262761" /><polygon
     points="2018.514,228.407 2018.514,225.082 2023.788,225.092 2023.788,228.407 "
     id="polygon420"
     transform="translate(26.859971,-81.147521)"
     style="fill:#262761" /><polygon
     points="2018.514,240.876 2018.514,237.551 2023.788,237.561 2023.788,240.876 "
     id="polygon422"
     transform="translate(26.859971,-81.147521)"
     style="fill:#262761" /><polygon
     points="2018.514,203.47 2018.514,200.145 2023.788,200.154 2023.788,203.47 "
     id="polygon424"
     transform="translate(26.859971,-81.147521)"
     style="fill:#262761" /><polygon
     points="2018.514,191.001 2018.514,187.676 2023.788,187.686 2023.788,191.001 "
     id="polygon426"
     transform="translate(26.859971,-81.147521)"
     style="fill:#262761" /><polygon
     points="2018.514,215.938 2018.514,212.613 2023.788,212.623 2023.788,215.938 "
     id="polygon428"
     transform="translate(26.859971,-81.147521)"
     style="fill:#262761" /><polygon
     points="2030.455,278.282 2030.455,274.957 2035.728,274.967 2035.728,278.282 "
     id="polygon430"
     transform="translate(26.859971,-81.147521)"
     style="fill:#262761" /><polygon
     points="2030.455,290.751 2030.455,287.426 2035.728,287.436 2035.728,290.751 "
     id="polygon432"
     transform="translate(26.859971,-81.147521)"
     style="fill:#262761" /><polygon
     points="2030.455,253.345 2030.455,250.02 2035.728,250.029 2035.728,253.345 "
     id="polygon434"
     transform="translate(26.859971,-81.147521)"
     style="fill:#262761" /><polygon
     points="2030.455,265.813 2030.455,262.488 2035.728,262.498 2035.728,265.813 "
     id="polygon436"
     transform="translate(26.859971,-81.147521)"
     style="fill:#262761" /><polygon
     points="2132.45,288.78 2132.45,285.455 2137.723,285.465 2137.723,288.78 "
     id="polygon438"
     transform="translate(26.859971,-81.147521)"
     style="fill:#262761" /><polygon
     points="2132.45,301.249 2132.45,297.924 2137.723,297.934 2137.723,301.249 "
     id="polygon440"
     transform="translate(26.859971,-81.147521)"
     style="fill:#262761" /><polygon
     points="2132.45,263.843 2132.45,260.518 2137.723,260.527 2137.723,263.843 "
     id="polygon442"
     transform="translate(26.859971,-81.147521)"
     style="fill:#262761" /><polygon
     points="2132.45,276.312 2132.45,272.986 2137.723,272.996 2137.723,276.312 "
     id="polygon444"
     transform="translate(26.859971,-81.147521)"
     style="fill:#262761" /><polygon
     points="2144.389,288.78 2144.389,285.455 2149.663,285.465 2149.663,288.78 "
     id="polygon446"
     transform="translate(26.859971,-81.147521)"
     style="fill:#262761" /><polygon
     points="2144.389,301.249 2144.389,297.924 2149.663,297.934 2149.663,301.249 "
     id="polygon448"
     transform="translate(26.859971,-81.147521)"
     style="fill:#262761" /><polygon
     points="2144.389,263.843 2144.389,260.518 2149.663,260.527 2149.663,263.843 "
     id="polygon450"
     transform="translate(26.859971,-81.147521)"
     style="fill:#262761" /><polygon
     points="2144.389,276.312 2144.389,272.986 2149.663,272.996 2149.663,276.312 "
     id="polygon452"
     transform="translate(26.859971,-81.147521)"
     style="fill:#262761" /><polygon
     points="2158.117,288.78 2158.117,285.455 2163.39,285.465 2163.39,288.78 "
     id="polygon454"
     transform="translate(26.859971,-81.147521)"
     style="fill:#262761" /><polygon
     points="2158.117,301.249 2158.117,297.924 2163.39,297.934 2163.39,301.249 "
     id="polygon456"
     transform="translate(26.859971,-81.147521)"
     style="fill:#262761" /><polygon
     points="2158.117,263.843 2158.117,260.518 2163.39,260.527 2163.39,263.843 "
     id="polygon458"
     transform="translate(26.859971,-81.147521)"
     style="fill:#262761" /><polygon
     points="2158.117,276.312 2158.117,272.986 2163.39,272.996 2163.39,276.312 "
     id="polygon460"
     transform="translate(26.859971,-81.147521)"
     style="fill:#262761" /><polygon
     points="2170.057,288.78 2170.057,285.455 2175.331,285.465 2175.331,288.78 "
     id="polygon462"
     transform="translate(26.859971,-81.147521)"
     style="fill:#262761" /><polygon
     points="2170.057,301.249 2170.057,297.924 2175.331,297.934 2175.331,301.249 "
     id="polygon464"
     transform="translate(26.859971,-81.147521)"
     style="fill:#262761" /><polygon
     points="2170.057,263.843 2170.057,260.518 2175.331,260.527 2175.331,263.843 "
     id="polygon466"
     transform="translate(26.859971,-81.147521)"
     style="fill:#262761" /><polygon
     points="2170.057,276.312 2170.057,272.986 2175.331,272.996 2175.331,276.312 "
     id="polygon468"
     transform="translate(26.859971,-81.147521)"
     style="fill:#262761" /><polygon
     points="2030.455,228.407 2030.455,225.082 2035.728,225.092 2035.728,228.407 "
     id="polygon470"
     transform="translate(26.859971,-81.147521)"
     style="fill:#262761" /><polygon
     points="2030.455,240.876 2030.455,237.551 2035.728,237.561 2035.728,240.876 "
     id="polygon472"
     transform="translate(26.859971,-81.147521)"
     style="fill:#262761" /><polygon
     points="2030.455,203.47 2030.455,200.145 2035.728,200.154 2035.728,203.47 "
     id="polygon474"
     transform="translate(26.859971,-81.147521)"
     style="fill:#262761" /><polygon
     points="2030.455,191.001 2030.455,187.676 2035.728,187.686 2035.728,191.001 "
     id="polygon476"
     transform="translate(26.859971,-81.147521)"
     style="fill:#262761" /><polygon
     points="2030.455,215.938 2030.455,212.613 2035.728,212.623 2035.728,215.938 "
     id="polygon478"
     transform="translate(26.859971,-81.147521)"
     style="fill:#262761" /><rect
     x="2327.0989"
     y="220.01949"
     stroke-miterlimit="10"
     width="13.207"
     height="9.7679996"
     id="rect480"
     style="fill:#ffffff;stroke:#262761;stroke-width:4;stroke-miterlimit:10" /><rect
     x="2033.886"
     y="92.85247"
     stroke-miterlimit="10"
     width="63.334"
     height="138.44501"
     id="rect482"
     style="fill:none;stroke:#262761;stroke-width:3;stroke-miterlimit:10" /><rect
     x="2298.532"
     y="199.73549"
     stroke-miterlimit="10"
     width="50.257999"
     height="31.562"
     id="rect484"
     style="fill:none;stroke:#262761;stroke-width:3;stroke-miterlimit:10" /><path
     d="m 1826.7659,150.44848 c -6.492,-0.086 -13.035,4.634 -13.153,13.562 -0.076,5.647 1.003,8.105 0.943,12.539 -0.1,7.501 -5.079,7.2 -5.209,17.016 -0.131,9.815 7.301,18.103 16.604,18.227 l -0.213,-0.003 c 4.533,0 16.953,-7.963 17.083,-17.778 0.13,-9.815 -6.855,-9.647 -6.756,-17.149 0.059,-4.433 2.202,-6.861 2.277,-12.509 0.118,-8.928 -5.298,-13.819 -11.789,-13.906"
     id="path486"
     inkscape:connector-curvature="0"
     style="fill:#24a752" /><line
     stroke-miterlimit="10"
     x1="1821.72"
     y1="192.5515"
     x2="1821.72"
     y2="232.12949"
     id="line488"
     style="fill:none;stroke:#262761;stroke-width:3;stroke-miterlimit:10" /><line
     stroke-miterlimit="10"
     x1="1753.97"
     y1="212.3405"
     x2="1753.97"
     y2="232.12949"
     id="line490"
     style="fill:none;stroke:#262761;stroke-width:3;stroke-miterlimit:10" /><path
     d="m 1267.1499,189.68748 c -3.447,-0.045 -6.922,2.461 -6.984,7.202 -0.041,2.999 0.532,4.305 0.501,6.658 -0.053,3.983 -2.697,3.823 -2.767,9.036 -0.068,5.212 3.877,9.613 8.817,9.679 l -0.112,-0.002 c 2.406,0 9.002,-4.228 9.07,-9.44 0.07,-5.212 -3.641,-5.123 -3.587,-9.107 0.03,-2.354 1.169,-3.643 1.209,-6.642 0.063,-4.741 -2.813,-7.339 -6.261,-7.385"
     id="path492"
     inkscape:connector-curvature="0"
     style="fill:#abc337" /><path
     stroke-miterlimit="10"
     d="m 1264.5189,187.37948 c -4.338,0 -8.668,2.722 -8.668,7.777 0,3.198 0.742,4.581 0.742,7.092 0,4.248 -3.33,4.115 -3.33,9.674 0,5.558 5.039,10.193 11.256,10.193 h -0.142 c 6.216,0 11.256,-4.636 11.256,-10.193 0,-5.557 -3.33,-5.426 -3.33,-9.674 0,-2.511 0.743,-3.894 0.743,-7.092 0,-5.056 -4.331,-7.777 -8.669,-7.777"
     id="path494"
     inkscape:connector-curvature="0"
     style="fill:none;stroke:#262761;stroke-width:3;stroke-miterlimit:10" /><line
     stroke-miterlimit="10"
     x1="1264.47"
     y1="212.3405"
     x2="1264.47"
     y2="232.12949"
     id="line496"
     style="fill:none;stroke:#262761;stroke-width:3;stroke-miterlimit:10" /><path
     stroke-miterlimit="10"
     d="m 1821.8119,146.10248 c -8.17,0 -16.324,5.125 -16.324,14.645 0,6.022 1.398,8.628 1.398,13.355 0,8 -6.271,7.75 -6.271,18.217 0,10.467 9.489,19.196 21.196,19.196 h -0.268 c 11.707,0 21.196,-8.729 21.196,-19.196 0,-10.467 -6.271,-10.217 -6.271,-18.217 0,-4.728 1.398,-7.333 1.398,-13.355 0,-9.52 -8.154,-14.645 -16.324,-14.645"
     id="path498"
     inkscape:connector-curvature="0"
     style="fill:none;stroke:#262761;stroke-width:3;stroke-miterlimit:10" /></svg>