<?xml version="1.0" encoding="UTF-8" standalone="no"?>
<!-- Generator: Adobe Illustrator 16.0.0, SVG Export Plug-In . SVG Version: 6.00 Build 0)  -->

<svg
   xmlns:dc="http://purl.org/dc/elements/1.1/"
   xmlns:cc="http://creativecommons.org/ns#"
   xmlns:rdf="http://www.w3.org/1999/02/22-rdf-syntax-ns#"
   xmlns:svg="http://www.w3.org/2000/svg"
   xmlns="http://www.w3.org/2000/svg"
   xmlns:sodipodi="http://sodipodi.sourceforge.net/DTD/sodipodi-0.dtd"
   xmlns:inkscape="http://www.inkscape.org/namespaces/inkscape"
   version="1.1"
   id="Layer_1"
   x="0px"
   y="0px"
   width="2400px"
   height="350px"
   viewBox="0 0 2400 350"
   enable-background="new 0 0 2400 350"
   xml:space="preserve"
   sodipodi:docname="cityscape-2.svg"
   inkscape:version="0.92.2 (5c3e80d, 2017-08-06)"><metadata
     id="metadata457"><rdf:RDF><cc:Work
         rdf:about=""><dc:format>image/svg+xml</dc:format><dc:type
           rdf:resource="http://purl.org/dc/dcmitype/StillImage" /></cc:Work></rdf:RDF></metadata><defs
     id="defs455" /><sodipodi:namedview
     pagecolor="#ffffff"
     bordercolor="#666666"
     borderopacity="1"
     objecttolerance="10"
     gridtolerance="10"
     guidetolerance="10"
     inkscape:pageopacity="0"
     inkscape:pageshadow="2"
     inkscape:window-width="1552"
     inkscape:window-height="863"
     id="namedview453"
     showgrid="false"
     inkscape:zoom="0.39951533"
     inkscape:cx="1029.7495"
     inkscape:cy="110.60098"
     inkscape:window-x="0"
     inkscape:window-y="0"
     inkscape:window-maximized="0"
     inkscape:current-layer="Layer_1" /><polygon
     points="159.09,258.896 157.221,258.896 189.199,225.243 199.281,234.064 262.911,234.064 292.634,257.781 287.508,259.355 288.326,262.27 292.634,263.155 292.634,311.893 159.09,311.893 159.09,310.023 "
     id="polygon2"
     transform="translate(-2.5030329,-62.575821)"
     style="fill:#ffffff" /><rect
     x="916.71997"
     y="187.44418"
     width="61.803001"
     height="62.425999"
     id="rect4"
     style="fill:#ffffff" /><polyline
     points="891.59,314.277 891.59,174 895.923,163 895.923,135 899.59,130 899.59,126.667 894.59,126   893.923,120.667 891.59,109.333 894.256,102.667 891.59,102.667 889.59,92.667 885.923,92.667 885.923,50.667 886.027,50.667   886.027,92.667 882.36,92.667 880.36,102.667 877.693,102.667 880.36,109.333 878.027,120.667 877.36,126 872.36,126.667   872.36,130 876.027,135 876.027,163 880.36,174 880.36,314.277 "
     id="polyline6"
     transform="matrix(1,0,0,0.93723815,-2.5030329,-42.851215)"
     style="fill:#ffffff" /><rect
     x="815.85693"
     y="148.25818"
     width="33"
     height="101.611"
     id="rect8"
     style="fill:#ffffff" /><rect
     x="752.52295"
     y="111.42418"
     width="63.333"
     height="138.44501"
     id="rect10"
     style="fill:#ffffff" /><rect
     x="681.83594"
     y="128.42519"
     width="36.188"
     height="121.444"
     id="rect12"
     style="fill:#ffffff" /><rect
     x="597.16895"
     y="218.30717"
     width="50.258999"
     height="31.562"
     id="rect14"
     style="fill:#ffffff" /><path
     d="m 472.65497,205.95118 c -4.338,0 -8.668,2.722 -8.668,7.777 0,3.197 0.742,4.58 0.742,7.092 0,4.248 -3.33,4.114 -3.33,9.674 0,5.558 5.039,10.193 11.256,10.193 h -0.142 c 6.216,0 11.256,-4.637 11.256,-10.193 0,-5.556 -3.33,-5.426 -3.33,-9.674 0,-2.512 0.743,-3.895 0.743,-7.092 0,-5.057 -4.331,-7.777 -8.668,-7.777"
     id="path16"
     inkscape:connector-curvature="0"
     style="fill:#ffffff" /><path
     d="m 420.44797,164.67418 c -8.169,0 -16.323,5.125 -16.323,14.645 0,6.022 1.397,8.629 1.397,13.355 0,8 -6.271,7.75 -6.271,18.217 0,10.467 9.489,19.196 21.195,19.196 h -0.268 c 11.707,0 21.196,-8.729 21.196,-19.196 0,-10.467 -6.271,-10.217 -6.271,-18.217 0,-4.729 1.398,-7.333 1.398,-13.355 0,-9.52 -8.154,-14.645 -16.324,-14.645"
     id="path18"
     inkscape:connector-curvature="0"
     style="fill:#ffffff" /><path
     d="m 73.155967,205.95118 c -4.339,0 -8.668,2.722 -8.668,7.777 0,3.197 0.741,4.58 0.741,7.092 0,4.248 -3.33,4.114 -3.33,9.674 0,5.558 5.039,10.193 11.257,10.193 h -0.143 c 6.216,0 11.256,-4.637 11.256,-10.193 0,-5.556 -3.33,-5.426 -3.33,-9.674 0,-2.512 0.743,-3.895 0.743,-7.092 0,-5.057 -4.331,-7.777 -8.668,-7.777"
     id="path20"
     inkscape:connector-curvature="0"
     style="fill:#ffffff" /><path
     stroke-miterlimit="10"
     d="m 472.65497,205.95118 c -4.338,0 -8.668,2.722 -8.668,7.777 0,3.197 0.742,4.58 0.742,7.092 0,4.248 -3.33,4.114 -3.33,9.674 0,5.558 5.039,10.193 11.256,10.193 h -0.142 c 6.216,0 11.256,-4.637 11.256,-10.193 0,-5.556 -3.33,-5.426 -3.33,-9.674 0,-2.512 0.743,-3.895 0.743,-7.092 0,-5.057 -4.331,-7.777 -8.668,-7.777"
     id="path22"
     inkscape:connector-curvature="0"
     style="fill:none;stroke:#262761;stroke-width:3;stroke-miterlimit:10" /><path
     d="m 205.64597,235.69418 h -34.703 v -34.59 l 6.438,-4.108 h 21.48 l 6.786,4.442 -0.001,34.256 z m -32.471,-2.234 h 30.239 v -30.815 l -5.22,-3.419 h -20.163 l -4.856,3.101 z"
     id="path24"
     inkscape:connector-curvature="0"
     style="fill:#262761" /><polygon
     points="212.397,260.014 212.397,253.234 193.898,235.182 187.153,235.182 167.813,254.639 167.813,260.014 157.221,260.014 157.221,257.781 165.581,257.781 165.581,253.716 186.224,232.948 194.807,232.948 214.63,252.295 214.63,257.781 222.734,257.781 222.734,260.014 "
     id="polygon26"
     transform="translate(-2.5030329,-62.575821)"
     style="fill:#262761" /><polyline
     points="208.149,313.57 157.973,313.57 157.973,260.059 154.112,260.059 190.306,223.669 227.292,260.059   223.39,260.059 223.39,287.794 221.157,288.386 221.157,257.825 221.84,257.825 190.323,226.816 159.481,257.825 160.206,257.825   160.206,312.34 208.149,312.34 "
     id="polyline28"
     transform="translate(-2.5030329,-62.575821)"
     style="fill:#262761" /><rect
     x="176.58896"
     y="198.11018"
     width="2.2320001"
     height="36.466999"
     id="rect30"
     style="fill:#262761" /><rect
     x="197.34296"
     y="198.11018"
     width="2.2320001"
     height="36.466999"
     id="rect32"
     style="fill:#262761" /><polygon
     points="174.167,266.348 179.261,264.421 194.78,264.421 194.78,266.652 179.668,266.652 174.957,268.436 "
     id="polygon34"
     transform="translate(-2.5030329,-62.575821)"
     style="fill:#262761" /><polygon
     points="200.835,266.652 197.21,266.652 197.21,264.421 201.088,264.421 207.282,265.845 206.783,268.02 "
     id="polygon36"
     transform="translate(-2.5030329,-62.575821)"
     style="fill:#262761" /><rect
     x="178.14996"
     y="176.73119"
     width="19.889"
     height="2.2309999"
     id="rect38"
     style="fill:#262761" /><rect
     x="168.33696"
     y="186.50418"
     width="20.591"
     height="2.2320001"
     id="rect40"
     style="fill:#262761" /><rect
     x="192.41797"
     y="186.50418"
     width="5.6199999"
     height="2.2320001"
     id="rect42"
     style="fill:#262761" /><rect
     x="164.56396"
     y="195.20518"
     width="3.313"
     height="2.2320001"
     id="rect44"
     style="fill:#262761" /><polygon
     points="222.734,267.441 222.734,265.21 291.801,265.21 291.801,263.387 287.508,263.387 287.508,257.781 289.344,257.781 262.28,235.182 199.281,235.182 199.281,232.948 262.977,232.948 296.489,260.014 289.741,260.014 289.741,261.154 294.033,261.154 294.033,267.441 "
     id="polygon46"
     transform="translate(-2.5030329,-62.575821)"
     style="fill:#262761" /><polyline
     points="248.534,300.396 291.801,300.396 291.801,266.325 294.033,266.325 294.033,302.628   248.332,302.628 "
     id="polyline48"
     transform="translate(-2.5030329,-62.575821)"
     style="fill:#262761" /><polygon
     points="254.325,313.57 254.325,312.34 291.801,312.34 291.801,301.511 294.033,301.511 294.033,313.57 "
     id="polygon50"
     transform="translate(-2.5030329,-62.575821)"
     style="fill:#262761" /><polygon
     points="241.216,297.152 241.216,275.777 237.287,272.041 222.734,272.041 222.734,269.809 238.18,269.809 243.448,274.821 243.448,297.152 "
     id="polygon52"
     transform="translate(-2.5030329,-62.575821)"
     style="fill:#262761" /><polygon
     points="288.275,301.357 288.275,276.811 283.868,272.041 251.208,272.041 247.28,275.777 247.28,299.143 245.048,299.143 245.048,274.821 250.316,269.809 284.844,269.809 290.508,275.936 290.508,301.357 "
     id="polygon54"
     transform="translate(-2.5030329,-62.575821)"
     style="fill:#262761" /><rect
     x="187.17796"
     y="202.96117"
     width="2.2320001"
     height="31.615"
     id="rect56"
     style="fill:#262761" /><rect
     x="156.58696"
     y="233.46019"
     width="8.3739996"
     height="2.2309999"
     id="rect58"
     style="fill:#262761" /><rect
     x="156.58696"
     y="240.70119"
     width="8.3739996"
     height="2.2320001"
     id="rect60"
     style="fill:#262761" /><rect
     x="156.58696"
     y="225.80919"
     width="8.3739996"
     height="2.2320001"
     id="rect62"
     style="fill:#262761" /><rect
     x="156.58696"
     y="218.15819"
     width="8.3739996"
     height="2.2309999"
     id="rect64"
     style="fill:#262761" /><rect
     x="156.58696"
     y="210.50618"
     width="8.3739996"
     height="2.2320001"
     id="rect66"
     style="fill:#262761" /><rect
     x="156.58696"
     y="202.85817"
     width="8.3739996"
     height="2.23"
     id="rect68"
     style="fill:#262761" /><rect
     x="233.69696"
     y="195.20518"
     width="54.277"
     height="2.2320001"
     id="rect70"
     style="fill:#262761" /><rect
     x="279.52597"
     y="196.77919"
     width="2.2320001"
     height="2.914"
     id="rect72"
     style="fill:#262761" /><rect
     x="271.84998"
     y="196.77919"
     width="2.2320001"
     height="2.914"
     id="rect74"
     style="fill:#262761" /><rect
     x="264.17398"
     y="196.77919"
     width="2.2320001"
     height="2.914"
     id="rect76"
     style="fill:#262761" /><rect
     x="256.49799"
     y="196.77919"
     width="2.2309999"
     height="2.914"
     id="rect78"
     style="fill:#262761" /><rect
     x="248.82297"
     y="196.77919"
     width="2.2309999"
     height="2.914"
     id="rect80"
     style="fill:#262761" /><rect
     x="241.14696"
     y="196.77919"
     width="2.2320001"
     height="2.914"
     id="rect82"
     style="fill:#262761" /><rect
     x="279.06598"
     y="224.52419"
     width="2.2320001"
     height="13.868"
     id="rect84"
     style="fill:#262761" /><rect
     x="271.69699"
     y="224.52419"
     width="2.2309999"
     height="13.868"
     id="rect86"
     style="fill:#262761" /><rect
     x="264.32797"
     y="224.52419"
     width="2.2309999"
     height="13.868"
     id="rect88"
     style="fill:#262761" /><rect
     x="249.58896"
     y="224.52419"
     width="2.2320001"
     height="13.868"
     id="rect90"
     style="fill:#262761" /><rect
     x="256.92499"
     y="224.52419"
     width="2.2320001"
     height="13.868"
     id="rect92"
     style="fill:#262761" /><rect
     x="177.70496"
     y="216.74019"
     width="20.753"
     height="2.2320001"
     id="rect94"
     style="fill:#262761" /><rect
     x="186.69597"
     y="159.72018"
     width="2.2309999"
     height="2.947"
     id="rect96"
     style="fill:#262761" /><rect
     x="259.00897"
     y="168.54118"
     width="2.2320001"
     height="2.947"
     id="rect98"
     style="fill:#262761" /><rect
     x="243.66096"
     y="223.40819"
     width="43.396"
     height="2.2309999"
     id="rect100"
     style="fill:#262761" /><path
     d="m 248.43997,250.99418 h -39.157 v -12.367 c 0,-7.828 6.37,-14.198 14.198,-14.198 6.17,0 11.54,3.929 13.456,9.695 0.785,-0.218 1.596,-0.329 2.419,-0.329 5.01,0 9.084,4.076 9.084,9.086 z m -36.926,-2.23 h 34.694 v -5.883 c 0,-3.779 -3.074,-6.854 -6.854,-6.854 -0.94,0 -1.855,0.19 -2.722,0.564 l -1.219,0.53 -0.311,-1.294 c -1.295,-5.397 -6.074,-9.168 -11.624,-9.168 -6.598,0 -11.967,5.367 -11.967,11.966 l 0.003,10.139 z"
     id="path102"
     inkscape:connector-curvature="0"
     style="fill:#262761" /><polygon
     points="1469.09,258.896 1467.221,258.896 1499.198,225.243 1509.281,234.064 1572.91,234.064 1602.634,257.781 1597.508,259.355 1598.325,262.27 1602.634,263.155 1602.634,311.893 1469.09,311.893 1469.09,310.023 "
     id="polygon104"
     transform="translate(-2.5030329,-62.575821)"
     style="fill:#ffffff" /><path
     d="m 1515.646,235.69418 h -34.703 v -34.59 l 6.438,-4.108 h 21.48 l 6.785,4.442 v 34.256 z m -32.471,-2.234 h 30.238 v -30.815 l -5.22,-3.419 h -20.164 l -4.854,3.101 v 31.133 z"
     id="path106"
     inkscape:connector-curvature="0"
     style="fill:#262761" /><polygon
     points="1522.397,260.014 1522.397,253.234 1503.899,235.182 1497.153,235.182 1477.813,254.639 1477.813,260.014 1467.221,260.014 1467.221,257.781 1475.58,257.781 1475.58,253.716 1496.224,232.948 1504.807,232.948 1524.629,252.295 1524.629,257.781 1532.734,257.781 1532.734,260.014 "
     id="polygon108"
     transform="translate(-2.5030329,-62.575821)"
     style="fill:#262761" /><polyline
     points="1518.149,313.57 1467.973,313.57 1467.973,260.059 1464.112,260.059 1500.305,223.669   1537.291,260.059 1533.389,260.059 1533.389,287.794 1531.156,288.386 1531.156,257.825 1531.84,257.825 1500.323,226.816   1469.481,257.825 1470.205,257.825 1470.205,312.34 1518.149,312.34 "
     id="polyline110"
     transform="translate(-2.5030329,-62.575821)"
     style="fill:#262761" /><rect
     x="1486.589"
     y="198.11018"
     width="2.2309999"
     height="36.466999"
     id="rect112"
     style="fill:#262761" /><rect
     x="1507.3429"
     y="198.11018"
     width="2.2309999"
     height="36.466999"
     id="rect114"
     style="fill:#262761" /><polygon
     points="1484.166,266.348 1489.26,264.421 1504.78,264.421 1504.78,266.652 1489.668,266.652 1484.957,268.436 "
     id="polygon116"
     transform="translate(-2.5030329,-62.575821)"
     style="fill:#262761" /><polygon
     points="1510.834,266.652 1507.209,266.652 1507.209,264.421 1511.088,264.421 1517.281,265.845 1516.782,268.02 "
     id="polygon118"
     transform="translate(-2.5030329,-62.575821)"
     style="fill:#262761" /><rect
     x="1488.1499"
     y="176.73119"
     width="19.889"
     height="2.2309999"
     id="rect120"
     style="fill:#262761" /><rect
     x="1478.3369"
     y="186.50418"
     width="20.591"
     height="2.2320001"
     id="rect122"
     style="fill:#262761" /><rect
     x="1502.418"
     y="186.50418"
     width="5.6199999"
     height="2.2320001"
     id="rect124"
     style="fill:#262761" /><rect
     x="1474.564"
     y="195.20518"
     width="3.312"
     height="2.2320001"
     id="rect126"
     style="fill:#262761" /><polygon
     points="1532.734,267.441 1532.734,265.21 1601.801,265.21 1601.801,263.387 1597.508,263.387 1597.508,257.781 1599.344,257.781 1572.28,235.182 1509.281,235.182 1509.281,232.948 1572.977,232.948 1606.489,260.014 1599.74,260.014 1599.74,261.154 1604.033,261.154 1604.033,267.441 "
     id="polygon128"
     transform="translate(-2.5030329,-62.575821)"
     style="fill:#262761" /><polyline
     points="1558.533,300.396 1601.801,300.396 1601.801,266.325 1604.033,266.325 1604.033,302.628   1558.332,302.628 "
     id="polyline130"
     transform="translate(-2.5030329,-62.575821)"
     style="fill:#262761" /><polygon
     points="1564.324,313.57 1564.324,312.34 1601.801,312.34 1601.801,301.511 1604.033,301.511 1604.033,313.57 "
     id="polygon132"
     transform="translate(-2.5030329,-62.575821)"
     style="fill:#262761" /><polygon
     points="1551.215,297.152 1551.215,275.777 1547.287,272.041 1532.734,272.041 1532.734,269.809 1548.18,269.809 1553.448,274.821 1553.448,297.152 "
     id="polygon134"
     transform="translate(-2.5030329,-62.575821)"
     style="fill:#262761" /><polygon
     points="1598.276,301.357 1598.276,276.811 1593.867,272.041 1561.207,272.041 1557.28,275.777 1557.28,299.143 1555.047,299.143 1555.047,274.821 1560.317,269.809 1594.844,269.809 1600.508,275.936 1600.508,301.357 "
     id="polygon136"
     transform="translate(-2.5030329,-62.575821)"
     style="fill:#262761" /><rect
     x="1497.178"
     y="202.96117"
     width="2.23"
     height="31.615"
     id="rect138"
     style="fill:#262761" /><rect
     x="1466.5869"
     y="233.46019"
     width="8.3730001"
     height="2.2309999"
     id="rect140"
     style="fill:#262761" /><rect
     x="1466.5869"
     y="240.70119"
     width="8.3730001"
     height="2.2320001"
     id="rect142"
     style="fill:#262761" /><rect
     x="1466.5869"
     y="225.80919"
     width="8.3730001"
     height="2.2320001"
     id="rect144"
     style="fill:#262761" /><rect
     x="1466.5869"
     y="218.15819"
     width="8.3730001"
     height="2.2309999"
     id="rect146"
     style="fill:#262761" /><rect
     x="1466.5869"
     y="210.50618"
     width="8.3730001"
     height="2.2320001"
     id="rect148"
     style="fill:#262761" /><rect
     x="1466.5869"
     y="202.85817"
     width="8.3730001"
     height="2.23"
     id="rect150"
     style="fill:#262761" /><rect
     x="1543.6959"
     y="195.20518"
     width="54.277"
     height="2.2320001"
     id="rect152"
     style="fill:#262761" /><rect
     x="1589.526"
     y="196.77919"
     width="2.2320001"
     height="2.914"
     id="rect154"
     style="fill:#262761" /><rect
     x="1581.85"
     y="196.77919"
     width="2.2309999"
     height="2.914"
     id="rect156"
     style="fill:#262761" /><rect
     x="1574.174"
     y="196.77919"
     width="2.2309999"
     height="2.914"
     id="rect158"
     style="fill:#262761" /><rect
     x="1566.4969"
     y="196.77919"
     width="2.2320001"
     height="2.914"
     id="rect160"
     style="fill:#262761" /><rect
     x="1558.823"
     y="196.77919"
     width="2.2320001"
     height="2.914"
     id="rect162"
     style="fill:#262761" /><rect
     x="1551.147"
     y="196.77919"
     width="2.2320001"
     height="2.914"
     id="rect164"
     style="fill:#262761" /><rect
     x="1589.0659"
     y="224.52419"
     width="2.2320001"
     height="13.868"
     id="rect166"
     style="fill:#262761" /><rect
     x="1581.6959"
     y="224.52419"
     width="2.2320001"
     height="13.868"
     id="rect168"
     style="fill:#262761" /><rect
     x="1574.3269"
     y="224.52419"
     width="2.2320001"
     height="13.868"
     id="rect170"
     style="fill:#262761" /><rect
     x="1559.589"
     y="224.52419"
     width="2.2309999"
     height="13.868"
     id="rect172"
     style="fill:#262761" /><rect
     x="1566.9249"
     y="224.52419"
     width="2.2309999"
     height="13.868"
     id="rect174"
     style="fill:#262761" /><rect
     x="1487.704"
     y="216.74019"
     width="20.754"
     height="2.2320001"
     id="rect176"
     style="fill:#262761" /><rect
     x="1496.6949"
     y="159.72018"
     width="2.2320001"
     height="2.947"
     id="rect178"
     style="fill:#262761" /><rect
     x="1569.0089"
     y="168.54118"
     width="2.2309999"
     height="2.947"
     id="rect180"
     style="fill:#262761" /><rect
     x="1553.6609"
     y="223.40819"
     width="43.396"
     height="2.2309999"
     id="rect182"
     style="fill:#262761" /><path
     d="m 1558.44,250.99418 h -39.158 v -12.367 c 0,-7.828 6.37,-14.198 14.199,-14.198 6.171,0 11.54,3.929 13.456,9.695 0.785,-0.218 1.594,-0.329 2.418,-0.329 5.01,0 9.085,4.076 9.085,9.086 z m -36.926,-2.23 h 34.694 v -5.883 c 0,-3.779 -3.074,-6.854 -6.854,-6.854 -0.94,0 -1.854,0.19 -2.722,0.564 l -1.22,0.53 -0.31,-1.294 c -1.296,-5.397 -6.076,-9.168 -11.624,-9.168 -6.599,0 -11.967,5.367 -11.967,11.966 v 10.138 h 0 z"
     id="path184"
     inkscape:connector-curvature="0"
     style="fill:#262761" /><rect
     x="681.83594"
     y="128.42519"
     stroke-miterlimit="10"
     width="36.188"
     height="121.444"
     id="rect186"
     style="fill:none;stroke:#262761;stroke-width:3;stroke-miterlimit:10" /><rect
     x="815.85693"
     y="148.25818"
     stroke-miterlimit="10"
     width="33"
     height="101.611"
     id="rect188"
     style="fill:none;stroke:#262761;stroke-width:3;stroke-miterlimit:10" /><rect
     x="916.71997"
     y="187.44418"
     stroke-miterlimit="10"
     width="61.803001"
     height="62.425999"
     id="rect190"
     style="fill:none;stroke:#262761;stroke-width:3;stroke-miterlimit:10" /><polygon
     points="635.666,294.716 635.666,291.391 640.94,291.4 640.94,294.716 "
     id="polygon192"
     transform="translate(-2.5030329,-62.575821)"
     style="fill:#262761" /><polygon
     points="692.722,208.547 692.721,205.223 712.974,205.23 712.975,208.547 "
     id="polygon194"
     transform="translate(-2.5030329,-62.575821)"
     style="fill:#262761" /><polygon
     points="692.722,221.094 692.721,217.77 712.974,217.777 712.975,221.094 "
     id="polygon196"
     transform="translate(-2.5030329,-62.575821)"
     style="fill:#262761" /><polygon
     points="692.722,233.643 692.721,230.316 712.974,230.326 712.975,233.643 "
     id="polygon198"
     transform="translate(-2.5030329,-62.575821)"
     style="fill:#262761" /><polygon
     points="692.722,246.188 692.721,242.863 712.974,242.873 712.975,246.188 "
     id="polygon200"
     transform="translate(-2.5030329,-62.575821)"
     style="fill:#262761" /><polygon
     points="692.722,258.736 692.721,255.411 712.974,255.421 712.975,258.736 "
     id="polygon202"
     transform="translate(-2.5030329,-62.575821)"
     style="fill:#262761" /><polygon
     points="692.722,271.283 692.721,267.958 712.974,267.968 712.975,271.283 "
     id="polygon204"
     transform="translate(-2.5030329,-62.575821)"
     style="fill:#262761" /><polygon
     points="692.722,283.831 692.721,280.506 712.974,280.516 712.975,283.831 "
     id="polygon206"
     transform="translate(-2.5030329,-62.575821)"
     style="fill:#262761" /><polygon
     points="692.722,296.378 692.721,293.053 712.974,293.062 712.975,296.378 "
     id="polygon208"
     transform="translate(-2.5030329,-62.575821)"
     style="fill:#262761" /><polygon
     points="623.147,294.716 623.147,291.391 628.421,291.4 628.421,294.716 "
     id="polygon210"
     transform="translate(-2.5030329,-62.575821)"
     style="fill:#262761" /><polygon
     points="610.507,294.716 610.507,291.391 615.78,291.4 615.78,294.716 "
     id="polygon212"
     transform="translate(-2.5030329,-62.575821)"
     style="fill:#262761" /><polygon
     points="610.507,305.229 610.507,301.904 615.78,301.914 615.78,305.229 "
     id="polygon214"
     transform="translate(-2.5030329,-62.575821)"
     style="fill:#262761" /><polygon
     points="766.515,278.282 766.515,274.957 771.787,274.967 771.787,278.282 "
     id="polygon216"
     transform="translate(-2.5030329,-62.575821)"
     style="fill:#262761" /><polygon
     points="766.515,290.751 766.515,287.426 771.787,287.436 771.787,290.751 "
     id="polygon218"
     transform="translate(-2.5030329,-62.575821)"
     style="fill:#262761" /><polygon
     points="766.515,253.345 766.515,250.02 771.787,250.029 771.787,253.345 "
     id="polygon220"
     transform="translate(-2.5030329,-62.575821)"
     style="fill:#262761" /><polygon
     points="766.515,265.812 766.515,262.488 771.787,262.498 771.787,265.812 "
     id="polygon222"
     transform="translate(-2.5030329,-62.575821)"
     style="fill:#262761" /><polygon
     points="766.515,228.407 766.515,225.082 771.787,225.092 771.787,228.407 "
     id="polygon224"
     transform="translate(-2.5030329,-62.575821)"
     style="fill:#262761" /><polygon
     points="766.515,240.876 766.515,237.551 771.787,237.561 771.787,240.876 "
     id="polygon226"
     transform="translate(-2.5030329,-62.575821)"
     style="fill:#262761" /><polygon
     points="766.515,203.47 766.515,200.145 771.787,200.154 771.787,203.47 "
     id="polygon228"
     transform="translate(-2.5030329,-62.575821)"
     style="fill:#262761" /><polygon
     points="766.515,191.001 766.515,187.676 771.787,187.686 771.787,191.001 "
     id="polygon230"
     transform="translate(-2.5030329,-62.575821)"
     style="fill:#262761" /><polygon
     points="766.515,215.938 766.515,212.613 771.787,212.623 771.787,215.938 "
     id="polygon232"
     transform="translate(-2.5030329,-62.575821)"
     style="fill:#262761" /><polygon
     points="778.454,278.282 778.454,274.957 783.728,274.967 783.728,278.282 "
     id="polygon234"
     transform="translate(-2.5030329,-62.575821)"
     style="fill:#262761" /><polygon
     points="778.454,290.751 778.454,287.426 783.728,287.436 783.728,290.751 "
     id="polygon236"
     transform="translate(-2.5030329,-62.575821)"
     style="fill:#262761" /><polygon
     points="778.454,253.345 778.454,250.02 783.728,250.029 783.728,253.345 "
     id="polygon238"
     transform="translate(-2.5030329,-62.575821)"
     style="fill:#262761" /><polygon
     points="778.454,265.812 778.454,262.488 783.728,262.498 783.728,265.812 "
     id="polygon240"
     transform="translate(-2.5030329,-62.575821)"
     style="fill:#262761" /><polygon
     points="930.449,288.78 930.449,285.455 935.723,285.465 935.723,288.78 "
     id="polygon242"
     transform="translate(-2.5030329,-62.575821)"
     style="fill:#262761" /><polygon
     points="930.449,301.249 930.449,297.924 935.723,297.934 935.723,301.249 "
     id="polygon244"
     transform="translate(-2.5030329,-62.575821)"
     style="fill:#262761" /><polygon
     points="930.449,263.843 930.449,260.518 935.723,260.527 935.723,263.843 "
     id="polygon246"
     transform="translate(-2.5030329,-62.575821)"
     style="fill:#262761" /><polygon
     points="930.449,276.312 930.449,272.986 935.723,272.996 935.723,276.312 "
     id="polygon248"
     transform="translate(-2.5030329,-62.575821)"
     style="fill:#262761" /><polygon
     points="942.39,288.78 942.39,285.455 947.662,285.465 947.662,288.78 "
     id="polygon250"
     transform="translate(-2.5030329,-62.575821)"
     style="fill:#262761" /><polygon
     points="942.39,301.249 942.39,297.924 947.662,297.934 947.662,301.249 "
     id="polygon252"
     transform="translate(-2.5030329,-62.575821)"
     style="fill:#262761" /><polygon
     points="942.39,263.843 942.39,260.518 947.662,260.527 947.662,263.843 "
     id="polygon254"
     transform="translate(-2.5030329,-62.575821)"
     style="fill:#262761" /><polygon
     points="942.39,276.312 942.39,272.986 947.662,272.996 947.662,276.312 "
     id="polygon256"
     transform="translate(-2.5030329,-62.575821)"
     style="fill:#262761" /><polygon
     points="956.116,288.78 956.116,285.455 961.39,285.465 961.39,288.78 "
     id="polygon258"
     transform="translate(-2.5030329,-62.575821)"
     style="fill:#262761" /><polygon
     points="956.116,301.249 956.116,297.924 961.39,297.934 961.39,301.249 "
     id="polygon260"
     transform="translate(-2.5030329,-62.575821)"
     style="fill:#262761" /><polygon
     points="956.116,263.843 956.116,260.518 961.39,260.527 961.39,263.843 "
     id="polygon262"
     transform="translate(-2.5030329,-62.575821)"
     style="fill:#262761" /><polygon
     points="956.116,276.312 956.116,272.986 961.39,272.996 961.39,276.312 "
     id="polygon264"
     transform="translate(-2.5030329,-62.575821)"
     style="fill:#262761" /><polygon
     points="968.057,288.78 968.057,285.455 973.329,285.465 973.329,288.78 "
     id="polygon266"
     transform="translate(-2.5030329,-62.575821)"
     style="fill:#262761" /><polygon
     points="968.057,301.249 968.057,297.924 973.329,297.934 973.329,301.249 "
     id="polygon268"
     transform="translate(-2.5030329,-62.575821)"
     style="fill:#262761" /><polygon
     points="968.057,263.843 968.057,260.518 973.329,260.527 973.329,263.843 "
     id="polygon270"
     transform="translate(-2.5030329,-62.575821)"
     style="fill:#262761" /><polygon
     points="968.057,276.312 968.057,272.986 973.329,272.996 973.329,276.312 "
     id="polygon272"
     transform="translate(-2.5030329,-62.575821)"
     style="fill:#262761" /><polygon
     points="778.454,228.407 778.454,225.082 783.728,225.092 783.728,228.407 "
     id="polygon274"
     transform="translate(-2.5030329,-62.575821)"
     style="fill:#262761" /><polygon
     points="778.454,240.876 778.454,237.551 783.728,237.561 783.728,240.876 "
     id="polygon276"
     transform="translate(-2.5030329,-62.575821)"
     style="fill:#262761" /><polygon
     points="778.454,203.47 778.454,200.145 783.728,200.154 783.728,203.47 "
     id="polygon278"
     transform="translate(-2.5030329,-62.575821)"
     style="fill:#262761" /><polygon
     points="778.454,191.001 778.454,187.676 783.728,187.686 783.728,191.001 "
     id="polygon280"
     transform="translate(-2.5030329,-62.575821)"
     style="fill:#262761" /><polygon
     points="778.454,215.938 778.454,212.613 783.728,212.623 783.728,215.938 "
     id="polygon282"
     transform="translate(-2.5030329,-62.575821)"
     style="fill:#262761" /><rect
     x="625.73596"
     y="238.59117"
     stroke-miterlimit="10"
     width="13.207"
     height="9.7690001"
     id="rect284"
     style="fill:#ffffff;stroke:#262761;stroke-width:4;stroke-miterlimit:10" /><rect
     x="752.52295"
     y="111.42418"
     stroke-miterlimit="10"
     width="63.333"
     height="138.44501"
     id="rect286"
     style="fill:none;stroke:#262761;stroke-width:3;stroke-miterlimit:10" /><rect
     x="597.16895"
     y="218.30717"
     stroke-miterlimit="10"
     width="50.258999"
     height="31.562"
     id="rect288"
     style="fill:none;stroke:#262761;stroke-width:3;stroke-miterlimit:10" /><polyline
     stroke-miterlimit="10"
     points="  880.36,313.277 880.36,174 876.027,163 876.027,135 872.36,130 872.36,125.882 877.413,125.571 878.027,120.667 880.36,109.333   877.693,102.667 880.36,102.667 882.36,92.667 886.027,92.667 886.027,50.667 "
     id="polyline290"
     transform="matrix(1,0,0,0.93723815,-2.5030329,-42.851215)"
     style="fill:none;stroke:#262761;stroke-width:3;stroke-linecap:round;stroke-linejoin:round;stroke-miterlimit:10" /><line
     x1="888.75293"
     y1="249.82671"
     x2="889.47693"
     y2="116.0547"
     id="line292"
     style="fill:none;stroke-width:0.96811062" /><polyline
     stroke-miterlimit="10"
     points="  891.59,313.277 891.59,174 895.923,163 895.923,135 899.59,130 899.59,125.882 894.59,125.677 893.923,120.667 891.59,109.333   894.256,102.667 891.59,102.667 889.59,92.667 885.923,92.667 885.923,50.667 "
     id="polyline294"
     transform="matrix(1,0,0,0.93723815,-2.5030329,-42.851215)"
     style="fill:none;stroke:#262761;stroke-width:3;stroke-linecap:round;stroke-linejoin:round;stroke-miterlimit:10" /><line
     stroke-miterlimit="10"
     x1="875.18994"
     y1="53.372215"
     x2="891.75293"
     y2="53.372215"
     id="line296"
     style="fill:none;stroke:#262761;stroke-width:2.90433192;stroke-miterlimit:10" /><line
     stroke-miterlimit="10"
     x1="877.85693"
     y1="59.619843"
     x2="889.08698"
     y2="59.619843"
     id="line298"
     style="fill:none;stroke:#262761;stroke-width:1.93622124;stroke-miterlimit:10" /><line
     stroke-miterlimit="10"
     x1="874.85693"
     y1="69.929466"
     x2="892.08698"
     y2="69.929466"
     id="line300"
     style="fill:none;stroke:#262761;stroke-width:1.93622124;stroke-miterlimit:10" /><line
     stroke-miterlimit="10"
     x1="874.85693"
     y1="100.54622"
     x2="892.08698"
     y2="100.54622"
     id="line302"
     style="fill:none;stroke:#262761;stroke-width:1.93622124;stroke-miterlimit:10" /><line
     stroke-miterlimit="10"
     x1="873.52393"
     y1="84.144554"
     x2="893.41992"
     y2="84.144554"
     id="line304"
     style="fill:none;stroke:#262761;stroke-width:2.90433192;stroke-miterlimit:10" /><line
     stroke-miterlimit="10"
     x1="861.83698"
     y1="63.306183"
     x2="905.10693"
     y2="63.306183"
     id="line306"
     style="fill:none;stroke:#262761;stroke-width:3;stroke-miterlimit:10" /><line
     stroke-miterlimit="10"
     x1="-61.168034"
     y1="250.70119"
     x2="2487.8821"
     y2="250.70119"
     id="line308"
     style="fill:none;stroke:#262761;stroke-width:3;stroke-miterlimit:10" /><line
     stroke-miterlimit="10"
     x1="420.35696"
     y1="211.12318"
     x2="420.35696"
     y2="250.70119"
     id="line310"
     style="fill:none;stroke:#262761;stroke-width:3;stroke-miterlimit:10" /><line
     stroke-miterlimit="10"
     x1="472.60696"
     y1="230.91219"
     x2="472.60696"
     y2="250.70119"
     id="line312"
     style="fill:none;stroke:#262761;stroke-width:3;stroke-miterlimit:10" /><path
     stroke-miterlimit="10"
     d="m 73.155967,205.95118 c -4.339,0 -8.668,2.722 -8.668,7.777 0,3.197 0.741,4.58 0.741,7.092 0,4.248 -3.33,4.114 -3.33,9.674 0,5.558 5.039,10.193 11.257,10.193 h -0.143 c 6.216,0 11.256,-4.637 11.256,-10.193 0,-5.556 -3.33,-5.426 -3.33,-9.674 0,-2.512 0.743,-3.895 0.743,-7.092 0,-5.057 -4.331,-7.777 -8.668,-7.777"
     id="path314"
     inkscape:connector-curvature="0"
     style="fill:none;stroke:#262761;stroke-width:3;stroke-miterlimit:10" /><line
     stroke-miterlimit="10"
     x1="73.106964"
     y1="232.91219"
     x2="73.106964"
     y2="252.70119"
     id="line316"
     style="fill:none;stroke:#262761;stroke-width:3;stroke-miterlimit:10" /><path
     stroke-miterlimit="10"
     d="m 420.44797,164.67418 c -8.169,0 -16.323,5.125 -16.323,14.645 0,6.022 1.397,8.629 1.397,13.355 0,8 -6.271,7.75 -6.271,18.217 0,10.467 9.489,19.196 21.195,19.196 h -0.268 c 11.707,0 21.196,-8.729 21.196,-19.196 0,-10.467 -6.271,-10.217 -6.271,-18.217 0,-4.729 1.398,-7.333 1.398,-13.355 0,-9.52 -8.154,-14.645 -16.324,-14.645"
     id="path318"
     inkscape:connector-curvature="0"
     style="fill:none;stroke:#262761;stroke-width:3;stroke-miterlimit:10" /><rect
     x="2118.72"
     y="187.44418"
     width="61.803001"
     height="62.425999"
     id="rect320"
     style="fill:#ffffff" /><rect
     x="2067.8572"
     y="148.25818"
     width="33"
     height="101.611"
     id="rect322"
     style="fill:#ffffff" /><rect
     x="2004.5229"
     y="111.42418"
     width="63.334"
     height="138.44501"
     id="rect324"
     style="fill:#ffffff" /><rect
     x="1933.835"
     y="128.42519"
     width="36.188"
     height="121.444"
     id="rect326"
     style="fill:#ffffff" /><rect
     x="2269.1692"
     y="218.30717"
     width="50.257999"
     height="31.562"
     id="rect328"
     style="fill:#ffffff" /><path
     d="m 1724.655,205.95118 c -4.338,0 -8.668,2.722 -8.668,7.777 0,3.197 0.742,4.58 0.742,7.092 0,4.248 -3.33,4.114 -3.33,9.674 0,5.558 5.039,10.193 11.256,10.193 h -0.142 c 6.216,0 11.256,-4.637 11.256,-10.193 0,-5.556 -3.33,-5.426 -3.33,-9.674 0,-2.512 0.743,-3.895 0.743,-7.092 0,-5.057 -4.331,-7.777 -8.669,-7.777"
     id="path330"
     inkscape:connector-curvature="0"
     style="fill:#ffffff" /><path
     d="m 1792.448,164.67418 c -8.17,0 -16.323,5.125 -16.323,14.645 0,6.022 1.397,8.629 1.397,13.355 0,8 -6.271,7.75 -6.271,18.217 0,10.467 9.488,19.196 21.195,19.196 h -0.268 c 11.707,0 21.196,-8.729 21.196,-19.196 0,-10.467 -6.271,-10.217 -6.271,-18.217 0,-4.729 1.398,-7.333 1.398,-13.355 0,-9.52 -8.154,-14.645 -16.324,-14.645"
     id="path332"
     inkscape:connector-curvature="0"
     style="fill:#ffffff" /><path
     d="m 1235.155,205.95118 c -4.338,0 -8.668,2.722 -8.668,7.777 0,3.197 0.742,4.58 0.742,7.092 0,4.248 -3.33,4.114 -3.33,9.674 0,5.558 5.039,10.193 11.256,10.193 h -0.142 c 6.216,0 11.256,-4.637 11.256,-10.193 0,-5.556 -3.33,-5.426 -3.33,-9.674 0,-2.512 0.743,-3.895 0.743,-7.092 0,-5.057 -4.331,-7.777 -8.669,-7.777"
     id="path334"
     inkscape:connector-curvature="0"
     style="fill:#ffffff" /><path
     stroke-miterlimit="10"
     d="m 1724.655,205.95118 c -4.338,0 -8.668,2.722 -8.668,7.777 0,3.197 0.742,4.58 0.742,7.092 0,4.248 -3.33,4.114 -3.33,9.674 0,5.558 5.039,10.193 11.256,10.193 h -0.142 c 6.216,0 11.256,-4.637 11.256,-10.193 0,-5.556 -3.33,-5.426 -3.33,-9.674 0,-2.512 0.743,-3.895 0.743,-7.092 0,-5.057 -4.331,-7.777 -8.669,-7.777"
     id="path336"
     inkscape:connector-curvature="0"
     style="fill:none;stroke:#262761;stroke-width:3;stroke-miterlimit:10" /><rect
     x="1933.835"
     y="128.42519"
     stroke-miterlimit="10"
     width="36.188"
     height="121.444"
     id="rect338"
     style="fill:none;stroke:#262761;stroke-width:3;stroke-miterlimit:10" /><rect
     x="2067.8572"
     y="148.25818"
     stroke-miterlimit="10"
     width="33"
     height="101.611"
     id="rect340"
     style="fill:none;stroke:#262761;stroke-width:3;stroke-miterlimit:10" /><rect
     x="2118.72"
     y="187.44418"
     stroke-miterlimit="10"
     width="61.803001"
     height="62.425999"
     id="rect342"
     style="fill:none;stroke:#262761;stroke-width:3;stroke-miterlimit:10" /><polygon
     points="2307.666,294.716 2307.666,291.391 2312.94,291.4 2312.94,294.716 "
     id="polygon344"
     transform="translate(-2.5030329,-62.575821)"
     style="fill:#262761" /><polygon
     points="1944.721,208.547 1944.721,205.223 1964.974,205.23 1964.975,208.547 "
     id="polygon346"
     transform="translate(-2.5030329,-62.575821)"
     style="fill:#262761" /><polygon
     points="1944.721,221.094 1944.721,217.77 1964.974,217.777 1964.975,221.094 "
     id="polygon348"
     transform="translate(-2.5030329,-62.575821)"
     style="fill:#262761" /><polygon
     points="1944.721,233.643 1944.721,230.316 1964.974,230.326 1964.975,233.643 "
     id="polygon350"
     transform="translate(-2.5030329,-62.575821)"
     style="fill:#262761" /><polygon
     points="1944.721,246.188 1944.721,242.863 1964.974,242.873 1964.975,246.188 "
     id="polygon352"
     transform="translate(-2.5030329,-62.575821)"
     style="fill:#262761" /><polygon
     points="1944.721,258.736 1944.721,255.411 1964.974,255.421 1964.975,258.736 "
     id="polygon354"
     transform="translate(-2.5030329,-62.575821)"
     style="fill:#262761" /><polygon
     points="1944.721,271.283 1944.721,267.958 1964.974,267.968 1964.975,271.283 "
     id="polygon356"
     transform="translate(-2.5030329,-62.575821)"
     style="fill:#262761" /><polygon
     points="1944.721,283.831 1944.721,280.506 1964.974,280.516 1964.975,283.831 "
     id="polygon358"
     transform="translate(-2.5030329,-62.575821)"
     style="fill:#262761" /><polygon
     points="1944.721,296.378 1944.721,293.053 1964.974,293.062 1964.975,296.378 "
     id="polygon360"
     transform="translate(-2.5030329,-62.575821)"
     style="fill:#262761" /><polygon
     points="2295.147,294.716 2295.147,291.391 2300.42,291.4 2300.42,294.716 "
     id="polygon362"
     transform="translate(-2.5030329,-62.575821)"
     style="fill:#262761" /><polygon
     points="2282.506,294.716 2282.506,291.391 2287.78,291.4 2287.78,294.716 "
     id="polygon364"
     transform="translate(-2.5030329,-62.575821)"
     style="fill:#262761" /><polygon
     points="2282.506,305.229 2282.506,301.904 2287.78,301.914 2287.78,305.229 "
     id="polygon366"
     transform="translate(-2.5030329,-62.575821)"
     style="fill:#262761" /><polygon
     points="2018.514,278.282 2018.514,274.957 2023.787,274.967 2023.787,278.282 "
     id="polygon368"
     transform="translate(-2.5030329,-62.575821)"
     style="fill:#262761" /><polygon
     points="2018.514,290.751 2018.514,287.426 2023.787,287.436 2023.787,290.751 "
     id="polygon370"
     transform="translate(-2.5030329,-62.575821)"
     style="fill:#262761" /><polygon
     points="2018.514,253.345 2018.514,250.02 2023.787,250.029 2023.787,253.345 "
     id="polygon372"
     transform="translate(-2.5030329,-62.575821)"
     style="fill:#262761" /><polygon
     points="2018.514,265.812 2018.514,262.488 2023.787,262.498 2023.787,265.812 "
     id="polygon374"
     transform="translate(-2.5030329,-62.575821)"
     style="fill:#262761" /><polygon
     points="2018.514,228.407 2018.514,225.082 2023.787,225.092 2023.787,228.407 "
     id="polygon376"
     transform="translate(-2.5030329,-62.575821)"
     style="fill:#262761" /><polygon
     points="2018.514,240.876 2018.514,237.551 2023.787,237.561 2023.787,240.876 "
     id="polygon378"
     transform="translate(-2.5030329,-62.575821)"
     style="fill:#262761" /><polygon
     points="2018.514,203.47 2018.514,200.145 2023.787,200.154 2023.787,203.47 "
     id="polygon380"
     transform="translate(-2.5030329,-62.575821)"
     style="fill:#262761" /><polygon
     points="2018.514,191.001 2018.514,187.676 2023.787,187.686 2023.787,191.001 "
     id="polygon382"
     transform="translate(-2.5030329,-62.575821)"
     style="fill:#262761" /><polygon
     points="2018.514,215.938 2018.514,212.613 2023.787,212.623 2023.787,215.938 "
     id="polygon384"
     transform="translate(-2.5030329,-62.575821)"
     style="fill:#262761" /><polygon
     points="2030.454,278.282 2030.454,274.957 2035.728,274.967 2035.728,278.282 "
     id="polygon386"
     transform="translate(-2.5030329,-62.575821)"
     style="fill:#262761" /><polygon
     points="2030.454,290.751 2030.454,287.426 2035.728,287.436 2035.728,290.751 "
     id="polygon388"
     transform="translate(-2.5030329,-62.575821)"
     style="fill:#262761" /><polygon
     points="2030.454,253.345 2030.454,250.02 2035.728,250.029 2035.728,253.345 "
     id="polygon390"
     transform="translate(-2.5030329,-62.575821)"
     style="fill:#262761" /><polygon
     points="2030.454,265.812 2030.454,262.488 2035.728,262.498 2035.728,265.812 "
     id="polygon392"
     transform="translate(-2.5030329,-62.575821)"
     style="fill:#262761" /><polygon
     points="2132.449,288.78 2132.449,285.455 2137.723,285.465 2137.723,288.78 "
     id="polygon394"
     transform="translate(-2.5030329,-62.575821)"
     style="fill:#262761" /><polygon
     points="2132.449,301.249 2132.449,297.924 2137.723,297.934 2137.723,301.249 "
     id="polygon396"
     transform="translate(-2.5030329,-62.575821)"
     style="fill:#262761" /><polygon
     points="2132.449,263.843 2132.449,260.518 2137.723,260.527 2137.723,263.843 "
     id="polygon398"
     transform="translate(-2.5030329,-62.575821)"
     style="fill:#262761" /><polygon
     points="2132.449,276.312 2132.449,272.986 2137.723,272.996 2137.723,276.312 "
     id="polygon400"
     transform="translate(-2.5030329,-62.575821)"
     style="fill:#262761" /><polygon
     points="2144.389,288.78 2144.389,285.455 2149.662,285.465 2149.662,288.78 "
     id="polygon402"
     transform="translate(-2.5030329,-62.575821)"
     style="fill:#262761" /><polygon
     points="2144.389,301.249 2144.389,297.924 2149.662,297.934 2149.662,301.249 "
     id="polygon404"
     transform="translate(-2.5030329,-62.575821)"
     style="fill:#262761" /><polygon
     points="2144.389,263.843 2144.389,260.518 2149.662,260.527 2149.662,263.843 "
     id="polygon406"
     transform="translate(-2.5030329,-62.575821)"
     style="fill:#262761" /><polygon
     points="2144.389,276.312 2144.389,272.986 2149.662,272.996 2149.662,276.312 "
     id="polygon408"
     transform="translate(-2.5030329,-62.575821)"
     style="fill:#262761" /><polygon
     points="2158.116,288.78 2158.116,285.455 2163.39,285.465 2163.39,288.78 "
     id="polygon410"
     transform="translate(-2.5030329,-62.575821)"
     style="fill:#262761" /><polygon
     points="2158.116,301.249 2158.116,297.924 2163.39,297.934 2163.39,301.249 "
     id="polygon412"
     transform="translate(-2.5030329,-62.575821)"
     style="fill:#262761" /><polygon
     points="2158.116,263.843 2158.116,260.518 2163.39,260.527 2163.39,263.843 "
     id="polygon414"
     transform="translate(-2.5030329,-62.575821)"
     style="fill:#262761" /><polygon
     points="2158.116,276.312 2158.116,272.986 2163.39,272.996 2163.39,276.312 "
     id="polygon416"
     transform="translate(-2.5030329,-62.575821)"
     style="fill:#262761" /><polygon
     points="2170.057,288.78 2170.057,285.455 2175.33,285.465 2175.33,288.78 "
     id="polygon418"
     transform="translate(-2.5030329,-62.575821)"
     style="fill:#262761" /><polygon
     points="2170.057,301.249 2170.057,297.924 2175.33,297.934 2175.33,301.249 "
     id="polygon420"
     transform="translate(-2.5030329,-62.575821)"
     style="fill:#262761" /><polygon
     points="2170.057,263.843 2170.057,260.518 2175.33,260.527 2175.33,263.843 "
     id="polygon422"
     transform="translate(-2.5030329,-62.575821)"
     style="fill:#262761" /><polygon
     points="2170.057,276.312 2170.057,272.986 2175.33,272.996 2175.33,276.312 "
     id="polygon424"
     transform="translate(-2.5030329,-62.575821)"
     style="fill:#262761" /><polygon
     points="2030.454,228.407 2030.454,225.082 2035.728,225.092 2035.728,228.407 "
     id="polygon426"
     transform="translate(-2.5030329,-62.575821)"
     style="fill:#262761" /><polygon
     points="2030.454,240.876 2030.454,237.551 2035.728,237.561 2035.728,240.876 "
     id="polygon428"
     transform="translate(-2.5030329,-62.575821)"
     style="fill:#262761" /><polygon
     points="2030.454,203.47 2030.454,200.145 2035.728,200.154 2035.728,203.47 "
     id="polygon430"
     transform="translate(-2.5030329,-62.575821)"
     style="fill:#262761" /><polygon
     points="2030.454,191.001 2030.454,187.676 2035.728,187.686 2035.728,191.001 "
     id="polygon432"
     transform="translate(-2.5030329,-62.575821)"
     style="fill:#262761" /><polygon
     points="2030.454,215.938 2030.454,212.613 2035.728,212.623 2035.728,215.938 "
     id="polygon434"
     transform="translate(-2.5030329,-62.575821)"
     style="fill:#262761" /><rect
     x="2297.7361"
     y="238.59117"
     stroke-miterlimit="10"
     width="13.207"
     height="9.7690001"
     id="rect436"
     style="fill:#ffffff;stroke:#262761;stroke-width:4;stroke-miterlimit:10" /><rect
     x="2004.5229"
     y="111.42418"
     stroke-miterlimit="10"
     width="63.334"
     height="138.44501"
     id="rect438"
     style="fill:none;stroke:#262761;stroke-width:3;stroke-miterlimit:10" /><rect
     x="2269.1692"
     y="218.30717"
     stroke-miterlimit="10"
     width="50.257999"
     height="31.562"
     id="rect440"
     style="fill:none;stroke:#262761;stroke-width:3;stroke-miterlimit:10" /><line
     stroke-miterlimit="10"
     x1="1792.3569"
     y1="211.12318"
     x2="1792.3569"
     y2="250.70119"
     id="line442"
     style="fill:none;stroke:#262761;stroke-width:3;stroke-miterlimit:10" /><line
     stroke-miterlimit="10"
     x1="1724.6069"
     y1="230.91219"
     x2="1724.6069"
     y2="250.70119"
     id="line444"
     style="fill:none;stroke:#262761;stroke-width:3;stroke-miterlimit:10" /><path
     stroke-miterlimit="10"
     d="m 1235.155,205.95118 c -4.338,0 -8.668,2.722 -8.668,7.777 0,3.197 0.742,4.58 0.742,7.092 0,4.248 -3.33,4.114 -3.33,9.674 0,5.558 5.039,10.193 11.256,10.193 h -0.142 c 6.216,0 11.256,-4.637 11.256,-10.193 0,-5.556 -3.33,-5.426 -3.33,-9.674 0,-2.512 0.743,-3.895 0.743,-7.092 0,-5.057 -4.331,-7.777 -8.669,-7.777"
     id="path446"
     inkscape:connector-curvature="0"
     style="fill:none;stroke:#262761;stroke-width:3;stroke-miterlimit:10" /><line
     stroke-miterlimit="10"
     x1="1235.1069"
     y1="230.91219"
     x2="1235.1069"
     y2="250.70119"
     id="line448"
     style="fill:none;stroke:#262761;stroke-width:3;stroke-miterlimit:10" /><path
     stroke-miterlimit="10"
     d="m 1792.448,164.67418 c -8.17,0 -16.323,5.125 -16.323,14.645 0,6.022 1.397,8.629 1.397,13.355 0,8 -6.271,7.75 -6.271,18.217 0,10.467 9.488,19.196 21.195,19.196 h -0.268 c 11.707,0 21.196,-8.729 21.196,-19.196 0,-10.467 -6.271,-10.217 -6.271,-18.217 0,-4.729 1.398,-7.333 1.398,-13.355 0,-9.52 -8.154,-14.645 -16.324,-14.645"
     id="path450"
     inkscape:connector-curvature="0"
     style="fill:none;stroke:#262761;stroke-width:3;stroke-miterlimit:10" /></svg>