<?xml version="1.0" encoding="utf-8"?>
<!-- Generator: Adobe Illustrator 16.0.0, SVG Export Plug-In . SVG Version: 6.00 Build 0)  -->
<!DOCTYPE svg PUBLIC "-//W3C//DTD SVG 1.1//EN" "http://www.w3.org/Graphics/SVG/1.1/DTD/svg11.dtd">
<svg version="1.1" id="Layer_1" xmlns="http://www.w3.org/2000/svg" xmlns:xlink="http://www.w3.org/1999/xlink" x="0px" y="0px"
	 width="2400px" height="350px" viewBox="0 0 2400 350" enable-background="new 0 0 2400 350" xml:space="preserve">
<rect x="818.36" y="158.834" fill="#FFFFFF" width="33" height="101.611"/>
<path fill="#262761" d="M208.149,246.27h-34.703v-34.59l6.438-4.107h21.479l6.786,4.441L208.149,246.27L208.149,246.27z
	 M175.678,244.036h30.239v-30.815l-5.221-3.419h-20.162l-4.856,3.101V244.036z"/>
<polygon fill="#262761" points="222.734,208.014 212.397,208.014 212.397,201.234 193.898,183.182 187.153,183.182 167.813,202.639 
	167.813,208.014 157.221,208.014 157.221,205.781 165.581,205.781 165.581,201.716 186.224,180.948 194.807,180.948 214.63,200.295 
	214.63,205.781 222.734,205.781 "/>
<rect x="179.092" y="208.686" fill="#262761" width="2.232" height="36.467"/>
<rect x="199.846" y="208.686" fill="#262761" width="2.232" height="36.467"/>
<polygon fill="#262761" points="174.957,216.436 174.167,214.348 179.261,212.421 194.78,212.421 194.78,214.652 179.668,214.652 
	"/>
<polygon fill="#262761" points="206.783,216.02 200.835,214.652 197.21,214.652 197.21,212.421 201.088,212.421 207.282,213.845 "/>
<rect x="180.653" y="187.307" fill="#262761" width="19.89" height="2.231"/>
<rect x="170.84" y="197.08" fill="#262761" width="20.591" height="2.232"/>
<rect x="194.921" y="197.08" fill="#262761" width="5.62" height="2.232"/>
<rect x="167.067" y="205.781" fill="#262761" width="3.313" height="2.232"/>
<polyline fill="#262761" points="248.534,248.396 291.801,248.396 291.801,214.325 294.033,214.325 294.033,250.628 
	248.332,250.628 "/>
<polygon fill="#262761" points="294.033,261.57 254.325,261.57 254.325,260.34 291.801,260.34 291.801,249.511 294.033,249.511 "/>
<polygon fill="#262761" points="243.448,245.152 241.216,245.152 241.216,223.777 237.287,220.041 222.734,220.041 222.734,217.809 
	238.18,217.809 243.448,222.821 "/>
<polygon fill="#262761" points="290.508,249.357 288.275,249.357 288.275,224.811 283.868,220.041 251.208,220.041 247.28,223.777 
	247.28,247.143 245.048,247.143 245.048,222.821 250.316,217.809 284.844,217.809 290.508,223.936 "/>
<rect x="189.681" y="213.537" fill="#262761" width="2.232" height="31.615"/>
<rect x="159.09" y="244.036" fill="#262761" width="8.374" height="2.231"/>
<rect x="159.09" y="251.277" fill="#262761" width="8.374" height="2.231"/>
<rect x="159.09" y="236.385" fill="#262761" width="8.374" height="2.232"/>
<rect x="159.09" y="228.734" fill="#262761" width="8.374" height="2.23"/>
<rect x="159.09" y="221.082" fill="#262761" width="8.374" height="2.232"/>
<rect x="159.09" y="213.434" fill="#262761" width="8.374" height="2.23"/>
<rect x="236.2" y="205.781" fill="#262761" width="54.276" height="2.232"/>
<rect x="282.029" y="207.355" fill="#262761" width="2.232" height="2.914"/>
<rect x="274.353" y="207.355" fill="#262761" width="2.232" height="2.914"/>
<rect x="266.677" y="207.355" fill="#262761" width="2.232" height="2.914"/>
<rect x="259.001" y="207.355" fill="#262761" width="2.23" height="2.914"/>
<rect x="251.326" y="207.355" fill="#262761" width="2.23" height="2.914"/>
<rect x="243.65" y="207.355" fill="#262761" width="2.232" height="2.914"/>
<rect x="281.569" y="235.1" fill="#262761" width="2.232" height="13.868"/>
<rect x="274.2" y="235.1" fill="#262761" width="2.23" height="13.868"/>
<rect x="266.831" y="235.1" fill="#262761" width="2.23" height="13.868"/>
<rect x="252.092" y="235.1" fill="#262761" width="2.232" height="13.868"/>
<rect x="259.428" y="235.1" fill="#262761" width="2.232" height="13.868"/>
<rect x="180.208" y="227.316" fill="#262761" width="20.753" height="2.231"/>
<rect x="189.199" y="170.296" fill="#262761" width="2.23" height="2.947"/>
<rect x="261.512" y="179.117" fill="#262761" width="2.232" height="2.947"/>
<rect x="246.164" y="233.984" fill="#262761" width="43.396" height="2.23"/>
<path fill="#262761" d="M250.943,261.57h-39.156v-12.367c0-7.828,6.369-14.198,14.197-14.198c6.17,0,11.54,3.929,13.456,9.695
	c0.785-0.218,1.597-0.329,2.419-0.329c5.011,0,9.084,4.076,9.084,9.086V261.57z M214.017,259.34h34.694v-5.883
	c0-3.779-3.074-6.854-6.854-6.854c-0.939,0-1.854,0.189-2.722,0.563l-1.219,0.53l-0.312-1.295
	c-1.295-5.396-6.074-9.168-11.624-9.168c-6.598,0-11.967,5.367-11.967,11.967L214.017,259.34L214.017,259.34z"/>
<path fill="#262761" d="M1518.149,246.27h-34.703v-34.59l6.438-4.107h21.479l6.785,4.441V246.27z M1485.678,244.036h30.238v-30.815
	l-5.221-3.419h-20.164l-4.854,3.101V244.036L1485.678,244.036z"/>
<polygon fill="#262761" points="1532.734,208.014 1522.397,208.014 1522.397,201.234 1503.899,183.182 1497.153,183.182 
	1477.813,202.639 1477.813,208.014 1467.221,208.014 1467.221,205.781 1475.579,205.781 1475.579,201.716 1496.224,180.948 
	1504.807,180.948 1524.629,200.295 1524.629,205.781 1532.734,205.781 "/>
<rect x="1489.092" y="208.686" fill="#262761" width="2.23" height="36.467"/>
<rect x="1509.846" y="208.686" fill="#262761" width="2.23" height="36.467"/>
<polygon fill="#262761" points="1484.957,216.436 1484.166,214.348 1489.26,212.421 1504.78,212.421 1504.78,214.652 
	1489.668,214.652 "/>
<polygon fill="#262761" points="1516.781,216.02 1510.834,214.652 1507.209,214.652 1507.209,212.421 1511.088,212.421 
	1517.281,213.845 "/>
<rect x="1490.653" y="187.307" fill="#262761" width="19.889" height="2.231"/>
<rect x="1480.84" y="197.08" fill="#262761" width="20.591" height="2.232"/>
<rect x="1504.921" y="197.08" fill="#262761" width="5.62" height="2.232"/>
<rect x="1477.067" y="205.781" fill="#262761" width="3.312" height="2.232"/>
<polyline fill="#262761" points="1558.532,248.396 1601.801,248.396 1601.801,214.325 1604.032,214.325 1604.032,250.628 
	1558.332,250.628 "/>
<polygon fill="#262761" points="1604.032,261.57 1564.323,261.57 1564.323,260.34 1601.801,260.34 1601.801,249.511 
	1604.032,249.511 "/>
<polygon fill="#262761" points="1553.448,245.152 1551.215,245.152 1551.215,223.777 1547.286,220.041 1532.734,220.041 
	1532.734,217.809 1548.18,217.809 1553.448,222.821 "/>
<polygon fill="#262761" points="1600.508,249.357 1598.276,249.357 1598.276,224.811 1593.866,220.041 1561.207,220.041 
	1557.28,223.777 1557.28,247.143 1555.047,247.143 1555.047,222.821 1560.317,217.809 1594.844,217.809 1600.508,223.936 "/>
<rect x="1499.681" y="213.537" fill="#262761" width="2.229" height="31.615"/>
<rect x="1469.09" y="244.036" fill="#262761" width="8.373" height="2.231"/>
<rect x="1469.09" y="251.277" fill="#262761" width="8.373" height="2.231"/>
<rect x="1469.09" y="236.385" fill="#262761" width="8.373" height="2.232"/>
<rect x="1469.09" y="228.734" fill="#262761" width="8.373" height="2.23"/>
<rect x="1469.09" y="221.082" fill="#262761" width="8.373" height="2.232"/>
<rect x="1469.09" y="213.434" fill="#262761" width="8.373" height="2.23"/>
<rect x="1546.198" y="205.781" fill="#262761" width="54.277" height="2.232"/>
<rect x="1592.029" y="207.355" fill="#262761" width="2.232" height="2.914"/>
<rect x="1584.353" y="207.355" fill="#262761" width="2.231" height="2.914"/>
<rect x="1576.677" y="207.355" fill="#262761" width="2.23" height="2.914"/>
<rect x="1569" y="207.355" fill="#262761" width="2.231" height="2.914"/>
<rect x="1561.325" y="207.355" fill="#262761" width="2.232" height="2.914"/>
<rect x="1553.65" y="207.355" fill="#262761" width="2.232" height="2.914"/>
<rect x="1591.569" y="235.1" fill="#262761" width="2.232" height="13.868"/>
<rect x="1584.198" y="235.1" fill="#262761" width="2.232" height="13.868"/>
<rect x="1576.829" y="235.1" fill="#262761" width="2.232" height="13.868"/>
<rect x="1562.092" y="235.1" fill="#262761" width="2.23" height="13.868"/>
<rect x="1569.428" y="235.1" fill="#262761" width="2.23" height="13.868"/>
<rect x="1490.207" y="227.316" fill="#262761" width="20.754" height="2.231"/>
<rect x="1499.198" y="170.296" fill="#262761" width="2.232" height="2.947"/>
<rect x="1571.512" y="179.117" fill="#262761" width="2.23" height="2.947"/>
<rect x="1556.163" y="233.984" fill="#262761" width="43.396" height="2.23"/>
<path fill="#262761" d="M1560.943,261.57h-39.158v-12.367c0-7.828,6.37-14.198,14.199-14.198c6.171,0,11.54,3.929,13.456,9.695
	c0.785-0.218,1.594-0.329,2.418-0.329c5.01,0,9.085,4.076,9.085,9.086V261.57z M1524.017,259.34h34.694v-5.883
	c0-3.779-3.074-6.854-6.854-6.854c-0.94,0-1.854,0.189-2.722,0.563l-1.221,0.53l-0.31-1.295c-1.296-5.396-6.076-9.168-11.624-9.168
	c-6.6,0-11.967,5.367-11.967,11.967v10.138L1524.017,259.34L1524.017,259.34z"/>
<polygon fill="#262761" points="640.94,242.716 635.666,242.716 635.666,239.391 640.94,239.4 "/>
<polygon fill="#262761" points="712.975,156.547 692.722,156.547 692.721,153.223 712.974,153.23 "/>
<polygon fill="#262761" points="712.975,169.094 692.722,169.094 692.721,165.77 712.974,165.777 "/>
<polygon fill="#262761" points="712.975,181.643 692.722,181.643 692.721,178.316 712.974,178.326 "/>
<polygon fill="#262761" points="712.975,194.188 692.722,194.188 692.721,190.863 712.974,190.873 "/>
<polygon fill="#262761" points="712.975,206.736 692.722,206.736 692.721,203.411 712.974,203.421 "/>
<polygon fill="#262761" points="712.975,219.283 692.722,219.283 692.721,215.958 712.974,215.968 "/>
<polygon fill="#262761" points="712.975,231.831 692.722,231.831 692.721,228.506 712.974,228.516 "/>
<polygon fill="#262761" points="712.975,244.378 692.722,244.378 692.721,241.053 712.974,241.062 "/>
<polygon fill="#262761" points="628.421,242.716 623.147,242.716 623.147,239.391 628.421,239.4 "/>
<polygon fill="#262761" points="615.78,242.716 610.507,242.716 610.507,239.391 615.78,239.4 "/>
<polygon fill="#262761" points="615.78,253.229 610.507,253.229 610.507,249.904 615.78,249.914 "/>
<polygon fill="#262761" points="771.786,226.282 766.515,226.282 766.515,222.957 771.786,222.967 "/>
<polygon fill="#262761" points="771.786,238.751 766.515,238.751 766.515,235.426 771.786,235.436 "/>
<polygon fill="#262761" points="771.786,201.345 766.515,201.345 766.515,198.02 771.786,198.029 "/>
<polygon fill="#262761" points="771.786,213.812 766.515,213.812 766.515,210.488 771.786,210.498 "/>
<polygon fill="#262761" points="771.786,176.407 766.515,176.407 766.515,173.082 771.786,173.092 "/>
<polygon fill="#262761" points="771.786,188.876 766.515,188.876 766.515,185.551 771.786,185.561 "/>
<polygon fill="#262761" points="771.786,151.47 766.515,151.47 766.515,148.145 771.786,148.154 "/>
<polygon fill="#262761" points="771.786,139.001 766.515,139.001 766.515,135.676 771.786,135.686 "/>
<polygon fill="#262761" points="771.786,163.938 766.515,163.938 766.515,160.613 771.786,160.623 "/>
<polygon fill="#262761" points="783.728,226.282 778.453,226.282 778.453,222.957 783.728,222.967 "/>
<polygon fill="#262761" points="783.728,238.751 778.453,238.751 778.453,235.426 783.728,235.436 "/>
<polygon fill="#262761" points="783.728,201.345 778.453,201.345 778.453,198.02 783.728,198.029 "/>
<polygon fill="#262761" points="783.728,213.812 778.453,213.812 778.453,210.488 783.728,210.498 "/>
<polygon fill="#262761" points="935.723,236.78 930.448,236.78 930.448,233.455 935.723,233.465 "/>
<polygon fill="#262761" points="935.723,249.249 930.448,249.249 930.448,245.924 935.723,245.934 "/>
<polygon fill="#262761" points="935.723,211.843 930.448,211.843 930.448,208.518 935.723,208.527 "/>
<polygon fill="#262761" points="935.723,224.312 930.448,224.312 930.448,220.986 935.723,220.996 "/>
<polygon fill="#262761" points="947.661,236.78 942.39,236.78 942.39,233.455 947.661,233.465 "/>
<polygon fill="#262761" points="947.661,249.249 942.39,249.249 942.39,245.924 947.661,245.934 "/>
<polygon fill="#262761" points="947.661,211.843 942.39,211.843 942.39,208.518 947.661,208.527 "/>
<polygon fill="#262761" points="947.661,224.312 942.39,224.312 942.39,220.986 947.661,220.996 "/>
<polygon fill="#262761" points="961.39,236.78 956.115,236.78 956.115,233.455 961.39,233.465 "/>
<polygon fill="#262761" points="961.39,249.249 956.115,249.249 956.115,245.924 961.39,245.934 "/>
<polygon fill="#262761" points="961.39,211.843 956.115,211.843 956.115,208.518 961.39,208.527 "/>
<polygon fill="#262761" points="961.39,224.312 956.115,224.312 956.115,220.986 961.39,220.996 "/>
<polygon fill="#262761" points="973.328,236.78 968.057,236.78 968.057,233.455 973.328,233.465 "/>
<polygon fill="#262761" points="973.328,249.249 968.057,249.249 968.057,245.924 973.328,245.934 "/>
<polygon fill="#262761" points="973.328,211.843 968.057,211.843 968.057,208.518 973.328,208.527 "/>
<polygon fill="#262761" points="973.328,224.312 968.057,224.312 968.057,220.986 973.328,220.996 "/>
<polygon fill="#262761" points="783.728,176.407 778.453,176.407 778.453,173.082 783.728,173.092 "/>
<polygon fill="#262761" points="783.728,188.876 778.453,188.876 778.453,185.551 783.728,185.561 "/>
<polygon fill="#262761" points="783.728,151.47 778.453,151.47 778.453,148.145 783.728,148.154 "/>
<polygon fill="#262761" points="783.728,139.001 778.453,139.001 778.453,135.676 783.728,135.686 "/>
<polygon fill="#262761" points="783.728,163.938 778.453,163.938 778.453,160.613 783.728,160.623 "/>
<rect x="628.239" y="249.167" fill="#FFFFFF" stroke="#262761" stroke-width="4" stroke-miterlimit="10" width="13.207" height="9.769"/>
<line fill="none" x1="891.256" y1="260.277" x2="891.98" y2="117.547"/>
<line fill="none" stroke="#262761" stroke-width="3" stroke-miterlimit="10" x1="877.693" y1="50.667" x2="894.256" y2="50.667"/>
<line fill="none" stroke="#262761" stroke-width="2" stroke-miterlimit="10" x1="880.36" y1="57.333" x2="891.59" y2="57.333"/>
<line fill="none" stroke="#262761" stroke-width="2" stroke-miterlimit="10" x1="877.36" y1="68.333" x2="894.59" y2="68.333"/>
<line fill="none" stroke="#262761" stroke-width="2" stroke-miterlimit="10" x1="877.36" y1="101" x2="894.59" y2="101"/>
<line fill="none" stroke="#262761" stroke-width="3" stroke-miterlimit="10" x1="876.027" y1="83.5" x2="895.923" y2="83.5"/>
<line fill="none" stroke="#262761" stroke-width="3" stroke-miterlimit="10" x1="864.34" y1="73.882" x2="907.61" y2="73.882"/>
<line fill="none" stroke="#262761" stroke-width="3" stroke-miterlimit="10" x1="0" y1="261.277" x2="2400" y2="261.277"/>
<line fill="none" stroke="#262761" stroke-width="3" stroke-miterlimit="10" x1="422.86" y1="221.699" x2="422.86" y2="261.277"/>
<line fill="none" stroke="#262761" stroke-width="3" stroke-miterlimit="10" x1="475.11" y1="241.488" x2="475.11" y2="261.277"/>
<line fill="none" stroke="#262761" stroke-width="3" stroke-miterlimit="10" x1="75.61" y1="242.488" x2="75.61" y2="262.277"/>
<rect x="2070.36" y="158.834" fill="#FFFFFF" width="33" height="101.611"/>
<polygon fill="#262761" points="2312.94,242.716 2307.666,242.716 2307.666,239.391 2312.94,239.4 "/>
<polygon fill="#262761" points="1964.975,156.547 1944.721,156.547 1944.721,153.223 1964.974,153.23 "/>
<polygon fill="#262761" points="1964.975,169.094 1944.721,169.094 1944.721,165.77 1964.974,165.777 "/>
<polygon fill="#262761" points="1964.975,181.643 1944.721,181.643 1944.721,178.316 1964.974,178.326 "/>
<polygon fill="#262761" points="1964.975,194.188 1944.721,194.188 1944.721,190.863 1964.974,190.873 "/>
<polygon fill="#262761" points="1964.975,206.736 1944.721,206.736 1944.721,203.411 1964.974,203.421 "/>
<polygon fill="#262761" points="1964.975,219.283 1944.721,219.283 1944.721,215.958 1964.974,215.968 "/>
<polygon fill="#262761" points="1964.975,231.831 1944.721,231.831 1944.721,228.506 1964.974,228.516 "/>
<polygon fill="#262761" points="1964.975,244.378 1944.721,244.378 1944.721,241.053 1964.974,241.062 "/>
<polygon fill="#262761" points="2300.42,242.716 2295.147,242.716 2295.147,239.391 2300.42,239.4 "/>
<polygon fill="#262761" points="2287.78,242.716 2282.506,242.716 2282.506,239.391 2287.78,239.4 "/>
<polygon fill="#262761" points="2287.78,253.229 2282.506,253.229 2282.506,249.904 2287.78,249.914 "/>
<polygon fill="#262761" points="2023.786,226.282 2018.514,226.282 2018.514,222.957 2023.786,222.967 "/>
<polygon fill="#262761" points="2023.786,238.751 2018.514,238.751 2018.514,235.426 2023.786,235.436 "/>
<polygon fill="#262761" points="2023.786,201.345 2018.514,201.345 2018.514,198.02 2023.786,198.029 "/>
<polygon fill="#262761" points="2023.786,213.812 2018.514,213.812 2018.514,210.488 2023.786,210.498 "/>
<polygon fill="#262761" points="2023.786,176.407 2018.514,176.407 2018.514,173.082 2023.786,173.092 "/>
<polygon fill="#262761" points="2023.786,188.876 2018.514,188.876 2018.514,185.551 2023.786,185.561 "/>
<polygon fill="#262761" points="2023.786,151.47 2018.514,151.47 2018.514,148.145 2023.786,148.154 "/>
<polygon fill="#262761" points="2023.786,139.001 2018.514,139.001 2018.514,135.676 2023.786,135.686 "/>
<polygon fill="#262761" points="2023.786,163.938 2018.514,163.938 2018.514,160.613 2023.786,160.623 "/>
<polygon fill="#262761" points="2035.728,226.282 2030.453,226.282 2030.453,222.957 2035.728,222.967 "/>
<polygon fill="#262761" points="2035.728,238.751 2030.453,238.751 2030.453,235.426 2035.728,235.436 "/>
<polygon fill="#262761" points="2035.728,201.345 2030.453,201.345 2030.453,198.02 2035.728,198.029 "/>
<polygon fill="#262761" points="2035.728,213.812 2030.453,213.812 2030.453,210.488 2035.728,210.498 "/>
<polygon fill="#262761" points="2137.723,236.78 2132.448,236.78 2132.448,233.455 2137.723,233.465 "/>
<polygon fill="#262761" points="2137.723,249.249 2132.448,249.249 2132.448,245.924 2137.723,245.934 "/>
<polygon fill="#262761" points="2137.723,211.843 2132.448,211.843 2132.448,208.518 2137.723,208.527 "/>
<polygon fill="#262761" points="2137.723,224.312 2132.448,224.312 2132.448,220.986 2137.723,220.996 "/>
<polygon fill="#262761" points="2149.662,236.78 2144.389,236.78 2144.389,233.455 2149.662,233.465 "/>
<polygon fill="#262761" points="2149.662,249.249 2144.389,249.249 2144.389,245.924 2149.662,245.934 "/>
<polygon fill="#262761" points="2149.662,211.843 2144.389,211.843 2144.389,208.518 2149.662,208.527 "/>
<polygon fill="#262761" points="2149.662,224.312 2144.389,224.312 2144.389,220.986 2149.662,220.996 "/>
<polygon fill="#262761" points="2163.39,236.78 2158.115,236.78 2158.115,233.455 2163.39,233.465 "/>
<polygon fill="#262761" points="2163.39,249.249 2158.115,249.249 2158.115,245.924 2163.39,245.934 "/>
<polygon fill="#262761" points="2163.39,211.843 2158.115,211.843 2158.115,208.518 2163.39,208.527 "/>
<polygon fill="#262761" points="2163.39,224.312 2158.115,224.312 2158.115,220.986 2163.39,220.996 "/>
<polygon fill="#262761" points="2175.33,236.78 2170.057,236.78 2170.057,233.455 2175.33,233.465 "/>
<polygon fill="#262761" points="2175.33,249.249 2170.057,249.249 2170.057,245.924 2175.33,245.934 "/>
<polygon fill="#262761" points="2175.33,211.843 2170.057,211.843 2170.057,208.518 2175.33,208.527 "/>
<polygon fill="#262761" points="2175.33,224.312 2170.057,224.312 2170.057,220.986 2175.33,220.996 "/>
<polygon fill="#262761" points="2035.728,176.407 2030.453,176.407 2030.453,173.082 2035.728,173.092 "/>
<polygon fill="#262761" points="2035.728,188.876 2030.453,188.876 2030.453,185.551 2035.728,185.561 "/>
<polygon fill="#262761" points="2035.728,151.47 2030.453,151.47 2030.453,148.145 2035.728,148.154 "/>
<polygon fill="#262761" points="2035.728,139.001 2030.453,139.001 2030.453,135.676 2035.728,135.686 "/>
<polygon fill="#262761" points="2035.728,163.938 2030.453,163.938 2030.453,160.613 2035.728,160.623 "/>
<rect x="2300.239" y="249.167" fill="none" stroke="#262761" stroke-width="4" stroke-miterlimit="10" width="13.207" height="9.769"/>
<line fill="none" stroke="#262761" stroke-width="3" stroke-miterlimit="10" x1="1794.86" y1="221.699" x2="1794.86" y2="261.277"/>
<line fill="none" stroke="#262761" stroke-width="3" stroke-miterlimit="10" x1="1727.11" y1="241.488" x2="1727.11" y2="261.277"/>
<line fill="none" stroke="#262761" stroke-width="3" stroke-miterlimit="10" x1="1237.61" y1="241.488" x2="1237.61" y2="261.277"/>
<path fill="none" stroke="#262761" stroke-width="3" stroke-miterlimit="10" d="M75.659,215.527c-4.34,0-8.668,2.722-8.668,7.777
	c0,3.196,0.74,4.579,0.74,7.092c0,4.248-3.33,4.113-3.33,9.674c0,5.558,5.039,10.193,11.258,10.193h-0.144
	c6.216,0,11.256-4.638,11.256-10.193c0-5.557-3.33-5.426-3.33-9.674c0-2.513,0.743-3.896,0.743-7.092
	c0-5.058-4.331-7.777-8.668-7.777"/>
<polyline fill="#262761" points="208.149,261.57 157.973,261.57 157.973,208.059 154.112,208.059 190.306,171.669 227.292,208.059 
	223.39,208.059 223.39,235.794 221.157,236.386 221.157,205.825 221.84,205.825 190.323,174.816 159.481,205.825 160.206,205.825 
	160.206,260.34 208.149,260.34 "/>
<polygon fill="#262761" points="294.033,215.441 222.734,215.441 222.734,213.21 291.801,213.21 291.801,211.387 287.508,211.387 
	287.508,205.781 289.344,205.781 262.28,183.182 199.281,183.182 199.281,180.948 262.977,180.948 296.489,208.014 289.741,208.014 
	289.741,209.154 294.033,209.154 "/>
<path fill="none" stroke="#262761" stroke-width="3" stroke-miterlimit="10" d="M475.157,216.527c-4.338,0-8.668,2.722-8.668,7.777
	c0,3.196,0.742,4.579,0.742,7.092c0,4.248-3.33,4.113-3.33,9.674c0,5.558,5.039,10.193,11.256,10.193h-0.142
	c6.216,0,11.256-4.638,11.256-10.193c0-5.557-3.33-5.426-3.33-9.674c0-2.513,0.743-3.896,0.743-7.092
	c0-5.058-4.331-7.777-8.668-7.777"/>
<path fill="none" stroke="#262761" stroke-width="3" stroke-miterlimit="10" d="M422.95,175.25c-8.169,0-16.322,5.125-16.322,14.645
	c0,6.022,1.396,8.629,1.396,13.355c0,8-6.271,7.75-6.271,18.217s9.488,19.196,21.194,19.196h-0.268
	c11.707,0,21.196-8.729,21.196-19.196s-6.271-10.217-6.271-18.217c0-4.729,1.398-7.333,1.398-13.355
	c0-9.52-8.154-14.645-16.324-14.645"/>
<rect x="599.672" y="228.883" fill="none" stroke="#262761" stroke-width="3" stroke-miterlimit="10" width="50.259" height="31.562"/>
<rect x="684.339" y="139.001" fill="none" stroke="#262761" stroke-width="3" stroke-miterlimit="10" width="36.188" height="121.444"/>
<rect x="818.36" y="158.834" fill="none" stroke="#262761" stroke-width="3" stroke-miterlimit="10" width="33" height="101.611"/>
<rect x="919.223" y="198.02" fill="none" stroke="#262761" stroke-width="3" stroke-miterlimit="10" width="61.803" height="62.426"/>
<rect x="755.026" y="122" fill="none" stroke="#262761" stroke-width="3" stroke-miterlimit="10" width="63.333" height="138.445"/>
<polyline fill="none" stroke="#262761" stroke-width="3" stroke-linecap="round" stroke-linejoin="round" stroke-miterlimit="10" points="
	880.36,261.277 880.36,122 876.027,111 876.027,83 872.36,78 872.36,73.882 877.412,73.571 878.027,68.667 880.36,57.333 
	877.693,50.667 880.36,50.667 882.36,40.667 886.027,40.667 886.027,9.667 "/>
<polyline fill="none" stroke="#262761" stroke-width="3" stroke-linecap="round" stroke-linejoin="round" stroke-miterlimit="10" points="
	891.59,261.277 891.59,122 895.923,111 895.923,83 899.59,78 899.59,73.882 894.59,73.677 893.923,68.667 891.59,57.333 
	894.256,50.667 891.59,50.667 889.59,40.667 885.923,40.667 885.923,9.667 "/>
<path fill="none" stroke="#262761" stroke-width="3" stroke-miterlimit="10" d="M1237.657,216.527c-4.338,0-8.668,2.722-8.668,7.777
	c0,3.196,0.742,4.579,0.742,7.092c0,4.248-3.33,4.113-3.33,9.674c0,5.558,5.039,10.193,11.256,10.193h-0.142
	c6.216,0,11.256-4.638,11.256-10.193c0-5.557-3.33-5.426-3.33-9.674c0-2.513,0.743-3.896,0.743-7.092
	c0-5.058-4.331-7.777-8.669-7.777"/>
<polyline fill="#262761" points="1518.149,261.57 1467.973,261.57 1467.973,208.059 1464.112,208.059 1500.305,171.669 
	1537.291,208.059 1533.389,208.059 1533.389,235.794 1531.156,236.386 1531.156,205.825 1531.84,205.825 1500.323,174.816 
	1469.481,205.825 1470.204,205.825 1470.204,260.34 1518.149,260.34 "/>
<polygon fill="#262761" points="1604.032,215.441 1532.734,215.441 1532.734,213.21 1601.801,213.21 1601.801,211.387 
	1597.508,211.387 1597.508,205.781 1599.344,205.781 1572.28,183.182 1509.281,183.182 1509.281,180.948 1572.977,180.948 
	1606.489,208.014 1599.74,208.014 1599.74,209.154 1604.032,209.154 "/>
<path fill="none" stroke="#262761" stroke-width="3" stroke-miterlimit="10" d="M1727.157,216.527c-4.338,0-8.668,2.722-8.668,7.777
	c0,3.196,0.742,4.579,0.742,7.092c0,4.248-3.33,4.113-3.33,9.674c0,5.558,5.039,10.193,11.256,10.193h-0.142
	c6.216,0,11.256-4.638,11.256-10.193c0-5.557-3.33-5.426-3.33-9.674c0-2.513,0.743-3.896,0.743-7.092
	c0-5.058-4.331-7.777-8.669-7.777"/>
<path fill="none" stroke="#262761" stroke-width="3" stroke-miterlimit="10" d="M1794.95,175.25c-8.17,0-16.322,5.125-16.322,14.645
	c0,6.022,1.396,8.629,1.396,13.355c0,8-6.271,7.75-6.271,18.217s9.487,19.196,21.194,19.196h-0.268
	c11.707,0,21.196-8.729,21.196-19.196s-6.271-10.217-6.271-18.217c0-4.729,1.398-7.333,1.398-13.355
	c0-9.52-8.154-14.645-16.324-14.645"/>
<rect x="1936.338" y="139.001" fill="none" stroke="#262761" stroke-width="3" stroke-miterlimit="10" width="36.188" height="121.444"/>
<rect x="2070.36" y="158.834" fill="none" stroke="#262761" stroke-width="3" stroke-miterlimit="10" width="33" height="101.611"/>
<rect x="2121.223" y="198.02" fill="none" stroke="#262761" stroke-width="3" stroke-miterlimit="10" width="61.803" height="62.426"/>
<rect x="2007.026" y="122" fill="none" stroke="#262761" stroke-width="3" stroke-miterlimit="10" width="63.334" height="138.445"/>
<rect x="2271.672" y="228.883" fill="none" stroke="#262761" stroke-width="3" stroke-miterlimit="10" width="50.258" height="31.562"/>
</svg>
