<?xml version="1.0" encoding="utf-8"?>
<!-- Generator: Adobe Illustrator 16.0.0, SVG Export Plug-In . SVG Version: 6.00 Build 0)  -->
<!DOCTYPE svg PUBLIC "-//W3C//DTD SVG 1.1//EN" "http://www.w3.org/Graphics/SVG/1.1/DTD/svg11.dtd">
<svg version="1.1" id="Layer_1" xmlns="http://www.w3.org/2000/svg" xmlns:xlink="http://www.w3.org/1999/xlink" x="0px" y="0px"
	 width="224.334px" height="2375.5px" viewBox="0 0 224.334 2375.5" enable-background="new 0 0 224.334 2375.5"
	 xml:space="preserve">
<g display="none">
</g>
<line fill="none" x1="-104.691" y1="84.1" x2="-101.591" y2="80.5"/>
<line fill="none" x1="-100.391" y1="91.5" x2="-103.891" y2="95.6"/>
<g display="none">
	<rect x="-0.5" y="-0.5" display="inline" fill="none" stroke="#43FF66" stroke-miterlimit="10" width="183" height="264"/>
	<rect x="0.5" y="263.5" display="inline" fill="none" stroke="#43FF66" stroke-miterlimit="10" width="183" height="264"/>
	<rect x="-0.5" y="527.5" display="inline" fill="none" stroke="#43FF66" stroke-miterlimit="10" width="183" height="264"/>
	<rect x="0.5" y="791.5" display="inline" fill="none" stroke="#43FF66" stroke-miterlimit="10" width="183" height="264"/>
	<rect x="-0.5" y="1055.5" display="inline" fill="none" stroke="#43FF66" stroke-miterlimit="10" width="183" height="264"/>
	<rect x="-0.5" y="1319.5" display="inline" fill="none" stroke="#43FF66" stroke-miterlimit="10" width="183" height="264"/>
	<rect x="-0.5" y="1583.5" display="inline" fill="none" stroke="#43FF66" stroke-miterlimit="10" width="183" height="264"/>
	<rect x="0.5" y="1847.5" display="inline" fill="none" stroke="#43FF66" stroke-miterlimit="10" width="183" height="264"/>
	<rect x="-0.5" y="2111.5" display="inline" fill="none" stroke="#43FF66" stroke-miterlimit="10" width="183" height="264"/>
</g>
<path fill="#A35318" d="M151.942,211.412c0,0,19.257,32.717,24.938,34.035c5.682,1.317-10.029,12.532-11.523,10.438
	s-23.616-33.083-23.616-33.083L151.942,211.412z"/>
<path fill="#A35318" d="M50.924,209.846c0,0,14.58,35.329,20.019,37.431c5.44,2.104-11.81,10.771-12.994,8.489
	c-1.187-2.285-18.729-36.078-18.729-36.078L50.924,209.846z"/>
<path fill="#A35318" d="M214.306,147.953c0,0,1.092,27.72-29.778,27.14c-4.052-0.964,0-11.769,0-11.769L214.306,147.953z"/>
<path fill="#391F0A" d="M39.434,188.407c0,0-8.702-13.373-14.684-26.88c-2.315,10.227,5.422,37.105,5.422,37.105L39.434,188.407z"/>
<path fill="#533420" d="M201.257,171.565c-2.479,0-8.238-0.39-9.971-3.897l0.863-0.426c1.896,3.842,10.099,3.334,10.185,3.334
	l0.063,0.959C202.323,171.54,201.9,171.565,201.257,171.565z"/>
<path fill="#603814" d="M214.306,147.953c0,0-22.254,0.899-36.531-16.464c-5.595-5.211-8.875-4.116-17.751-1.286
	c-8.876,2.829-22.999,22.961-24.331,40.39c-1.33,17.428-85.26,10.159-95.809,16.27c-10.548,6.111-14.74,19.155-15.89,25.587
	c-1.148,6.432-18.501,40.004-17.985,43.864s20.46,8.312,16.602,3.938c-3.859-4.375,13.93-24.57,26.793-31.518
	c12.862-6.945,66.629,9.004,93.385,7.975c0.773,4.973-16.378,16.912-15.862,21.543c0.515,4.631,23.524,4.478,19.666-0.667
	c-3.859-5.145,15.491-23.707,17.549-28.593c2.057-4.889,18.008-18.008,22.895-63.179
	C196.812,164.675,214.306,147.953,214.306,147.953z"/>
<g>
	<path fill="#2D1306" d="M188.635,144.292c1.857,0.815,2.646,3.114,1.759,5.138c-0.887,2.018-3.109,2.996-4.965,2.184
		c-1.859-0.816-2.646-3.112-1.76-5.134C184.553,144.458,186.776,143.479,188.635,144.292z"/>
	<path fill="#FDFEFF" d="M186.141,144.455c1.121,0.489,1.599,1.879,1.063,3.104c-0.534,1.219-1.88,1.81-3.003,1.318
		c-1.121-0.49-1.599-1.881-1.063-3.102C183.674,144.554,185.019,143.962,186.141,144.455z"/>
</g>
<path fill="#391F0A" d="M207.054,147.813c2.378-0.801,10.563-0.259,10.604,1.063c0.039,1.326-5.537,5.491-6.93,5.335
	C209.337,154.059,205.443,148.084,207.054,147.813z"/>
<path fill="#409F91" d="M168.063,189.586c3.062,0.342,11.614,0.186,16.677-0.09c5.064-0.279,3.683-12.598,0.541-12.059
	c-0.516,1.223-0.942,4.062-0.942,4.062c-28.284,1.431-45.375-18.779-46.919-21.268c-1.541-2.499-7.863,2.586-5.62,6.331
	C134.039,170.312,141.767,186.65,168.063,189.586z"/>
<path fill="#46260F" d="M174.236,135.432c5.402-11.521-24.695-12.416-28.812,3.583c-4.117,16.001-9.262,58.396,12.21,65.82
	C178.61,209.392,168.834,146.952,174.236,135.432z"/>
<path fill="#A35318" d="M167.311,474.499c0,0-4.938,37.641-1.268,42.174c3.671,4.533-15.615,3.714-15.506,1.144
	c0.109-2.569,1.725-40.611,1.725-40.611L167.311,474.499z"/>
<path fill="#A35318" d="M62.6,473.621c0,0-4.185,37.99-0.424,42.445c3.761,4.458-15.532,3.774-15.475,1.203
	c0.057-2.574,0.905-40.64,0.905-40.64L62.6,473.621z"/>
<path fill="#A35318" d="M214.13,410.945c0,0,1.092,27.72-29.778,27.14c-4.052-0.964,0-11.769,0-11.769L214.13,410.945z"/>
<path fill="#391F0A" d="M39.258,451.399c0,0-16.4-12.928-22.382-26.435c-2.315,10.227,13.12,36.66,13.12,36.66L39.258,451.399z"/>
<path fill="#533420" d="M201.081,434.558c-2.479,0-8.238-0.39-9.971-3.897l0.863-0.426c1.896,3.842,10.099,3.334,10.185,3.334
	l0.063,0.959C202.147,434.532,201.725,434.558,201.081,434.558z"/>
<path fill="#603814" d="M214.13,410.945c0,0-22.254,0.899-36.531-16.464c-5.595-5.211-8.875-4.116-17.751-1.286
	c-8.876,2.829-22.999,22.961-24.331,40.39c-1.33,17.428-85.26,10.159-95.809,16.27c-10.548,6.111-14.74,19.155-15.89,25.587
	c-1.148,6.432-18.501,40.004-17.985,43.864s20.46,8.312,16.602,3.938c-3.859-4.375,13.93-24.57,26.793-31.518
	c12.862-6.945,66.629,9.004,93.385,7.975c0.773,4.973-16.378,16.912-15.862,21.543c0.515,4.631,23.524,4.478,19.666-0.667
	c-3.859-5.145,15.491-23.707,17.549-28.593c2.057-4.889,18.008-18.008,22.895-63.179C196.637,427.668,214.13,410.945,214.13,410.945
	z"/>
<g>
	<path fill="#2D1306" d="M188.459,407.284c1.857,0.815,2.646,3.114,1.759,5.138c-0.887,2.018-3.109,2.996-4.965,2.184
		c-1.859-0.816-2.646-3.112-1.76-5.134C184.377,407.451,186.601,406.472,188.459,407.284z"/>
	<path fill="#FDFEFF" d="M185.965,407.447c1.121,0.489,1.599,1.879,1.063,3.104c-0.534,1.219-1.88,1.81-3.003,1.318
		c-1.121-0.49-1.599-1.881-1.063-3.102C183.498,407.547,184.843,406.955,185.965,407.447z"/>
</g>
<path fill="#391F0A" d="M206.878,410.806c2.378-0.801,10.563-0.259,10.604,1.063c0.039,1.326-5.537,5.491-6.93,5.335
	C209.161,417.052,205.268,411.077,206.878,410.806z"/>
<path fill="#409F91" d="M167.888,452.579c3.062,0.342,11.614,0.186,16.677-0.09c5.064-0.279,3.683-12.598,0.541-12.059
	c-0.516,1.223-0.942,4.062-0.942,4.062c-28.284,1.431-45.375-18.779-46.919-21.268c-1.541-2.499-7.863,2.586-5.62,6.331
	C133.863,433.305,141.591,449.643,167.888,452.579z"/>
<path fill="#46260F" d="M174.061,398.425c5.402-11.521-24.695-12.416-28.812,3.583c-4.117,16.001-9.262,58.396,12.21,65.82
	C178.435,472.385,168.658,409.944,174.061,398.425z"/>
<path fill="#A35318" d="M161.935,748.048c0,0-26.329,27.35-26.069,33.176c0.261,5.827-14.769-6.287-13.154-8.289
	c1.614-2.003,25.509-31.648,25.509-31.648L161.935,748.048z"/>
<path fill="#A35318" d="M50.022,752.446c0,0-30.382,23.187-31.013,28.983c-0.631,5.798-13.449-8.638-11.549-10.371
	c1.902-1.734,30.039-27.387,30.039-27.387L50.022,752.446z"/>
<path fill="#A35318" d="M214.827,676.019c0,0,1.092,27.72-29.778,27.14c-4.052-0.964,0-11.769,0-11.769L214.827,676.019z"/>
<path fill="#391F0A" d="M39.955,716.473c0,0-21.724-5.497-27.705-19.003c-2.315,10.227,18.443,29.229,18.443,29.229L39.955,716.473z
	"/>
<path fill="#533420" d="M201.778,699.631c-2.479,0-8.238-0.39-9.971-3.897l0.863-0.426c1.896,3.842,10.099,3.334,10.185,3.334
	l0.063,0.959C202.845,699.605,202.422,699.631,201.778,699.631z"/>
<path fill="#603814" d="M214.827,676.019c0,0-22.254,0.899-36.531-16.464c-5.595-5.211-8.875-4.116-17.751-1.286
	c-8.876,2.829-22.999,22.961-24.331,40.39c-1.33,17.428-85.26,10.159-95.809,16.27c-10.548,6.111-14.74,19.155-15.89,25.587
	c-1.148,6.432,1.225,41.752,1.74,45.612s21.867,4.375,18.009,0c-3.859-4.375-7.203-22.381,5.66-29.328
	c12.862-6.945,66.629,9.004,93.385,7.975c0.773,4.973,2.828,16.723,3.344,21.354c0.515,4.631,20.451,4.758,16.593-0.387
	c-3.859-5.145-0.642-23.797,1.416-28.684c2.057-4.889,18.008-18.008,22.895-63.179C197.334,692.741,214.827,676.019,214.827,676.019
	z"/>
<g>
	<path fill="#2D1306" d="M189.156,672.357c1.857,0.815,2.646,3.114,1.759,5.138c-0.887,2.018-3.109,2.996-4.965,2.184
		c-1.859-0.816-2.646-3.112-1.76-5.134C185.074,672.524,187.298,671.545,189.156,672.357z"/>
	<path fill="#FDFEFF" d="M186.662,672.521c1.121,0.489,1.599,1.879,1.063,3.104c-0.534,1.219-1.88,1.81-3.003,1.318
		c-1.121-0.49-1.599-1.881-1.063-3.102C184.195,672.62,185.54,672.028,186.662,672.521z"/>
</g>
<path fill="#391F0A" d="M207.575,675.879c2.378-0.801,10.563-0.259,10.604,1.063c0.039,1.326-5.537,5.491-6.93,5.335
	C209.858,682.125,205.965,676.15,207.575,675.879z"/>
<path fill="#409F91" d="M168.585,717.652c3.062,0.342,11.614,0.186,16.677-0.09c5.064-0.279,3.683-12.598,0.541-12.059
	c-0.516,1.223-0.942,4.062-0.942,4.062c-28.284,1.431-45.375-18.779-46.919-21.268c-1.541-2.499-7.863,2.586-5.62,6.331
	C134.561,698.378,142.288,714.716,168.585,717.652z"/>
<path fill="#46260F" d="M174.758,663.498c5.402-11.521-24.695-12.416-28.812,3.583c-4.117,16.001-9.262,58.396,12.21,65.82
	C179.132,737.458,169.355,675.018,174.758,663.498z"/>
<path fill="#A35318" d="M160.36,1016.404c0,0-26.369,27.312-26.118,33.138c0.252,5.827-14.759-6.308-13.142-8.309
	s25.555-31.61,25.555-31.61L160.36,1016.404z"/>
<path fill="#A35318" d="M54.876,1016.131c0,0-26.284,27.747-25.979,33.569c0.304,5.825-14.658-6.376-13.059-8.391
	c1.601-2.016,25.272-31.837,25.272-31.837L54.876,1016.131z"/>
<path fill="#A35318" d="M213.749,941.894c0,0,1.092,27.72-29.778,27.14c-4.052-0.964,0-11.769,0-11.769L213.749,941.894z"/>
<path fill="#391F0A" d="M38.877,982.348c0,0-16.4-12.928-22.382-26.435c-2.315,10.227,13.12,36.66,13.12,36.66L38.877,982.348z"/>
<path fill="#533420" d="M200.7,965.506c-2.479,0-8.238-0.39-9.971-3.897l0.863-0.426c1.896,3.842,10.099,3.334,10.185,3.334
	l0.063,0.959C201.767,965.481,201.344,965.506,200.7,965.506z"/>
<path fill="#603814" d="M213.749,941.894c0,0-22.254,0.899-36.531-16.464c-5.595-5.211-8.875-4.116-17.751-1.286
	c-8.876,2.829-22.999,22.961-24.331,40.39c-1.33,17.428-85.26,10.159-95.809,16.27c-10.548,6.111-15.926,29.015-17.075,35.447
	c-1.148,6.432,24.535,32.15,20.047,37.312c-2.555,2.938,26.818-0.841,22.96-5.216c-3.859-4.375-19.901-20.469-7.038-27.416
	c12.862-6.945,57.255,10.748,84.011,9.718c0.773,4.973,24.182,14.975,24.697,19.605c0.515,4.631,21.544,3.237,17.686-1.908
	c-3.859-5.145-23.088-20.528-21.03-25.415c2.057-4.889,18.008-18.008,22.895-63.179
	C196.256,958.617,213.749,941.894,213.749,941.894z"/>
<g>
	<path fill="#2D1306" d="M188.078,938.233c1.857,0.815,2.646,3.114,1.759,5.138c-0.887,2.018-3.109,2.996-4.965,2.184
		c-1.859-0.816-2.646-3.112-1.76-5.134C183.996,938.4,186.22,937.42,188.078,938.233z"/>
	<path fill="#FDFEFF" d="M185.584,938.396c1.121,0.489,1.599,1.879,1.063,3.104c-0.534,1.219-1.88,1.81-3.003,1.318
		c-1.121-0.49-1.599-1.881-1.063-3.102C183.117,938.496,184.462,937.904,185.584,938.396z"/>
</g>
<path fill="#391F0A" d="M206.497,941.754c2.378-0.801,10.563-0.259,10.604,1.063c0.039,1.326-5.537,5.491-6.93,5.335
	C208.78,948,204.887,942.026,206.497,941.754z"/>
<path fill="#409F91" d="M167.507,983.528c3.062,0.342,11.614,0.186,16.677-0.09c5.064-0.279,3.683-12.598,0.541-12.059
	c-0.516,1.223-0.942,4.062-0.942,4.062c-28.284,1.431-45.375-18.779-46.919-21.268c-1.541-2.499-7.863,2.586-5.62,6.331
	C133.482,964.253,141.21,980.591,167.507,983.528z"/>
<path fill="#46260F" d="M173.68,929.374c5.402-11.521-24.695-12.416-28.812,3.583c-4.117,16.001-9.262,58.396,12.21,65.82
	C178.054,1003.333,168.277,940.893,173.68,929.374z"/>
<path fill="#A35318" d="M173.873,1267.965c0,0-3.336,37.817,0.522,42.19c3.859,4.373-15.443,4.373-15.443,1.801s0-40.647,0-40.647
	L173.873,1267.965z"/>
<path fill="#A35318" d="M61.709,1269.768c0,0-3.336,38.073,0.522,42.444c3.859,4.373-15.444,4.119-15.444,1.547
	c0-2.574,0-40.649,0-40.649L61.709,1269.768z"/>
<path fill="#A35318" d="M213.749,1207.252c0,0,1.092,27.721-29.778,27.141c-4.052-0.965,0-11.77,0-11.77L213.749,1207.252z"/>
<path fill="#391F0A" d="M38.877,1247.707c0,0-9.768-15.332-15.75-28.84c-2.315,10.227,6.488,39.064,6.488,39.064L38.877,1247.707z"
	/>
<path fill="#533420" d="M200.7,1230.865c-2.479,0-8.238-0.391-9.971-3.898l0.863-0.426c1.896,3.842,10.099,3.334,10.185,3.334
	l0.063,0.959C201.767,1230.84,201.344,1230.865,200.7,1230.865z"/>
<path fill="#603814" d="M213.749,1207.252c0,0-22.254,0.9-36.531-16.463c-5.595-5.211-8.875-4.117-17.751-1.287
	s-22.999,22.961-24.331,40.391c-1.33,17.428-85.26,10.158-95.809,16.27c-10.548,6.111-14.74,19.154-15.89,25.586
	c-1.148,6.433,1.225,41.753,1.74,45.612s21.867,4.375,18.009,0c-3.859-4.375-7.203-22.381,5.66-29.328
	c12.862-6.945,66.629,9.004,93.385,7.975c0.773,4.973,2.828,16.723,3.344,21.354c0.515,4.631,20.451,4.758,16.593-0.387
	c-3.859-5.145-0.642-23.797,1.416-28.684c2.057-4.889,18.008-18.009,22.895-63.179
	C196.256,1223.975,213.749,1207.252,213.749,1207.252z"/>
<g>
	<path fill="#2D1306" d="M188.078,1203.592c1.857,0.814,2.646,3.113,1.759,5.137c-0.887,2.018-3.109,2.996-4.965,2.184
		c-1.859-0.816-2.646-3.111-1.76-5.133C183.996,1203.758,186.22,1202.779,188.078,1203.592z"/>
	<path fill="#FDFEFF" d="M185.584,1203.754c1.121,0.49,1.599,1.879,1.063,3.104c-0.534,1.219-1.88,1.811-3.003,1.318
		c-1.121-0.49-1.599-1.881-1.063-3.102C183.117,1203.854,184.462,1203.262,185.584,1203.754z"/>
</g>
<path fill="#391F0A" d="M206.497,1207.113c2.378-0.801,10.563-0.26,10.604,1.062c0.039,1.326-5.537,5.492-6.93,5.336
	C208.78,1213.359,204.887,1207.385,206.497,1207.113z"/>
<path fill="#409F91" d="M167.507,1248.887c3.062,0.342,11.614,0.186,16.677-0.09c5.064-0.279,3.683-12.598,0.541-12.059
	c-0.516,1.223-0.942,4.061-0.942,4.061c-28.284,1.432-45.375-18.779-46.919-21.268c-1.541-2.498-7.863,2.586-5.62,6.332
	C133.482,1229.611,141.21,1245.949,167.507,1248.887z"/>
<path fill="#46260F" d="M173.68,1194.732c5.402-11.521-24.695-12.416-28.812,3.582c-4.117,16.002-9.262,58.396,12.21,65.82
	C178.054,1268.691,168.277,1206.252,173.68,1194.732z"/>
<path fill="#A35318" d="M151.954,1532.842c0,0,19.257,32.717,24.938,34.035c5.682,1.316-10.029,12.531-11.523,10.438
	s-23.616-33.083-23.616-33.083L151.954,1532.842z"/>
<path fill="#A35318" d="M50.936,1531.275c0,0,14.58,35.329,20.019,37.431c5.44,2.104-11.81,10.771-12.994,8.489
	c-1.187-2.285-18.729-36.078-18.729-36.078L50.936,1531.275z"/>
<path fill="#A35318" d="M214.317,1469.383c0,0,1.092,27.719-29.778,27.139c-4.052-0.963,0-11.768,0-11.768L214.317,1469.383z"/>
<path fill="#391F0A" d="M39.445,1509.836c0,0-16.4-12.928-22.382-26.434c-2.315,10.227,13.12,36.66,13.12,36.66L39.445,1509.836z"/>
<path fill="#533420" d="M201.269,1492.994c-2.479,0-8.238-0.389-9.971-3.896l0.863-0.426c1.896,3.842,10.099,3.334,10.185,3.334
	l0.063,0.959C202.335,1492.969,201.912,1492.994,201.269,1492.994z"/>
<path fill="#603814" d="M214.317,1469.383c0,0-22.254,0.898-36.531-16.465c-5.595-5.211-8.875-4.115-17.751-1.285
	c-8.876,2.828-22.999,22.961-24.331,40.389c-1.33,17.428-85.26,10.16-95.809,16.27c-10.548,6.111-14.74,19.156-15.89,25.588
	c-1.148,6.432-18.501,40.004-17.985,43.863s20.46,8.312,16.602,3.938c-3.859-4.375,13.93-24.57,26.793-31.518
	c12.862-6.945,66.629,9.004,93.385,7.975c0.773,4.973-16.378,16.912-15.862,21.543c0.515,4.631,23.524,4.479,19.666-0.666
	c-3.859-5.145,15.491-23.707,17.549-28.594c2.057-4.889,18.008-18.008,22.895-63.18
	C196.824,1486.105,214.317,1469.383,214.317,1469.383z"/>
<g>
	<path fill="#2D1306" d="M188.646,1465.721c1.857,0.816,2.646,3.115,1.759,5.139c-0.887,2.018-3.109,2.996-4.965,2.184
		c-1.859-0.816-2.646-3.113-1.76-5.135C184.564,1465.889,186.788,1464.908,188.646,1465.721z"/>
	<path fill="#FDFEFF" d="M186.152,1465.885c1.121,0.488,1.599,1.879,1.063,3.104c-0.534,1.219-1.88,1.809-3.003,1.318
		c-1.121-0.49-1.599-1.881-1.063-3.102C183.686,1465.984,185.03,1465.393,186.152,1465.885z"/>
</g>
<path fill="#391F0A" d="M207.065,1469.242c2.378-0.801,10.563-0.258,10.604,1.064c0.039,1.326-5.537,5.49-6.93,5.334
	C209.349,1475.488,205.455,1469.514,207.065,1469.242z"/>
<path fill="#409F91" d="M168.075,1511.016c3.062,0.342,11.614,0.186,16.677-0.09c5.064-0.279,3.683-12.598,0.541-12.059
	c-0.516,1.223-0.942,4.062-0.942,4.062c-28.284,1.43-45.375-18.779-46.919-21.268c-1.541-2.5-7.863,2.586-5.62,6.33
	C134.051,1491.742,141.778,1508.08,168.075,1511.016z"/>
<path fill="#46260F" d="M174.248,1456.861c5.402-11.52-24.695-12.416-28.812,3.584c-4.117,16-9.262,58.396,12.21,65.82
	C178.622,1530.822,168.846,1468.381,174.248,1456.861z"/>
<path fill="#A35318" d="M167.498,1798.445c0,0-4.938,37.642-1.268,42.175c3.671,4.532-15.615,3.714-15.506,1.144
	c0.109-2.569,1.725-40.611,1.725-40.611L167.498,1798.445z"/>
<path fill="#A35318" d="M62.787,1797.568c0,0-4.185,37.99-0.424,42.445c3.761,4.459-15.532,3.774-15.475,1.203
	c0.057-2.574,0.905-40.64,0.905-40.64L62.787,1797.568z"/>
<path fill="#A35318" d="M214.317,1734.893c0,0,1.092,27.72-29.778,27.14c-4.052-0.964,0-11.769,0-11.769L214.317,1734.893z"/>
<path fill="#391F0A" d="M39.445,1775.347c0,0-20.214-3.335-26.195-16.842c-2.315,10.227,16.934,27.067,16.934,27.067
	L39.445,1775.347z"/>
<path fill="#533420" d="M201.269,1758.505c-2.479,0-8.238-0.39-9.971-3.897l0.863-0.426c1.896,3.842,10.099,3.334,10.185,3.334
	l0.063,0.959C202.335,1758.479,201.912,1758.505,201.269,1758.505z"/>
<path fill="#603814" d="M214.317,1734.893c0,0-22.254,0.899-36.531-16.464c-5.595-5.211-8.875-4.116-17.751-1.286
	c-8.876,2.829-22.999,22.961-24.331,40.39c-1.33,17.428-85.26,10.159-95.809,16.27c-10.548,6.111-14.74,19.155-15.89,25.587
	c-1.148,6.432-18.501,40.004-17.985,43.863s20.46,8.312,16.602,3.938c-3.859-4.375,13.93-24.57,26.793-31.518
	c12.862-6.945,66.629,9.004,93.385,7.975c0.773,4.973-16.378,16.912-15.862,21.543c0.515,4.631,23.524,4.479,19.666-0.666
	c-3.859-5.145,15.491-23.707,17.549-28.594c2.057-4.889,18.008-18.008,22.895-63.179
	C196.824,1751.615,214.317,1734.893,214.317,1734.893z"/>
<g>
	<path fill="#2D1306" d="M188.646,1731.231c1.857,0.815,2.646,3.114,1.759,5.138c-0.887,2.018-3.109,2.996-4.965,2.184
		c-1.859-0.816-2.646-3.112-1.76-5.134C184.564,1731.398,186.788,1730.419,188.646,1731.231z"/>
	<path fill="#FDFEFF" d="M186.152,1731.395c1.121,0.489,1.599,1.879,1.063,3.104c-0.534,1.219-1.88,1.81-3.003,1.318
		c-1.121-0.49-1.599-1.881-1.063-3.102C183.686,1731.494,185.03,1730.902,186.152,1731.395z"/>
</g>
<path fill="#391F0A" d="M207.065,1734.753c2.378-0.801,10.563-0.259,10.604,1.063c0.039,1.326-5.537,5.491-6.93,5.335
	C209.349,1740.999,205.455,1735.024,207.065,1734.753z"/>
<path fill="#409F91" d="M168.075,1776.526c3.062,0.342,11.614,0.186,16.677-0.09c5.064-0.279,3.683-12.598,0.541-12.059
	c-0.516,1.223-0.942,4.062-0.942,4.062c-28.284,1.431-45.375-18.779-46.919-21.268c-1.541-2.499-7.863,2.586-5.62,6.331
	C134.051,1757.252,141.778,1773.59,168.075,1776.526z"/>
<path fill="#46260F" d="M174.248,1722.372c5.402-11.521-24.695-12.416-28.812,3.583c-4.117,16.001-9.262,58.396,12.21,65.82
	C178.622,1796.332,168.846,1733.892,174.248,1722.372z"/>
<path fill="#A35318" d="M161.675,2068.945c0,0-26.329,27.351-26.069,33.177c0.261,5.826-14.769-6.287-13.154-8.289
	c1.614-2.004,25.509-31.648,25.509-31.648L161.675,2068.945z"/>
<path fill="#A35318" d="M49.763,2073.344c0,0-30.382,23.187-31.013,28.983c-0.631,5.798-13.449-8.639-11.549-10.371
	c1.902-1.734,30.039-27.387,30.039-27.387L49.763,2073.344z"/>
<path fill="#A35318" d="M214.567,1996.916c0,0,1.092,27.72-29.778,27.14c-4.052-0.964,0-11.769,0-11.769L214.567,1996.916z"/>
<path fill="#391F0A" d="M39.695,2037.37c0,0-16.4-12.928-22.382-26.435c-2.315,10.227,13.12,36.66,13.12,36.66L39.695,2037.37z"/>
<path fill="#533420" d="M201.519,2020.528c-2.479,0-8.238-0.39-9.971-3.897l0.863-0.426c1.896,3.842,10.099,3.334,10.185,3.334
	l0.063,0.959C202.585,2020.503,202.162,2020.528,201.519,2020.528z"/>
<path fill="#603814" d="M214.567,1996.916c0,0-22.254,0.899-36.531-16.464c-5.595-5.211-8.875-4.116-17.751-1.286
	c-8.876,2.829-22.999,22.961-24.331,40.39c-1.33,17.428-85.26,10.159-95.809,16.27c-10.548,6.111-14.74,19.155-15.89,25.587
	c-1.148,6.433,1.225,41.753,1.74,45.612s21.867,4.375,18.009,0c-3.859-4.375-7.203-22.381,5.66-29.328
	c12.862-6.945,66.629,9.004,93.385,7.975c0.773,4.973,2.828,16.723,3.344,21.354c0.515,4.631,20.451,4.758,16.593-0.387
	c-3.859-5.145-0.642-23.797,1.416-28.684c2.057-4.889,18.008-18.009,22.895-63.18
	C197.074,2013.639,214.567,1996.916,214.567,1996.916z"/>
<g>
	<path fill="#2D1306" d="M188.896,1993.255c1.857,0.815,2.646,3.114,1.759,5.138c-0.887,2.018-3.109,2.996-4.965,2.184
		c-1.859-0.816-2.646-3.112-1.76-5.134C184.814,1993.422,187.038,1992.442,188.896,1993.255z"/>
	<path fill="#FDFEFF" d="M186.402,1993.418c1.121,0.489,1.599,1.879,1.063,3.104c-0.534,1.219-1.88,1.81-3.003,1.318
		c-1.121-0.49-1.599-1.881-1.063-3.102C183.936,1993.518,185.28,1992.926,186.402,1993.418z"/>
</g>
<path fill="#391F0A" d="M207.315,1996.776c2.378-0.801,10.563-0.259,10.604,1.063c0.039,1.326-5.537,5.491-6.93,5.335
	C209.599,2003.022,205.705,1997.048,207.315,1996.776z"/>
<path fill="#409F91" d="M168.325,2038.55c3.062,0.342,11.614,0.186,16.677-0.09c5.064-0.279,3.683-12.598,0.541-12.059
	c-0.516,1.223-0.942,4.062-0.942,4.062c-28.284,1.431-45.375-18.779-46.919-21.268c-1.541-2.499-7.863,2.586-5.62,6.331
	C134.301,2019.275,142.028,2035.613,168.325,2038.55z"/>
<path fill="#46260F" d="M174.498,1984.396c5.402-11.521-24.695-12.416-28.812,3.583c-4.117,16.001-9.262,58.396,12.21,65.82
	C178.872,2058.355,169.096,1995.915,174.498,1984.396z"/>
<path fill="#A35318" d="M160.101,2337.302c0,0-26.369,27.311-26.118,33.138c0.252,5.827-14.759-6.308-13.142-8.309
	s25.555-31.61,25.555-31.61L160.101,2337.302z"/>
<path fill="#A35318" d="M54.616,2337.028c0,0-26.284,27.747-25.979,33.569c0.304,5.825-14.658-6.376-13.059-8.391
	c1.601-2.017,25.272-31.837,25.272-31.837L54.616,2337.028z"/>
<path fill="#A35318" d="M213.489,2262.792c0,0,1.092,27.719-29.778,27.139c-4.052-0.963,0-11.768,0-11.768L213.489,2262.792z"/>
<path fill="#391F0A" d="M38.617,2303.245c0,0-16.4-12.928-22.382-26.434c-2.315,10.227,13.12,36.66,13.12,36.66L38.617,2303.245z"/>
<path fill="#533420" d="M200.44,2286.403c-2.479,0-8.238-0.389-9.971-3.896l0.863-0.426c1.896,3.842,10.099,3.334,10.185,3.334
	l0.063,0.959C201.507,2286.378,201.084,2286.403,200.44,2286.403z"/>
<path fill="#603814" d="M213.489,2262.792c0,0-22.254,0.898-36.531-16.465c-5.595-5.211-8.875-4.115-17.751-1.285
	c-8.876,2.828-22.999,22.961-24.331,40.389c-1.33,17.428-85.26,10.16-95.809,16.27c-10.548,6.111-15.926,29.016-17.075,35.447
	c-1.148,6.432,24.535,32.15,20.047,37.312c-2.555,2.938,26.818-0.842,22.96-5.217c-3.859-4.375-19.901-20.469-7.038-27.416
	c12.862-6.945,57.255,10.748,84.011,9.719c0.773,4.973,24.182,14.975,24.697,19.605c0.515,4.631,21.544,3.236,17.686-1.908
	c-3.859-5.145-23.088-20.527-21.03-25.414c2.057-4.889,18.008-18.008,22.895-63.18
	C195.996,2279.515,213.489,2262.792,213.489,2262.792z"/>
<g>
	<path fill="#2D1306" d="M187.818,2259.13c1.857,0.816,2.646,3.115,1.759,5.139c-0.887,2.018-3.109,2.996-4.965,2.184
		c-1.859-0.816-2.646-3.113-1.76-5.135C183.736,2259.298,185.96,2258.317,187.818,2259.13z"/>
	<path fill="#FDFEFF" d="M185.324,2259.294c1.121,0.488,1.599,1.879,1.063,3.104c-0.534,1.219-1.88,1.809-3.003,1.318
		c-1.121-0.49-1.599-1.881-1.063-3.102C182.857,2259.394,184.202,2258.802,185.324,2259.294z"/>
</g>
<path fill="#391F0A" d="M206.237,2262.651c2.378-0.801,10.563-0.258,10.604,1.064c0.039,1.326-5.537,5.49-6.93,5.334
	C208.521,2268.897,204.627,2262.923,206.237,2262.651z"/>
<path fill="#409F91" d="M167.247,2304.425c3.062,0.342,11.614,0.186,16.677-0.09c5.064-0.279,3.683-12.598,0.541-12.059
	c-0.516,1.223-0.942,4.062-0.942,4.062c-28.284,1.43-45.375-18.779-46.919-21.268c-1.541-2.5-7.863,2.586-5.62,6.33
	C133.223,2285.151,140.95,2301.489,167.247,2304.425z"/>
<path fill="#46260F" d="M173.42,2250.271c5.402-11.52-24.695-12.416-28.812,3.584c-4.117,16-9.262,58.396,12.21,65.82
	C177.794,2324.231,168.018,2261.79,173.42,2250.271z"/>
</svg>
