<?xml version="1.0" encoding="utf-8"?>
<!-- Generator: Adobe Illustrator 16.0.0, SVG Export Plug-In . SVG Version: 6.00 Build 0)  -->
<!DOCTYPE svg PUBLIC "-//W3C//DTD SVG 1.1//EN" "http://www.w3.org/Graphics/SVG/1.1/DTD/svg11.dtd">
<svg version="1.1" id="Layer_2" xmlns="http://www.w3.org/2000/svg" xmlns:xlink="http://www.w3.org/1999/xlink" x="0px" y="0px"
	 width="1200.5px" height="348.582px" viewBox="0 0 1200.5 348.582" enable-background="new 0 0 1200.5 348.582"
	 xml:space="preserve">
<g>
	<ellipse opacity="0.2" fill="#414042" cx="339.859" cy="229.597" rx="20.684" ry="6.63"/>
	<g>
		<rect x="322.831" y="228.823" fill="#533114" width="39.594" height="3.038"/>
		<rect x="338.441" y="187.277" fill="#533114" width="9.682" height="3.036"/>
		<polygon fill="#704C33" points="359.821,228.823 326.085,228.823 338.451,190.313 348.105,190.313 		"/>
		<rect x="340.078" y="69.092" fill="#704C33" width="6.02" height="119.107"/>
		<path fill="#533114" d="M352.831,65.31c-2.193,2.711-6.039,4.597-9.797,4.597c-3.302,0-8.053-2.433-10.217-4.597
			C340.5,65.31,340.366,65.31,352.831,65.31z"/>
		<path fill="#704C33" d="M327.63,40.28c4.502,0,7.403-13.438,15.458-13.438s10.329,13.438,15.264,13.438
			C352.441,40.28,330.071,40.28,327.63,40.28z"/>
		<path fill="#533114" d="M344.526,27.438c0,0.869-0.704,1.573-1.572,1.573l0,0c-0.869,0-1.573-0.704-1.573-1.573V12.631
			c0-0.869,0.704-1.573,1.573-1.573l0,0c0.869,0,1.572,0.704,1.572,1.573V27.438z"/>
		<path fill="#533114" d="M347.102,26.949c0,1.139-0.922,2.061-2.062,2.061h-4.121c-1.138,0-2.062-0.922-2.062-2.061l0,0
			c0-1.138,0.923-2.06,2.062-2.06h4.121C346.18,24.89,347.102,25.812,347.102,26.949L347.102,26.949z"/>
		<g>
			<polygon fill="#E7E4D4" points="329.286,42.299 333.873,64.047 351.788,64.065 356.838,41.785 			"/>
			<path fill="#533114" d="M352.827,65.369l-20.009-0.021l-5.13-24.32l30.787-0.574L352.827,65.369z M334.929,62.746l15.82,0.016
				l4.453-19.646l-24.317,0.455L334.929,62.746z"/>
		</g>
		<path fill="#533114" d="M359.727,41.812c0,0.845-0.687,1.532-1.532,1.532h-30.401c-0.846,0-1.532-0.687-1.532-1.532l0,0
			c0-0.847,0.686-1.532,1.532-1.532h30.401C359.04,40.28,359.727,40.965,359.727,41.812L359.727,41.812z"/>
		<path fill="#533114" d="M349.678,188.49c0,1.008-0.816,1.823-1.824,1.823h-9.185c-1.008,0-1.825-0.815-1.825-1.823l0,0
			c0-1.007,0.816-1.823,1.825-1.823h9.185C348.862,186.667,349.678,187.483,349.678,188.49L349.678,188.49z"/>
		<path fill="#533114" d="M363.793,230.077c0,1.158-0.938,2.095-2.095,2.095h-37.627c-1.157,0-2.095-0.937-2.095-2.095l0,0
			c0-1.156,0.938-2.095,2.095-2.095h37.627C362.855,227.982,363.793,228.921,363.793,230.077L363.793,230.077z"/>
		<g>
			<line fill="#E7E4D4" x1="342.994" y1="41.812" x2="342.994" y2="64.428"/>
			<rect x="341.692" y="41.812" fill="#533114" width="2.603" height="22.616"/>
		</g>
	</g>
</g>
<g>
	<ellipse opacity="0.2" fill="#414042" cx="29.123" cy="230.471" rx="20.684" ry="6.63"/>
	<g>
		<rect x="12.094" y="229.697" fill="#533114" width="39.594" height="3.038"/>
		<rect x="27.704" y="188.151" fill="#533114" width="9.682" height="3.036"/>
		<polygon fill="#704C33" points="49.084,229.697 15.348,229.697 27.714,191.188 37.368,191.188 		"/>
		<rect x="29.341" y="69.967" fill="#704C33" width="6.02" height="119.106"/>
		<path fill="#533114" d="M42.094,66.184c-2.193,2.711-6.039,4.597-9.797,4.597c-3.302,0-8.053-2.433-10.217-4.597
			C29.763,66.184,29.629,66.184,42.094,66.184z"/>
		<path fill="#704C33" d="M16.894,41.154c4.502,0,7.403-13.438,15.458-13.438s10.329,13.438,15.264,13.438
			C41.704,41.154,19.334,41.154,16.894,41.154z"/>
		<path fill="#533114" d="M33.789,28.312c0,0.869-0.704,1.573-1.572,1.573l0,0c-0.869,0-1.573-0.704-1.573-1.573V13.505
			c0-0.869,0.704-1.573,1.573-1.573l0,0c0.869,0,1.572,0.704,1.572,1.573V28.312z"/>
		<path fill="#533114" d="M36.365,27.823c0,1.14-0.922,2.062-2.062,2.062h-4.121c-1.138,0-2.062-0.922-2.062-2.062l0,0
			c0-1.138,0.923-2.06,2.062-2.06h4.121C35.443,25.764,36.365,26.686,36.365,27.823L36.365,27.823z"/>
		<g>
			<polygon fill="#E7E4D4" points="18.549,43.174 23.136,64.921 41.051,64.939 46.101,42.659 			"/>
			<path fill="#533114" d="M42.09,66.242l-20.009-0.021l-5.13-24.319l30.787-0.574L42.09,66.242z M24.192,63.62l15.82,0.017
				l4.453-19.646l-24.317,0.455L24.192,63.62z"/>
		</g>
		<path fill="#533114" d="M48.99,42.686c0,0.846-0.687,1.531-1.532,1.531H17.056c-0.846,0-1.532-0.686-1.532-1.531l0,0
			c0-0.847,0.686-1.531,1.532-1.531h30.401C48.303,41.154,48.99,41.839,48.99,42.686L48.99,42.686z"/>
		<path fill="#533114" d="M38.941,189.364c0,1.008-0.816,1.823-1.824,1.823h-9.185c-1.008,0-1.825-0.815-1.825-1.823l0,0
			c0-1.007,0.816-1.823,1.825-1.823h9.185C38.125,187.541,38.941,188.357,38.941,189.364L38.941,189.364z"/>
		<path fill="#533114" d="M53.057,230.951c0,1.158-0.938,2.095-2.095,2.095H13.334c-1.157,0-2.095-0.937-2.095-2.095l0,0
			c0-1.156,0.938-2.095,2.095-2.095h37.627C52.119,228.856,53.057,229.795,53.057,230.951L53.057,230.951z"/>
		<g>
			<line fill="#E7E4D4" x1="32.257" y1="42.686" x2="32.257" y2="65.302"/>
			<rect x="30.956" y="42.686" fill="#533114" width="2.603" height="22.616"/>
		</g>
	</g>
</g>
<g>
	<ellipse opacity="0.2" fill="#414042" cx="661.348" cy="229.597" rx="20.684" ry="6.63"/>
	<g>
		<rect x="644.319" y="228.823" fill="#533114" width="39.594" height="3.038"/>
		<rect x="659.93" y="187.277" fill="#533114" width="9.682" height="3.036"/>
		<polygon fill="#704C33" points="681.31,228.823 647.574,228.823 659.939,190.313 669.594,190.313 		"/>
		<rect x="661.566" y="69.093" fill="#704C33" width="6.021" height="119.106"/>
		<path fill="#533114" d="M674.32,65.31c-2.193,2.711-6.039,4.597-9.797,4.597c-3.303,0-8.054-2.433-10.217-4.597
			C661.988,65.31,661.854,65.31,674.32,65.31z"/>
		<path fill="#704C33" d="M649.119,40.28c4.502,0,7.403-13.438,15.458-13.438s10.329,13.438,15.265,13.438
			C673.93,40.28,651.561,40.28,649.119,40.28z"/>
		<path fill="#533114" d="M666.015,27.438c0,0.869-0.704,1.573-1.572,1.573l0,0c-0.869,0-1.573-0.704-1.573-1.573V12.631
			c0-0.869,0.704-1.573,1.573-1.573l0,0c0.868,0,1.572,0.704,1.572,1.573V27.438z"/>
		<path fill="#533114" d="M668.591,26.949c0,1.14-0.923,2.062-2.062,2.062h-4.121c-1.138,0-2.061-0.922-2.061-2.062l0,0
			c0-1.138,0.923-2.06,2.061-2.06h4.121C667.668,24.89,668.591,25.812,668.591,26.949L668.591,26.949z"/>
		<g>
			<polygon fill="#E7E4D4" points="650.774,42.3 655.361,64.047 673.276,64.065 678.326,41.785 			"/>
			<path fill="#533114" d="M674.315,65.368l-20.009-0.021l-5.131-24.319l30.787-0.574L674.315,65.368z M656.418,62.746l15.82,0.017
				l4.452-19.646l-24.317,0.455L656.418,62.746z"/>
		</g>
		<path fill="#533114" d="M681.215,41.812c0,0.846-0.686,1.531-1.531,1.531h-30.402c-0.846,0-1.531-0.686-1.531-1.531l0,0
			c0-0.847,0.686-1.531,1.531-1.531h30.402C680.529,40.28,681.215,40.965,681.215,41.812L681.215,41.812z"/>
		<path fill="#533114" d="M671.166,188.49c0,1.008-0.815,1.823-1.823,1.823h-9.185c-1.009,0-1.825-0.815-1.825-1.823l0,0
			c0-1.007,0.816-1.823,1.825-1.823h9.185C670.351,186.667,671.166,187.483,671.166,188.49L671.166,188.49z"/>
		<path fill="#533114" d="M685.282,230.077c0,1.158-0.938,2.095-2.095,2.095h-37.627c-1.157,0-2.096-0.937-2.096-2.095l0,0
			c0-1.156,0.938-2.095,2.096-2.095h37.627C684.344,227.982,685.282,228.921,685.282,230.077L685.282,230.077z"/>
		<g>
			<line fill="#E7E4D4" x1="664.482" y1="41.812" x2="664.482" y2="64.428"/>
			<rect x="663.182" y="41.812" fill="#533114" width="2.603" height="22.616"/>
		</g>
	</g>
</g>
<g>
	<ellipse opacity="0.2" fill="#414042" cx="953.325" cy="229.597" rx="20.684" ry="6.63"/>
	<g>
		<rect x="936.296" y="228.823" fill="#533114" width="39.594" height="3.038"/>
		<rect x="951.906" y="187.277" fill="#533114" width="9.682" height="3.036"/>
		<polygon fill="#704C33" points="973.286,228.823 939.551,228.823 951.916,190.313 961.57,190.313 		"/>
		<rect x="953.543" y="69.093" fill="#704C33" width="6.021" height="119.106"/>
		<path fill="#533114" d="M966.297,65.31c-2.193,2.711-6.039,4.597-9.797,4.597c-3.303,0-8.054-2.433-10.217-4.597
			C953.965,65.31,953.831,65.31,966.297,65.31z"/>
		<path fill="#704C33" d="M941.096,40.28c4.502,0,7.403-13.438,15.458-13.438s10.329,13.438,15.265,13.438
			C965.906,40.28,943.537,40.28,941.096,40.28z"/>
		<path fill="#533114" d="M957.991,27.438c0,0.869-0.704,1.573-1.572,1.573l0,0c-0.869,0-1.573-0.704-1.573-1.573V12.631
			c0-0.869,0.704-1.573,1.573-1.573l0,0c0.868,0,1.572,0.704,1.572,1.573V27.438z"/>
		<path fill="#533114" d="M960.567,26.949c0,1.14-0.923,2.062-2.062,2.062h-4.121c-1.138,0-2.061-0.922-2.061-2.062l0,0
			c0-1.138,0.923-2.06,2.061-2.06h4.121C959.645,24.89,960.567,25.812,960.567,26.949L960.567,26.949z"/>
		<g>
			<polygon fill="#E7E4D4" points="942.751,42.3 947.338,64.047 965.253,64.065 970.303,41.785 			"/>
			<path fill="#533114" d="M966.292,65.368l-20.009-0.021l-5.131-24.319l30.787-0.574L966.292,65.368z M948.395,62.746l15.82,0.017
				l4.452-19.646l-24.317,0.455L948.395,62.746z"/>
		</g>
		<path fill="#533114" d="M973.191,41.812c0,0.846-0.686,1.531-1.531,1.531h-30.402c-0.846,0-1.531-0.686-1.531-1.531l0,0
			c0-0.847,0.686-1.531,1.531-1.531h30.402C972.506,40.28,973.191,40.965,973.191,41.812L973.191,41.812z"/>
		<path fill="#533114" d="M963.143,188.49c0,1.008-0.815,1.823-1.823,1.823h-9.185c-1.009,0-1.825-0.815-1.825-1.823l0,0
			c0-1.007,0.816-1.823,1.825-1.823h9.185C962.327,186.667,963.143,187.483,963.143,188.49L963.143,188.49z"/>
		<path fill="#533114" d="M977.259,230.077c0,1.158-0.938,2.095-2.095,2.095h-37.627c-1.157,0-2.096-0.937-2.096-2.095l0,0
			c0-1.156,0.938-2.095,2.096-2.095h37.627C976.32,227.982,977.259,228.921,977.259,230.077L977.259,230.077z"/>
		<g>
			<line fill="#E7E4D4" x1="956.459" y1="41.812" x2="956.459" y2="64.428"/>
			<rect x="955.158" y="41.812" fill="#533114" width="2.603" height="22.616"/>
		</g>
	</g>
</g>
<g>
	<g>
		<polygon opacity="0.2" fill="#414042" points="601.289,242.67 404.664,242.67 414.688,229.79 591.265,229.79 		"/>
		<path fill="#3C2415" d="M588.459,185.009h-4.774v-32.502h-3.732v30.519h-0.126v1.983h-152.1v-1.983v-30.519h-3.731v30.519v1.983
			h-4.666l-9.332,7.932v4.472h5.599v42.574h3.733v-6.479l4.666-5.979v3.262h3.731v-33.378h152.1v33.252h0.126v0.126h3.732v-3.228
			l4.54,5.818v6.48h3.731v-42.449h5.833v-4.472L588.459,185.009z M423.996,221.459l-4.666,5.979v-30.026h4.666V221.459z
			 M588.226,227.313l-4.54-5.819v-24.082h4.54V227.313z"/>
		<g>
			<rect x="408.663" y="192.28" fill="#EFF0F0" width="189.127" height="7.618"/>
			<g>
				<rect x="419.33" y="144.574" fill="#EFF0F0" width="169.129" height="7.932"/>
				<rect x="419.33" y="154.618" fill="#EFF0F0" width="169.129" height="7.932"/>
				<rect x="419.33" y="164.929" fill="#EFF0F0" width="169.129" height="7.932"/>
				<rect x="419.33" y="175.094" fill="#EFF0F0" width="169.129" height="7.932"/>
			</g>
		</g>
	</g>
	<polygon fill="#CFD1D2" points="597.79,192.28 408.663,192.28 417.712,184.663 587.557,184.663 	"/>
</g>
</svg>
