<?xml version="1.0" encoding="utf-8"?>
<!-- Generator: Adobe Illustrator 16.0.0, SVG Export Plug-In . SVG Version: 6.00 Build 0)  -->
<!DOCTYPE svg PUBLIC "-//W3C//DTD SVG 1.1//EN" "http://www.w3.org/Graphics/SVG/1.1/DTD/svg11.dtd">
<svg version="1.1" id="Layer_4" xmlns="http://www.w3.org/2000/svg" xmlns:xlink="http://www.w3.org/1999/xlink" x="0px" y="0px"
	 width="1203px" height="348.582px" viewBox="0 0 1203 348.582" enable-background="new 0 0 1203 348.582" xml:space="preserve">
<path fill="#B4B92D" d="M369.646,200.059h-904.391c0,0,213.992-111.312,463.732-111.312S369.646,200.059,369.646,200.059z"/>
<path fill="#B4B92D" d="M1585.277,201.14H680.887c0,0,213.992-111.312,463.732-111.312S1585.277,201.14,1585.277,201.14z"/>
<path fill="#C7CB36" d="M1095.576,210.952H301.21c0,0,177.825-118.509,397.183-118.509S1095.576,210.952,1095.576,210.952z"/>
<rect x="-17.336" y="180.124" fill="#996F53" width="1292.001" height="30.828"/>
<path fill="#318B8F" d="M196.657,129.308c-55.74,5.071-121.488,38.566-145.193,70.751l58.75,0.239
	c20.006-27.022,49.676-51.053,100.543-66.641C203.622,131.377,204.188,131.529,196.657,129.308z"/>
<path fill="none" stroke="#DBA463" stroke-miterlimit="10" d="M1387-156"/>
<path fill="#C7CB36" d="M680.812,133.618c-211.196,3.943-379.601,77.334-379.601,77.334h249.374
	c10.473-11.135,22.859-21.952,37.371-32.596C613.863,160.301,644.833,145.649,680.812,133.618z"/>
<path fill="#754C29" d="M950.625,140.494c-68.598-25.457-156.453-48.051-252.231-48.051c-5.893,0-11.751,0.102-17.582,0.27
	c-35.979,18.395-66.948,40.798-92.856,68.401c-14.512,16.274-26.898,32.813-37.371,49.838h335.238
	C899.664,183.302,917.09,156.609,950.625,140.494z"/>
<path fill="#C7CB36" d="M950.625,140.494c-33.535,16.115-50.961,42.809-64.803,70.458h209.754
	C1095.576,210.952,1039.135,173.339,950.625,140.494z"/>
<g>
	<defs>
		<path id="SVGID_1_" d="M950.625,140.494c-68.598-25.457-156.453-48.051-252.231-48.051c-5.893,0-11.751,0.102-17.582,0.27
			c-35.979,18.395-66.948,40.798-92.856,68.401c-14.512,16.274-26.898,32.813-37.371,49.838h335.238
			C899.664,183.302,917.09,156.609,950.625,140.494z"/>
	</defs>
	<clipPath id="SVGID_2_">
		<use xlink:href="#SVGID_1_"  overflow="visible"/>
	</clipPath>
	<g clip-path="url(#SVGID_2_)">
		<path opacity="0.08" fill="#FFFFFF" d="M928.25,132.556c0,0-2.562,0.971-6.742,3.123c-2.068,1.093-4.547,2.439-7.275,4.087
			c-2.711,1.662-5.691,3.595-8.766,5.83c-3.068,2.236-6.297,4.721-9.422,7.521c-1.611,1.369-3.122,2.865-4.734,4.339
			c-1.51,1.54-3.128,3.059-4.591,4.706c-0.742,0.816-1.493,1.639-2.245,2.466c-0.712,0.847-1.43,1.7-2.148,2.562
			c-1.463,1.703-2.799,3.494-4.195,5.266c-1.353,1.796-2.619,3.647-3.899,5.49c-1.162,1.895-2.452,3.743-3.515,5.673
			c-2.207,3.834-4.092,7.763-5.588,11.706c-0.777,1.964-1.511,3.912-2.185,5.854c-0.654,1.942-1.472,3.814-2.106,5.701
			c-0.678,1.877-1.515,3.683-2.201,5.488c-0.695,1.803-1.457,3.554-2.229,5.261c-0.66,1.728-1.375,3.401-2.04,5.032
			c-0.352,0.811-0.73,1.604-1.044,2.396c-0.293,0.795-0.613,1.572-0.928,2.332c-1.299,3.068-2.487,5.881-3.541,8.373
			c-1.139,2.527-2.129,4.732-2.946,6.547c-0.853,1.827-1.568,3.274-2.107,4.262c-0.525,0.987-0.848,1.517-0.848,1.517l-1.831-0.072
			c0,0-0.217-0.55-0.543-1.588c-0.34-1.035-0.764-2.557-1.248-4.505c-0.51-1.949-0.889-4.319-1.152-7.046
			c-0.153-1.365-0.277-2.819-0.357-4.354c-0.01-1.531-0.02-3.145,0.037-4.828c-0.008-3.377,0.561-7.005,1.16-10.85
			c0.404-1.911,0.85-3.877,1.387-5.871c0.499-2.002,1.334-3.999,2.105-6.036c0.771-2.04,1.836-4.059,2.939-6.084
			c1.015-2.05,2.363-4.041,3.648-6.058c1.244-2.028,2.697-4.013,4.1-6.01c1.379-2.006,2.896-3.975,4.375-5.947
			c1.445-1.985,3.121-3.884,4.664-5.814c1.661-1.881,3.307-3.759,5.031-5.571c1.783-1.789,3.45-3.606,5.357-5.269
			c0.928-0.842,1.85-1.676,2.767-2.508c0.956-0.804,1.905-1.603,2.848-2.395c3.804-3.14,7.655-6.048,11.567-8.597
			c3.854-2.588,7.734-4.829,11.375-6.811c3.639-1.988,7.182-3.596,10.318-4.984c3.158-1.375,6.006-2.444,8.381-3.271
			c4.754-1.636,7.664-2.306,7.664-2.306L928.25,132.556z"/>
		<path opacity="0.08" fill="#FFFFFF" d="M887.996,119.74c0,0-2.546,1.454-6.671,4.34c-2.048,1.447-4.513,3.216-7.221,5.329
			c-2.728,2.094-5.671,4.551-8.784,7.274c-3.143,2.702-6.33,5.766-9.606,9.032c-3.199,3.314-6.555,6.801-9.692,10.565
			c-1.629,1.851-3.104,3.818-4.691,5.756c-1.448,2.004-3.066,3.958-4.493,6.012c-1.446,2.047-2.927,4.095-4.252,6.213l-2.039,3.16
			l-1.899,3.211c-2.535,4.278-4.618,8.692-6.467,13.064c-1.738,4.383-3.447,8.698-5.102,12.87c-1.655,4.161-3.432,8.148-5.047,11.97
			c-0.406,0.956-0.813,1.896-1.246,2.822c-0.371,0.935-0.738,1.855-1.099,2.762c-0.77,1.812-1.513,3.565-2.228,5.247
			c-1.273,3.398-2.773,6.5-3.824,9.303c-1.098,2.796-2.308,5.234-3.102,7.274c-0.877,2.033-1.609,3.64-2.162,4.737
			c-0.537,1.1-0.865,1.688-0.865,1.688l-1.832-0.072c0,0-0.209-0.611-0.524-1.76c-0.329-1.15-0.731-2.839-1.192-5.001
			c-0.503-2.164-0.734-4.787-0.984-7.817c-0.316-3.034-0.176-6.437-0.021-10.176c0.07-1.867,0.405-3.79,0.625-5.801
			c0.148-1.002,0.297-2.019,0.451-3.054c0.195-1.028,0.431-2.069,0.674-3.126c0.846-4.24,2.256-8.652,4.123-13.122
			c1.029-2.214,2.037-4.477,3.32-6.693c1.275-2.222,2.594-4.457,4.051-6.667c2.924-4.418,6.006-8.844,9.276-13.182l2.448-3.253
			l2.578-3.185c1.686-2.132,3.523-4.183,5.32-6.226c1.787-2.045,3.711-4.006,5.576-5.947c1.98-1.889,3.836-3.8,5.838-5.584
			c3.896-3.621,7.889-6.98,11.805-10.063c3.973-3.049,7.789-5.87,11.494-8.334c3.666-2.489,7.182-4.642,10.352-6.487
			c3.153-1.863,6.011-3.382,8.4-4.594c4.766-2.417,7.697-3.609,7.697-3.609L887.996,119.74z"/>
		<path opacity="0.08" fill="#FFFFFF" d="M850.603,111.509c0,0-0.202,0.052-0.594,0.155c-0.376,0.108-0.972,0.273-1.718,0.521
			c-1.496,0.488-3.678,1.266-6.307,2.443c-2.63,1.176-5.731,2.707-9.109,4.632c-3.361,1.946-6.945,4.322-10.664,7.041
			c-3.704,2.736-7.426,5.901-11.152,9.357c-3.611,3.535-7.355,7.279-10.764,11.397c-1.788,2.012-3.358,4.188-5.077,6.306
			c-1.561,2.205-3.265,4.369-4.804,6.632c-3.092,4.52-6.051,9.176-8.68,13.947c-1.289,2.392-2.664,4.751-3.733,7.202
			c-1.133,2.43-2.302,4.829-3.25,7.275c-0.977,2.438-2.032,4.818-2.947,7.215c-0.905,2.398-1.913,4.73-2.919,7.025
			c-1.883,4.628-4.062,9.017-6.007,13.235c-2.049,4.191-3.883,8.197-5.728,11.88c-1.893,3.671-3.465,7.088-5.092,10.088
			c-1.628,3.011-3.047,5.639-4.217,7.8c-1.232,2.162-2.242,3.865-2.983,5.018c-0.729,1.157-1.159,1.772-1.159,1.772l-1.806-0.229
			c0,0-0.101-0.682-0.215-1.954c-0.126-1.274-0.235-3.135-0.319-5.508c-0.071-2.369-0.105-5.246,0.186-8.516
			c0.28-3.269,0.502-6.983,1.284-10.97c0.327-2.004,0.771-4.077,1.183-6.234c0.459-2.147,1.068-4.353,1.706-6.614
			c1.159-4.551,2.945-9.265,4.996-14.086c2.251-4.785,4.909-9.645,8.017-14.466c1.454-2.432,3.131-4.831,4.734-7.251
			c1.592-2.422,3.264-4.836,4.974-7.229c3.339-4.813,7.022-9.513,10.827-14.047c1.904-2.265,3.93-4.46,5.918-6.622
			c2.137-2.1,4.102-4.232,6.288-6.21c1.075-0.995,2.142-1.979,3.196-2.959c1.077-0.966,2.2-1.892,3.277-2.821
			c2.119-1.882,4.435-3.585,6.592-5.282c4.497-3.294,8.924-6.264,13.256-8.789c4.344-2.519,8.551-4.601,12.39-6.302
			c3.863-1.674,7.376-2.944,10.339-3.86c5.914-1.846,9.639-2.3,9.639-2.3L850.603,111.509z"/>
		<path opacity="0.08" fill="#FFFFFF" d="M807.002,102.221c0,0-0.227,0.06-0.666,0.177c-0.424,0.122-1.087,0.309-1.922,0.588
			c-1.678,0.547-4.112,1.422-7.053,2.742c-2.934,1.325-6.41,3.033-10.186,5.192c-3.754,2.183-7.785,4.826-11.916,7.896
			c-4.1,3.097-8.24,6.658-12.352,10.563c-3.973,3.993-8.139,8.197-11.863,12.849c-0.48,0.574-0.963,1.148-1.445,1.725
			c-0.455,0.593-0.908,1.188-1.365,1.786c-0.912,1.19-1.832,2.392-2.756,3.598c-1.717,2.475-3.553,4.931-5.238,7.476
			c-3.353,5.096-6.551,10.345-9.369,15.718c-1.375,2.697-2.859,5.354-3.991,8.112c-1.204,2.733-2.46,5.429-3.456,8.179
			c-2.17,5.445-4.046,10.857-6.146,16.025c-1.927,5.218-4.169,10.178-6.122,14.948c-2.037,4.766-3.964,9.273-5.744,13.435
			c-1.898,4.159-3.428,8.026-5.039,11.424c-1.604,3.413-3,6.391-4.15,8.839c-1.18,2.459-2.189,4.386-2.91,5.699
			c-0.713,1.315-1.134,2.014-1.134,2.014l-1.816-0.191c0,0-0.11-0.755-0.242-2.169c-0.138-1.413-0.294-3.482-0.388-6.115
			c-0.035-1.314-0.074-2.773-0.119-4.361c-0.014-1.586,0.092-3.291,0.189-5.116c0.254-3.644,0.425-7.778,1.203-12.233
			c0.316-2.236,0.753-4.554,1.16-6.962c0.449-2.398,1.07-4.866,1.711-7.399c1.156-5.089,2.998-10.374,5.088-15.793
			c1.211-2.676,2.424-5.404,3.801-8.128c0.648-1.368,1.364-2.734,2.164-4.087c0.773-1.356,1.55-2.722,2.331-4.09
			c1.503-2.748,3.271-5.458,4.946-8.193c1.657-2.737,3.438-5.459,5.237-8.167c3.532-5.436,7.456-10.744,11.524-15.872
			c2.055-2.556,4.212-5.05,6.363-7.489c1.131-1.198,2.256-2.389,3.372-3.571c0.557-0.59,1.112-1.176,1.667-1.762
			c0.584-0.571,1.168-1.141,1.747-1.705c1.161-1.129,2.313-2.248,3.453-3.357c1.201-1.076,2.39-2.144,3.563-3.199
			c2.295-2.136,4.834-4.064,7.186-5.991c4.91-3.738,9.783-7.097,14.533-9.975c4.784-2.853,9.385-5.259,13.614-7.208
			c4.244-1.937,8.126-3.396,11.403-4.458c6.538-2.14,10.668-2.695,10.668-2.695L807.002,102.221z"/>
		<path opacity="0.08" fill="#FFFFFF" d="M763.137,95.654c0,0-0.238,0.057-0.701,0.172c-0.447,0.124-1.147,0.307-2.029,0.594
			c-1.768,0.562-4.338,1.458-7.44,2.828c-3.092,1.378-6.733,3.183-10.701,5.455c-3.98,2.255-8.176,5.084-12.509,8.32
			c-4.36,3.219-8.691,6.993-13.022,11.102c-4.337,4.111-8.552,8.649-12.685,13.44c-4.035,4.845-7.975,9.945-11.678,15.255
			c-0.922,1.327-1.846,2.661-2.773,3.998c-0.922,1.34-1.746,2.724-2.627,4.087c-0.867,1.368-1.736,2.738-2.606,4.109l-2.425,4.189
			l-2.389,4.191c-0.746,1.418-1.471,2.837-2.174,4.26c-0.71,1.418-1.42,2.834-2.126,4.244c-0.643,1.431-1.284,2.858-1.922,4.279
			c-1.277,2.841-2.54,5.65-3.708,8.456c-1.135,2.812-2.508,5.52-3.647,8.24c-1.192,2.712-2.41,5.364-3.69,7.941
			c-1.248,2.593-2.467,5.128-3.655,7.596c-2.481,4.917-4.655,9.626-6.876,13.939c-1.113,2.155-2.17,4.229-3.125,6.214
			c-1.008,1.975-1.945,3.854-2.898,5.612c-1.902,3.524-3.561,6.598-4.928,9.128c-1.4,2.535-2.58,4.52-3.418,5.871
			c-0.83,1.352-1.314,2.065-1.314,2.065l-1.797-0.265c0,0-0.045-0.794-0.053-2.279c-0.012-1.484,0.018-3.656,0.158-6.413
			c0.082-1.38,0.172-2.906,0.27-4.568c0.109-1.662,0.373-3.438,0.626-5.345c0.244-1.908,0.577-3.927,0.916-6.062
			c0.183-1.066,0.371-2.159,0.565-3.278c0.219-1.115,0.5-2.246,0.758-3.41c1.066-4.642,2.264-9.676,4.049-14.916
			c0.871-2.623,1.678-5.337,2.791-8.057c1.084-2.724,2.277-5.49,3.541-8.288c2.736-5.556,5.818-11.23,9.478-16.841
			c0.887-1.408,1.776-2.824,2.671-4.242c0.945-1.403,1.894-2.811,2.844-4.219c0.959-1.405,1.896-2.822,2.816-4.242l2.969-4.2
			l2.949-4.204c1.048-1.377,2.092-2.752,3.137-4.125c1.059-1.367,2.055-2.752,3.154-4.094c1.104-1.342,2.203-2.676,3.301-4.008
			c2.133-2.679,4.518-5.234,6.807-7.771c2.334-2.521,4.781-4.948,7.158-7.338c2.516-2.326,4.854-4.675,7.421-6.83
			c1.261-1.086,2.479-2.177,3.733-3.224c1.292-1.024,2.568-2.035,3.826-3.032c5.117-3.932,10.168-7.497,15.181-10.499
			c4.983-3.015,9.743-5.605,14.21-7.63c4.436-2.052,8.492-3.612,11.932-4.73c3.438-1.124,6.252-1.815,8.191-2.233
			c0.971-0.218,1.726-0.342,2.253-0.436c0.521-0.076,0.79-0.117,0.79-0.117L763.137,95.654z"/>
		<path opacity="0.08" fill="#FFFFFF" d="M721.084,90.715c0,0-0.906,0.345-2.585,1.082c-1.677,0.731-4.091,1.874-7.075,3.42
			c-2.984,1.54-6.506,3.521-10.445,5.871c-3.943,2.344-8.191,5.172-12.683,8.345c-4.495,3.174-9.091,6.814-13.81,10.733
			c-4.607,3.998-9.457,8.205-14.031,12.813c-2.371,2.253-4.547,4.683-6.87,7.055c-2.171,2.466-4.503,4.881-6.655,7.418
			c-2.139,2.543-4.375,5.062-6.39,7.7c-1.032,1.307-2.063,2.617-3.099,3.928c-1.01,1.32-1.964,2.668-2.949,4.001l-2.889,4.018
			c-0.916,1.36-1.813,2.724-2.689,4.089c-0.867,1.371-1.793,2.712-2.606,4.095c-0.812,1.38-1.621,2.755-2.429,4.127
			c-0.793,1.373-1.632,2.722-2.377,4.097c-0.728,1.38-1.496,2.738-2.256,4.087s-1.498,2.695-2.303,4.009
			c-0.732,1.337-1.457,2.663-2.179,3.981c-3.072,5.201-5.909,10.28-8.874,15.035c-2.707,4.828-5.555,9.331-7.941,13.575
			c-1.219,2.114-2.451,4.131-3.622,6.051c-1.12,1.935-2.159,3.778-3.211,5.5c-2.114,3.454-3.956,6.467-5.474,8.946
			c-1.525,2.49-2.805,4.441-3.709,5.769c-0.898,1.327-1.42,2.033-1.42,2.033l-1.783-0.312c0,0-0.003-0.796,0.065-2.281
			c0.062-1.485,0.202-3.659,0.483-6.419c0.164-1.375,0.281-2.913,0.529-4.567c0.285-1.647,0.596-3.432,0.979-5.333
			c0.357-1.906,0.807-3.922,1.275-6.056c0.574-2.108,1.18-4.332,1.875-6.641c1.27-4.646,3.197-9.573,5.254-14.788
			c2.239-5.171,4.727-10.611,8.015-16.032c0.825-1.354,1.655-2.718,2.495-4.092c0.88-1.36,1.838-2.71,2.787-4.068
			c1.857-2.732,3.881-5.445,6.032-8.138c2.103-2.707,4.228-5.429,6.517-8.1c1.129-1.34,2.24-2.69,3.336-4.047l3.476-3.996
			c1.161-1.329,2.291-2.673,3.479-3.988c1.211-1.304,2.421-2.606,3.629-3.905c2.363-2.623,4.951-5.123,7.434-7.637
			c2.504-2.503,5.143-4.909,7.72-7.291c2.714-2.308,5.263-4.655,8.003-6.83c1.352-1.095,2.689-2.183,4.017-3.259
			c1.367-1.051,2.722-2.088,4.062-3.114c2.64-2.078,5.43-3.972,8.072-5.854c5.432-3.661,10.67-7.026,15.739-9.924
			c5.063-2.898,9.806-5.448,14.174-7.531c4.349-2.103,8.233-3.822,11.541-5.101c6.565-2.604,10.62-3.702,10.62-3.702L721.084,90.715
			z"/>
	</g>
</g>
<rect x="583.723" y="28.424" fill="none" width="382.277" height="164.863"/>
<rect x="-13.879" y="210.249" fill="#F3D2A5" width="1244.938" height="157.123"/>
<g>
	<g>
		<path fill="#825F46" d="M16.583,162.911c-5.781,0-14.039,11.562-14.039,15.856c0,4.294,0,31.38,0,31.38h28.077
			c0,0,0-27.994,0-31.38S22.363,162.911,16.583,162.911z"/>
		<path fill="#825F46" d="M46.641,162.911c-5.781,0-14.039,11.562-14.039,15.856c0,4.294,0,31.38,0,31.38h28.077
			c0,0,0-27.994,0-31.38S52.421,162.911,46.641,162.911z"/>
		<path fill="#825F46" d="M76.699,162.911c-5.781,0-14.039,11.562-14.039,15.856c0,4.294,0,31.38,0,31.38h28.076
			c0,0,0-27.994,0-31.38S82.479,162.911,76.699,162.911z"/>
		<path fill="#825F46" d="M106.756,162.911c-5.78,0-14.038,11.562-14.038,15.856c0,4.294,0,31.38,0,31.38h28.076
			c0,0,0-27.994,0-31.38S112.538,162.911,106.756,162.911z"/>
		<path fill="#825F46" d="M136.814,162.911c-5.78,0-14.038,11.562-14.038,15.856c0,4.294,0,31.38,0,31.38h28.076
			c0,0,0-27.994,0-31.38S142.596,162.911,136.814,162.911z"/>
		<path fill="#825F46" d="M166.873,162.911c-5.78,0-14.038,11.562-14.038,15.856c0,4.294,0,31.38,0,31.38h28.077
			c0,0,0-27.994,0-31.38S172.654,162.911,166.873,162.911z"/>
		<path fill="#825F46" d="M196.931,162.911c-5.781,0-14.039,11.562-14.039,15.856c0,4.294,0,31.38,0,31.38h28.077
			c0,0,0-27.994,0-31.38S202.711,162.911,196.931,162.911z"/>
		<path fill="#825F46" d="M226.989,162.911c-5.781,0-14.038,11.562-14.038,15.856c0,4.294,0,31.38,0,31.38h28.075
			c0,0,0-27.994,0-31.38S232.77,162.911,226.989,162.911z"/>
		<path fill="#825F46" d="M257.047,162.911c-5.781,0-14.039,11.562-14.039,15.856c0,4.294,0,31.38,0,31.38h28.076
			c0,0,0-27.994,0-31.38S262.828,162.911,257.047,162.911z"/>
		<path fill="#825F46" d="M287.105,162.911c-5.78,0-14.038,11.562-14.038,15.856c0,4.294,0,31.38,0,31.38h28.076
			c0,0,0-27.994,0-31.38S292.886,162.911,287.105,162.911z"/>
		<path fill="#825F46" d="M317.164,162.911c-5.781,0-14.039,11.562-14.039,15.856c0,4.294,0,31.38,0,31.38h28.077
			c0,0,0-27.994,0-31.38S322.944,162.911,317.164,162.911z"/>
		<path fill="#825F46" d="M347.222,162.911c-5.78,0-14.038,11.562-14.038,15.856c0,4.294,0,31.38,0,31.38h28.076
			c0,0,0-27.994,0-31.38S353.002,162.911,347.222,162.911z"/>
		<path fill="#825F46" d="M377.279,162.911c-5.78,0-14.038,11.562-14.038,15.856c0,4.294,0,31.38,0,31.38h28.076
			c0,0,0-27.994,0-31.38S383.06,162.911,377.279,162.911z"/>
		<path fill="#825F46" d="M407.338,162.911c-5.782,0-14.039,11.562-14.039,15.856c0,4.294,0,31.38,0,31.38h28.076
			c0,0,0-27.994,0-31.38S413.119,162.911,407.338,162.911z"/>
		<path fill="#825F46" d="M437.396,162.911c-5.781,0-14.039,11.562-14.039,15.856c0,4.294,0,31.38,0,31.38h28.078
			c0,0,0-27.994,0-31.38S443.177,162.911,437.396,162.911z"/>
		<path fill="#825F46" d="M467.454,162.911c-5.782,0-14.039,11.562-14.039,15.856c0,4.294,0,31.38,0,31.38h28.076
			c0,0,0-27.994,0-31.38S473.235,162.911,467.454,162.911z"/>
		<path fill="#825F46" d="M497.513,162.911c-5.781,0-14.04,11.562-14.04,15.856c0,4.294,0,31.38,0,31.38h28.078
			c0,0,0-27.994,0-31.38S503.291,162.911,497.513,162.911z"/>
		<path fill="#825F46" d="M527.569,162.911c-5.781,0-14.037,11.562-14.037,15.856c0,4.294,0,31.38,0,31.38h28.075
			c0,0,0-27.994,0-31.38S533.351,162.911,527.569,162.911z"/>
		<path fill="#825F46" d="M557.629,162.911c-5.781,0-14.039,11.562-14.039,15.856c0,4.294,0,31.38,0,31.38h28.077
			c0,0,0-27.994,0-31.38S563.408,162.911,557.629,162.911z"/>
		<path fill="#825F46" d="M587.686,162.911c-5.781,0-14.037,11.562-14.037,15.856c0,4.294,0,31.38,0,31.38h28.075
			c0,0,0-27.994,0-31.38S593.468,162.911,587.686,162.911z"/>
		<path fill="#825F46" d="M617.746,162.911c-5.781,0-14.039,11.562-14.039,15.856c0,4.294,0,31.38,0,31.38h28.075
			c0,0,0-27.994,0-31.38S623.524,162.911,617.746,162.911z"/>
		<path fill="#825F46" d="M647.804,162.911c-5.782,0-14.038,11.562-14.038,15.856c0,4.294,0,31.38,0,31.38h28.075
			c0,0,0-27.994,0-31.38S653.584,162.911,647.804,162.911z"/>
		<path fill="#825F46" d="M677.86,162.911c-5.78,0-14.039,11.562-14.039,15.856c0,4.294,0,31.38,0,31.38h28.078
			c0,0,0-27.994,0-31.38S683.642,162.911,677.86,162.911z"/>
		<path fill="#825F46" d="M707.919,162.911c-5.782,0-14.038,11.562-14.038,15.856c0,4.294,0,31.38,0,31.38h28.075
			c0,0,0-27.994,0-31.38S713.699,162.911,707.919,162.911z"/>
		<path fill="#825F46" d="M737.977,162.911c-5.78,0-14.039,11.562-14.039,15.856c0,4.294,0,31.38,0,31.38h28.077
			c0,0,0-27.994,0-31.38S743.756,162.911,737.977,162.911z"/>
		<path fill="#825F46" d="M768.035,162.911c-5.781,0-14.037,11.562-14.037,15.856c0,4.294,0,31.38,0,31.38h28.073
			c0,0,0-27.994,0-31.38S773.815,162.911,768.035,162.911z"/>
		<path fill="#825F46" d="M798.094,162.911c-5.781,0-14.039,11.562-14.039,15.856c0,4.294,0,31.38,0,31.38h28.077
			c0,0,0-27.994,0-31.38S803.873,162.911,798.094,162.911z"/>
	</g>
	<g>
		<path fill="#996F53" d="M14.601,166.16c-5.781,0-14.038,11.561-14.038,15.854c0,4.295,0,28.406,0,28.406h28.076
			c0,0,0-25.021,0-28.406S20.381,166.16,14.601,166.16z"/>
		<path fill="#996F53" d="M44.659,166.16c-5.781,0-14.038,11.561-14.038,15.854c0,4.295,0,28.406,0,28.406h28.076
			c0,0,0-25.021,0-28.406S50.439,166.16,44.659,166.16z"/>
		<path fill="#996F53" d="M74.717,166.16c-5.78,0-14.038,11.561-14.038,15.854c0,4.295,0,28.406,0,28.406h28.075
			c0,0,0-25.021,0-28.406S80.497,166.16,74.717,166.16z"/>
		<path fill="#996F53" d="M104.775,166.16c-5.781,0-14.039,11.561-14.039,15.854c0,4.295,0,28.406,0,28.406h28.077
			c0,0,0-25.021,0-28.406S110.555,166.16,104.775,166.16z"/>
		<path fill="#996F53" d="M134.833,166.16c-5.781,0-14.038,11.561-14.038,15.854c0,4.295,0,28.406,0,28.406h28.076
			c0,0,0-25.021,0-28.406S140.613,166.16,134.833,166.16z"/>
		<path fill="#996F53" d="M164.892,166.16c-5.781,0-14.039,11.561-14.039,15.854c0,4.295,0,28.406,0,28.406h28.076
			c0,0,0-25.021,0-28.406S170.672,166.16,164.892,166.16z"/>
		<path fill="#996F53" d="M194.949,166.16c-5.78,0-14.038,11.561-14.038,15.854c0,4.295,0,28.406,0,28.406h28.076
			c0,0,0-25.021,0-28.406S200.729,166.16,194.949,166.16z"/>
		<path fill="#996F53" d="M225.007,166.16c-5.78,0-14.037,11.561-14.037,15.854c0,4.295,0,28.406,0,28.406h28.076
			c0,0,0-25.021,0-28.406S230.788,166.16,225.007,166.16z"/>
		<path fill="#996F53" d="M255.065,166.16c-5.78,0-14.039,11.561-14.039,15.854c0,4.295,0,28.406,0,28.406h28.077
			c0,0,0-25.021,0-28.406S260.846,166.16,255.065,166.16z"/>
		<path fill="#996F53" d="M285.124,166.16c-5.781,0-14.039,11.561-14.039,15.854c0,4.295,0,28.406,0,28.406h28.076
			c0,0,0-25.021,0-28.406S290.904,166.16,285.124,166.16z"/>
		<path fill="#996F53" d="M315.182,166.16c-5.781,0-14.039,11.561-14.039,15.854c0,4.295,0,28.406,0,28.406h28.077
			c0,0,0-25.021,0-28.406S320.962,166.16,315.182,166.16z"/>
		<path fill="#996F53" d="M345.24,166.16c-5.781,0-14.038,11.561-14.038,15.854c0,4.295,0,28.406,0,28.406h28.076
			c0,0,0-25.021,0-28.406S351.021,166.16,345.24,166.16z"/>
		<path fill="#996F53" d="M375.298,166.16c-5.78,0-14.038,11.561-14.038,15.854c0,4.295,0,28.406,0,28.406h28.076
			c0,0,0-25.021,0-28.406S381.079,166.16,375.298,166.16z"/>
		<path fill="#996F53" d="M405.355,166.16c-5.78,0-14.038,11.561-14.038,15.854c0,4.295,0,28.406,0,28.406h28.076
			c0,0,0-25.021,0-28.406S411.137,166.16,405.355,166.16z"/>
		<path fill="#996F53" d="M435.415,166.16c-5.781,0-14.04,11.561-14.04,15.854c0,4.295,0,28.406,0,28.406h28.077
			c0,0,0-25.021,0-28.406S441.194,166.16,435.415,166.16z"/>
		<path fill="#996F53" d="M465.473,166.16c-5.781,0-14.038,11.561-14.038,15.854c0,4.295,0,28.406,0,28.406h28.075
			c0,0,0-25.021,0-28.406S471.253,166.16,465.473,166.16z"/>
		<path fill="#996F53" d="M495.531,166.16c-5.781,0-14.039,11.561-14.039,15.854c0,4.295,0,28.406,0,28.406h28.078
			c0,0,0-25.021,0-28.406S501.311,166.16,495.531,166.16z"/>
		<path fill="#996F53" d="M525.588,166.16c-5.781,0-14.038,11.561-14.038,15.854c0,4.295,0,28.406,0,28.406h28.075
			c0,0,0-25.021,0-28.406S531.369,166.16,525.588,166.16z"/>
		<path fill="#996F53" d="M555.646,166.16c-5.78,0-14.04,11.561-14.04,15.854c0,4.295,0,28.406,0,28.406h28.077
			c0,0,0-25.021,0-28.406S561.426,166.16,555.646,166.16z"/>
		<path fill="#996F53" d="M585.704,166.16c-5.781,0-14.038,11.561-14.038,15.854c0,4.295,0,28.406,0,28.406h28.075
			c0,0,0-25.021,0-28.406S591.485,166.16,585.704,166.16z"/>
		<path fill="#996F53" d="M615.764,166.16c-5.781,0-14.04,11.561-14.04,15.854c0,4.295,0,28.406,0,28.406h28.078
			c0,0,0-25.021,0-28.406S621.542,166.16,615.764,166.16z"/>
		<path fill="#996F53" d="M645.82,166.16c-5.78,0-14.038,11.561-14.038,15.854c0,4.295,0,28.406,0,28.406h28.075
			c0,0,0-25.021,0-28.406S651.602,166.16,645.82,166.16z"/>
		<path fill="#996F53" d="M675.881,166.16c-5.782,0-14.04,11.561-14.04,15.854c0,4.295,0,28.406,0,28.406h28.076
			c0,0,0-25.021,0-28.406S681.658,166.16,675.881,166.16z"/>
		<path fill="#996F53" d="M705.938,166.16c-5.781,0-14.038,11.561-14.038,15.854c0,4.295,0,28.406,0,28.406h28.075
			c0,0,0-25.021,0-28.406S711.719,166.16,705.938,166.16z"/>
		<path fill="#996F53" d="M735.995,166.16c-5.781,0-14.039,11.561-14.039,15.854c0,4.295,0,28.406,0,28.406h28.077
			c0,0,0-25.021,0-28.406S741.775,166.16,735.995,166.16z"/>
		<path fill="#996F53" d="M766.053,166.16c-5.781,0-14.038,11.561-14.038,15.854c0,4.295,0,28.406,0,28.406h28.075
			c0,0,0-25.021,0-28.406S771.833,166.16,766.053,166.16z"/>
		<path fill="#996F53" d="M796.111,166.16c-5.78,0-14.04,11.561-14.04,15.854c0,4.295,0,28.406,0,28.406h28.077
			c0,0,0-25.021,0-28.406S801.891,166.16,796.111,166.16z"/>
	</g>
</g>
<g>
	<g>
		<path fill="#825F46" d="M828.15,162.911c-5.777,0-14.036,11.562-14.036,15.856c0,4.294,0,31.38,0,31.38h28.076
			c0,0,0-27.994,0-31.38S833.933,162.911,828.15,162.911z"/>
		<path fill="#825F46" d="M858.211,162.911c-5.781,0-14.037,11.562-14.037,15.856c0,4.294,0,31.38,0,31.38h28.075
			c0,0,0-27.994,0-31.38S863.992,162.911,858.211,162.911z"/>
		<path fill="#825F46" d="M888.268,162.911c-5.78,0-14.039,11.562-14.039,15.856c0,4.294,0,31.38,0,31.38h28.079
			c0,0,0-27.994,0-31.38S894.049,162.911,888.268,162.911z"/>
		<path fill="#825F46" d="M918.324,162.911c-5.779,0-14.035,11.562-14.035,15.856c0,4.294,0,31.38,0,31.38h28.074
			c0,0,0-27.994,0-31.38S924.106,162.911,918.324,162.911z"/>
		<path fill="#825F46" d="M948.385,162.911c-5.78,0-14.039,11.562-14.039,15.856c0,4.294,0,31.38,0,31.38h28.077
			c0,0,0-27.994,0-31.38S954.164,162.911,948.385,162.911z"/>
		<path fill="#825F46" d="M978.441,162.911c-5.779,0-14.036,11.562-14.036,15.856c0,4.294,0,31.38,0,31.38h28.074
			c0,0,0-27.994,0-31.38S984.224,162.911,978.441,162.911z"/>
		<path fill="#825F46" d="M1008.5,162.911c-5.779,0-14.037,11.562-14.037,15.856c0,4.294,0,31.38,0,31.38h28.077
			c0,0,0-27.994,0-31.38S1014.28,162.911,1008.5,162.911z"/>
		<path fill="#825F46" d="M1038.559,162.911c-5.78,0-14.037,11.562-14.037,15.856c0,4.294,0,31.38,0,31.38h28.075
			c0,0,0-27.994,0-31.38S1044.34,162.911,1038.559,162.911z"/>
		<path fill="#825F46" d="M1068.615,162.911c-5.778,0-14.036,11.562-14.036,15.856c0,4.294,0,31.38,0,31.38h28.077
			c0,0,0-27.994,0-31.38S1074.397,162.911,1068.615,162.911z"/>
		<path fill="#825F46" d="M1098.676,162.911c-5.783,0-14.04,11.562-14.04,15.856c0,4.294,0,31.38,0,31.38h28.078
			c0,0,0-27.994,0-31.38S1104.457,162.911,1098.676,162.911z"/>
		<path fill="#825F46" d="M1128.732,162.911c-5.779,0-14.038,11.562-14.038,15.856c0,4.294,0,31.38,0,31.38h28.076
			c0,0,0-27.994,0-31.38S1134.513,162.911,1128.732,162.911z"/>
		<path fill="#825F46" d="M1158.791,162.911c-5.782,0-14.038,11.562-14.038,15.856c0,4.294,0,31.38,0,31.38h28.076
			c0,0,0-27.994,0-31.38S1164.571,162.911,1158.791,162.911z"/>
		<path fill="#825F46" d="M1188.85,162.911c-5.781,0-14.04,11.562-14.04,15.856c0,4.294,0,31.38,0,31.38h28.078
			c0,0,0-27.994,0-31.38S1194.629,162.911,1188.85,162.911z"/>
	</g>
	<g>
		<path fill="#996F53" d="M826.172,166.16c-5.782,0-14.04,11.561-14.04,15.854c0,4.295,0,28.406,0,28.406h28.076
			c0,0,0-25.021,0-28.406S831.949,166.16,826.172,166.16z"/>
		<path fill="#996F53" d="M856.229,166.16c-5.781,0-14.038,11.561-14.038,15.854c0,4.295,0,28.406,0,28.406h28.075
			c0,0,0-25.021,0-28.406S862.01,166.16,856.229,166.16z"/>
		<path fill="#996F53" d="M886.286,166.16c-5.779,0-14.037,11.561-14.037,15.854c0,4.295,0,28.406,0,28.406h28.075
			c0,0,0-25.021,0-28.406S892.066,166.16,886.286,166.16z"/>
		<path fill="#996F53" d="M916.346,166.16c-5.781,0-14.038,11.561-14.038,15.854c0,4.295,0,28.406,0,28.406h28.075
			c0,0,0-25.021,0-28.406S922.126,166.16,916.346,166.16z"/>
		<path fill="#996F53" d="M946.402,166.16c-5.781,0-14.039,11.561-14.039,15.854c0,4.295,0,28.406,0,28.406h28.078
			c0,0,0-25.021,0-28.406S952.184,166.16,946.402,166.16z"/>
		<path fill="#996F53" d="M976.46,166.16c-5.78,0-14.037,11.561-14.037,15.854c0,4.295,0,28.406,0,28.406h28.074
			c0,0,0-25.021,0-28.406S982.24,166.16,976.46,166.16z"/>
		<path fill="#996F53" d="M1006.519,166.16c-5.78,0-14.039,11.561-14.039,15.854c0,4.295,0,28.406,0,28.406h28.077
			c0,0,0-25.021,0-28.406S1012.299,166.16,1006.519,166.16z"/>
		<path fill="#996F53" d="M1036.576,166.16c-5.78,0-14.036,11.561-14.036,15.854c0,4.295,0,28.406,0,28.406h28.073
			c0,0,0-25.021,0-28.406S1042.357,166.16,1036.576,166.16z"/>
		<path fill="#996F53" d="M1066.634,166.16c-5.778,0-14.037,11.561-14.037,15.854c0,4.295,0,28.406,0,28.406h28.077
			c0,0,0-25.021,0-28.406S1072.415,166.16,1066.634,166.16z"/>
		<path fill="#996F53" d="M1096.692,166.16c-5.78,0-14.036,11.561-14.036,15.854c0,4.295,0,28.406,0,28.406h28.074
			c0,0,0-25.021,0-28.406S1102.475,166.16,1096.692,166.16z"/>
		<path fill="#996F53" d="M1126.75,166.16c-5.777,0-14.036,11.561-14.036,15.854c0,4.295,0,28.406,0,28.406h28.076
			c0,0,0-25.021,0-28.406S1132.531,166.16,1126.75,166.16z"/>
		<path fill="#996F53" d="M1156.81,166.16c-5.782,0-14.039,11.561-14.039,15.854c0,4.295,0,28.406,0,28.406h28.077
			c0,0,0-25.021,0-28.406S1162.592,166.16,1156.81,166.16z"/>
		<path fill="#996F53" d="M1186.867,166.16c-5.78,0-14.038,11.561-14.038,15.854c0,4.295,0,28.406,0,28.406h28.076
			c0,0,0-25.021,0-28.406S1192.646,166.16,1186.867,166.16z"/>
	</g>
</g>
</svg>
